<svg clip-rule="evenodd" fill-rule="evenodd" height="8.467mm" image-rendering="optimizeQuality" shape-rendering="geometricPrecision" text-rendering="geometricPrecision" viewBox="0 0 846.66 846.66" width="8.467mm" xmlns="http://www.w3.org/2000/svg"><g id="Layer_x0020_1"><path d="m90.83 90.83c55.62-55.62 128.52-83.43 201.41-83.43 72.9 0 145.79 27.81 201.41 83.43s83.43 128.52 83.43 201.41c0 66.54-23.18 133.08-69.52 186.48l20.23 20.23 32.1-32.1c7.96-7.96 20.87-7.96 28.83 0l244.56 244.57c7.96 7.96 7.96 20.87 0 28.83l-93.03 93.04c-7.96 7.96-20.87 7.96-28.83 0l-244.57-244.57c-7.96-7.96-7.96-20.87 0-28.83l32.11-32.1-20.24-20.24c-53.4 46.35-119.94 69.53-186.48 69.53-72.89 0-145.79-27.81-201.41-83.43s-83.42-128.52-83.42-201.41 27.8-145.8 83.42-201.41zm419.27 483.48 215.73 215.73 64.21-64.21-215.74-215.73c-21.4 21.4-42.8 42.8-64.2 64.21zm26.2-282.07c0-62.46-23.82-124.92-71.48-172.58-47.65-47.65-110.12-71.48-172.58-71.48s-124.92 23.83-172.58 71.48c-47.65 47.65-71.48 110.12-71.48 172.58s23.83 124.92 71.48 172.58c47.66 47.65 110.12 71.48 172.58 71.48 134.8 0 244.06-109.26 244.06-244.06zm-126.94 117.12c7.96-7.96 20.87-7.96 28.83 0s7.96 20.87 0 28.83c-40.3 40.3-93.13 60.45-145.95 60.45s-105.65-20.15-145.95-60.45c-7.96-7.96-7.96-20.87 0-28.83 7.96-7.97 20.87-7.97 28.83 0 32.34 32.33 74.74 48.51 117.12 48.51 42.39 0 84.78-16.17 117.12-48.51zm-234.23-234.24c-7.97 7.96-20.88 7.96-28.84 0s-7.96-20.87 0-28.83c40.31-40.3 93.13-60.45 145.95-60.45s105.64 20.15 145.95 60.45c7.96 7.96 7.96 20.87 0 28.83s-20.87 7.96-28.83 0c-32.34-32.34-74.73-48.51-117.12-48.51-42.38 0-84.77 16.17-117.11 48.51z" fill-rule="nonzero" fill="#ca70ba" opacity="1" original-fill="#000000"></path></g></svg>