<svg clip-rule="evenodd" fill-rule="evenodd" height="512" image-rendering="optimizeQuality" shape-rendering="geometricPrecision" text-rendering="geometricPrecision" viewBox="0 0 512 512" width="512" xmlns="http://www.w3.org/2000/svg"><g id="Layer_x0020_1"><path d="m303.672 511.896h-211.263c-2.0067 0-3.90001-.925987-5.13072-2.51221-1.23071-1.58386-1.66182-3.64844-1.16457-5.59254 7.43506-29.1249 17.9032-53.0281 28.0241-76.1435 21.2422-48.5057 38.0198-86.8196 14.1674-146.948-44.4368-111.86-24.9993-177.72-.869294-213.27 29.0422-42.7867 81.8447-67.3254 144.869-67.3254 32.1131 0 64.5675 6.4701 93.8578 18.7123 30.5363 12.7642 56.249 31.3206 74.3636 53.6636 27.0686 33.3922 36.5127 74.0341 27.3131 117.531-7.22719 34.1812-1.4504 45.8765 16.3182 74.6648 4.76812 7.71026 8.1638 19.0477 3.3945 27.7335-2.35513 4.29096-7.53782 9.43586-18.8434 9.57995h-15.0248l6.46537 15.15c1.04174 2.43898.494883 5.26773-1.38189 7.14451l-8.04333 8.04215 6.94727 10.474c1.70906 2.57599 1.36654 6.00002-.819688 8.18625l-12.7016 12.7016v18.802c0 23.1627-11.5548 36.4454-31.7009 36.4477-.274017 0-.549214-.00354332-.827955-.00826774-14.654-.250394-49.6502-1.21536-62.6022-4.75631-1.35.838585-6.22797 5.15553-15.1819 26.4804-6.40868 15.2646-12.4654 33.2706-17.3327 47.7391-2.87363 8.54058-5.14254 15.2847-6.79963 19.4221-.988586 2.46733-3.3756 4.0819-6.03191 4.0819z" fill="#fdba91"/><path d="m158.36 275.272c-2.58426 0-5.02915-1.55315-6.04018-4.10198-16.3489-41.1852-24.691-78.7904-24.7973-111.772-.145276-44.999 15.2304-79.753 45.697-103.297 17.5524-13.565 39.1985-22.7044 64.3372-27.1666 21.9804-3.90119 45.9757-3.97915 69.3947-.223229 3.54332.568112 5.95396 3.90119 5.38702 7.44451-.568112 3.54214-3.90001 5.95514-7.44451 5.38702-47.4935-7.61813-93.7444 1.67008-123.729 24.841-27.1017 20.9446-40.7765 52.2261-40.6466 92.9731.0980318 30.9072 8.35632 67.9136 23.8796 107.02 1.3252 3.33544-.307088 7.11144-3.64135 8.43664-.787798.310631-1.59804.458269-2.39646.458269z" fill="#de7459"/><g fill="#f55"><path d="m82.4636 369.87h-53.8195c-3.5882 0-6.49726-2.90906-6.49726-6.49726s2.90906-6.49726 6.49726-6.49726h53.8195c3.5882 0 6.49726 2.90906 6.49726 6.49726s-2.91025 6.49726-6.49726 6.49726z"/><path d="m82.4648 323.082c-1.75394 0-3.5008-.703939-4.7823-2.09646l-38.0564-41.3458c-2.42954-2.64095-2.25946-6.7512.381497-9.18074 2.63859-2.4319 6.75002-2.26182 9.18074.379135l38.0564 41.3458c2.42954 2.64095 2.25946 6.7512-.380316 9.18074-1.24961 1.15158-2.82639 1.71733-4.39962 1.71733z"/><path d="m44.406 458.003c-1.57323 0-3.15001-.566931-4.39844-1.71615-2.64095-2.4319-2.81103-6.54097-.380316-9.1831l38.0552-41.3458c2.42954-2.63977 6.54097-2.81103 9.18074-.380316 2.64095 2.43072 2.81103 6.54097.381497 9.18192l-38.0552 41.3458c-1.2815 1.39134-3.02954 2.09764-4.78348 2.09764z"/></g></g></svg>