<svg viewBox="0 0 96 96" xmlns="http://www.w3.org/2000/svg"><g id="Layer_1"></g><g id="Layer_2"></g><g id="Layer_3"></g><g id="Layer_4"><path d="m48 4c-24.261 0-43.998 19.737-43.998 44 0 24.262 19.737 44 43.998 44s43.998-19.738 43.998-44c0-24.263-19.737-44-43.998-44zm0 83.54c-21.804 0-39.542-17.736-39.542-39.54s17.738-39.54 39.542-39.54 39.542 17.736 39.542 39.54-17.738 39.54-39.542 39.54z" fill="#ca70ba" opacity="1" original-fill="#000000"></path><path d="m26.051 35.295c.263.103.532.152.797.152.896 0 1.741-.544 2.081-1.43.593-1.545 1.941-2.73 3.611-3.171 1.66-.446 3.418-.076 4.7.974.949.772 2.354.631 3.135-.31.78-.952.642-2.355-.31-3.138-2.386-1.958-5.627-2.649-8.667-1.833-3.047.805-5.525 3.002-6.629 5.879-.441 1.153.133 2.436 1.282 2.877z" fill="#ca70ba" opacity="1" original-fill="#000000"></path><path d="m64.607 26.538c-3.044-.8-6.285-.12-8.671 1.833-.951.783-1.09 2.186-.31 3.138s2.184 1.082 3.135.31c1.281-1.055 3.037-1.42 4.705-.974 1.665.441 3.013 1.626 3.606 3.171.34.886 1.185 1.43 2.081 1.43.265 0 .534-.049.797-.152 1.149-.441 1.723-1.724 1.283-2.877-1.105-2.876-3.583-5.074-6.626-5.879z" fill="#ca70ba" opacity="1" original-fill="#000000"></path><path d="m69.995 42.442c-.206-.103-5.13-2.279-11.526 1.468-1.061.62-1.417 1.985-.795 3.046.415.707 1.159 1.104 1.924 1.104.383 0 .771-.098 1.125-.31 4.27-2.496 7.279-1.316 7.444-1.245 1.113.484 2.416 0 2.925-1.11.511-1.121.021-2.442-1.097-2.953z" fill="#ca70ba" opacity="1" original-fill="#000000"></path><path d="m36.458 48.06c.765 0 1.509-.397 1.924-1.104.622-1.061.266-2.426-.795-3.046-6.394-3.742-11.32-1.566-11.526-1.468-1.105.506-1.582 1.8-1.093 2.91.489 1.109 1.795 1.621 2.919 1.153.126-.054 3.149-1.273 7.446 1.245.355.212.742.31 1.125.31z" fill="#ca70ba" opacity="1" original-fill="#000000"></path><path d="m61.823 62.174c-.983-.745-2.379-.544-3.119.44-2.513 3.339-6.505 5.335-10.676 5.335s-8.164-1.996-10.677-5.335c-.738-.984-2.135-1.186-3.119-.44-.983.74-1.182 2.132-.442 3.116 3.351 4.454 8.674 7.119 14.238 7.119s10.887-2.665 14.237-7.119c.74-.984.542-2.377-.442-3.116z" fill="#ca70ba" opacity="1" original-fill="#000000"></path></g></svg>