<svg id="Layer_1" enable-background="new 0 0 512 512" height="512" viewBox="0 0 512 512" width="512" xmlns="http://www.w3.org/2000/svg"><g><path d="m493.969 269.191-23.104-34.575 23.402-54.171c2.021-4.679 1.529-10.063-1.307-14.298-2.787-4.161-7.465-6.651-12.461-6.651-.088 0-.176.002-.264.002l-58.871 1.027-23.094-34.559c-2.52-3.769-6.605-6.196-11.119-6.604-4.51-.405-8.971 1.245-12.125 4.499l-36.955 38.132 18.816-87.429c.953-4.431-.148-9.056-2.996-12.581-2.848-3.526-7.137-5.575-11.668-5.575h-41.586l-32.039-49.553c-2.765-4.273-7.507-6.855-12.597-6.855s-9.833 2.582-12.597 6.855l-32.04 49.553h-41.588c-4.532 0-8.821 2.049-11.669 5.575-2.848 3.525-3.949 8.15-2.995 12.581l18.817 87.43-36.958-38.133c-3.155-3.255-7.611-4.911-12.125-4.499-4.514.409-8.601 2.837-11.119 6.605l-23.09 34.558-58.873-1.027c-.088 0-.175-.002-.263-.002-4.997 0-9.674 2.49-12.461 6.652-2.837 4.233-3.329 9.618-1.308 14.297l23.404 54.171-23.105 34.574c-2.519 3.769-3.197 8.474-1.848 12.801s4.583 7.812 8.797 9.48l129.328 51.215-11.021 42.899c-1.268 4.935.056 10.175 3.515 13.915 3.458 3.741 8.58 5.473 13.598 4.593l80.601-14.093v107c0 8.284 6.716 15 15 15s15-6.716 15-15v-106.999l80.599 14.093c.863.151 1.727.225 2.586.225 4.143 0 8.148-1.719 11.012-4.816 3.459-3.741 4.783-8.981 3.516-13.915l-11.02-42.9 129.326-51.215c4.213-1.669 7.447-5.153 8.797-9.48 1.349-4.328.669-9.033-1.848-12.802z" fill="#ff5b5b"/><path d="m493.969 269.191-23.104-34.575 23.402-54.171c2.021-4.679 1.529-10.063-1.307-14.298-2.787-4.161-7.465-6.651-12.461-6.651-.088 0-.176.002-.264.002l-58.871 1.027-23.094-34.559c-2.52-3.769-6.605-6.196-11.119-6.604-4.51-.405-8.971 1.245-12.125 4.499l-36.955 38.132 18.816-87.429c.953-4.431-.148-9.056-2.996-12.581-2.848-3.526-7.137-5.575-11.668-5.575h-41.586l-32.039-49.553c-2.765-4.273-7.507-6.855-12.597-6.855v512c8.284 0 15-6.716 15-15v-106.999l80.599 14.093c.863.151 1.727.225 2.586.225 4.143 0 8.148-1.719 11.012-4.816 3.459-3.741 4.783-8.981 3.516-13.915l-11.02-42.9 129.326-51.215c4.213-1.669 7.447-5.153 8.797-9.48 1.349-4.328.669-9.033-1.848-12.802z" fill="#ff2323"/></g></svg>