<?xml version="1.0" encoding="UTF-8" standalone="no"?>
<!-- Created with Inkscape (http://www.inkscape.org/) -->

<svg
   version="1.1"
   id="svg177"
   xml:space="preserve"
   width="682.66669"
   height="682.66669"
   viewBox="0 0 682.66669 682.66669"
   xmlns="http://www.w3.org/2000/svg"
   xmlns:svg="http://www.w3.org/2000/svg"><defs
     id="defs181"><clipPath
       clipPathUnits="userSpaceOnUse"
       id="clipPath191"><path
         d="M 0,512 H 512 V 0 H 0 Z"
         id="path189" /></clipPath></defs><g
     id="g183"
     transform="matrix(1.3333333,0,0,-1.3333333,0,682.66667)"><g
       id="g185"><g
         id="g187"
         clip-path="url(#clipPath191)"><g
           id="g193"
           transform="translate(274.3862,436.9912)"><path
             d="m 0,0 c 2.109,-7.601 3.339,-15.416 3.356,-23.321 0.017,-8.045 -0.682,-17.784 -2.829,-28.858 -2.125,-10.954 0.928,-24.99 5.933,-41.678 3.89,0.529 7.89,0.823 11.983,0.823 36.917,0 66.844,-22.442 66.844,-50.125 0,-24.126 -22.734,-44.263 -53.012,-49.042 1.13,-8.868 1.826,-18.005 1.934,-27.389 l 38.508,5.529 c 9.205,1.322 17.199,-6.367 16.237,-15.617 l -3.656,-35.146 c -0.713,-6.858 -6.223,-12.227 -13.097,-12.763 l -41.341,-3.221 c -5.586,-69.766 -10.73,-145.665 50.349,-148.573 78.133,-3.721 70.55,87.169 67.678,130.306 -20.215,1.4 -36.184,18.227 -36.184,38.798 0,21.487 17.419,38.906 38.906,38.906 2.662,0 5.26,-0.273 7.771,-0.782 7.991,36.583 17.661,84.3 19.585,140.925 0,0 0.252,-1.192 0.325,38.113 C 117.416,8.778 31.803,3.999 0,0"
             style="fill:#fed2a4;fill-opacity:1;fill-rule:nonzero;stroke:none"
             id="path195" /></g><g
           id="g197"
           transform="translate(280.8462,343.1343)"><path
             d="m 0,0 c 3.89,0.529 7.89,0.823 11.983,0.823 5.219,0 10.29,-0.464 15.164,-1.312 -5.092,16.903 -8.225,31.107 -6.08,42.167 2.147,11.073 2.846,20.813 2.829,28.858 -0.017,7.567 -1.153,15.048 -3.099,22.341 -0.274,1.027 -0.576,2.046 -0.879,3.066 C 9.24,95.565 0.205,94.695 -6.46,93.857 -4.351,86.256 -3.121,78.441 -3.104,70.536 -3.087,62.491 -3.786,52.751 -5.933,41.678 -8.058,30.724 -5.005,16.687 0,0"
             style="fill:#ffbd86;fill-opacity:1;fill-rule:nonzero;stroke:none"
             id="path199" /></g><g
           id="g201"
           transform="translate(335.5141,221.2661)"><path
             d="m 0,0 c -0.319,11.093 -1.436,21.834 -3.097,32.182 -7.535,-4.161 -16.275,-7.161 -25.756,-8.658 1.13,-8.868 1.826,-18.005 1.934,-27.389 z"
             style="fill:#ffbd86;fill-opacity:1;fill-rule:nonzero;stroke:none"
             id="path203" /></g><g
           id="g205"
           transform="translate(332.4184,158.3003)"><path
             d="m 0,0 -27.172,-2.117 c -5.586,-69.766 -10.73,-145.665 50.349,-148.573 6.659,-0.318 12.689,0.06 18.159,1.029 C -10.906,-139.911 -5.354,-66.77 0,0"
             style="fill:#ffbd86;fill-opacity:1;fill-rule:nonzero;stroke:none"
             id="path207" /></g><g
           id="g209"
           transform="translate(439.7671,431.3237)"><path
             d="m 0,0 c -7.661,0 -13.928,-6.268 -13.928,-13.928 v 24.849 c 0,8.558 -7.002,15.561 -15.561,15.561 -8.558,0 -15.56,-7.003 -15.56,-15.561 V 25.23 c 0,9.138 -7.477,16.615 -16.615,16.615 -9.138,0 -16.615,-7.477 -16.615,-16.615 v 14.268 c 0,9.707 -7.943,17.649 -17.65,17.649 -9.182,0 -16.775,-7.109 -17.571,-16.093 -2.981,18.413 -14.363,32.124 -28.122,32.124 -16.06,0 -29.079,-18.675 -29.079,-41.71 0,-6.756 1.123,-13.133 3.112,-18.775 0.953,-2.702 1.791,-5.442 2.522,-8.205 30.088,3.978 117.26,9.808 178.973,-43.67 0.014,6.991 0.023,15.322 0.023,25.254 C 13.929,-6.268 7.661,0 0,0"
             style="fill:#ff656f;fill-opacity:1;fill-rule:nonzero;stroke:none"
             id="path211" /></g><g
           id="g213"
           transform="translate(299.1782,444.0171)"><path
             d="m 0,0 c -1.989,5.642 -3.112,12.019 -3.112,18.774 0,16.032 6.31,29.943 15.557,36.925 -4.014,3.051 -8.595,4.785 -13.478,4.785 -16.06,0 -29.079,-18.674 -29.079,-41.71 0,-6.755 1.123,-13.132 3.112,-18.774 0.953,-2.703 1.791,-5.441 2.521,-8.205 6.442,0.851 15.505,1.787 26.368,2.208 C 1.312,-3.983 0.698,-1.979 0,0"
             style="fill:#ff4756;fill-opacity:1;fill-rule:nonzero;stroke:none"
             id="path215" /></g><g
           id="g217"
           transform="translate(361.4883,293.8208)"><path
             d="m 0,0 c 0,28.318 -30.613,51.274 -68.376,51.274 -4.303,0 -8.507,-0.312 -12.589,-0.882 8.032,-27.058 21.46,-61.218 26.292,-100.635 C -23.478,-45.483 0,-24.798 0,0"
             style="fill:#60b8fe;fill-opacity:1;fill-rule:nonzero;stroke:none"
             id="path219" /></g><g
           id="g221"
           transform="translate(307.6069,343.9297)"><path
             d="m 0,0 c -4.673,0.757 -9.52,1.166 -14.495,1.166 -4.303,0 -8.506,-0.313 -12.588,-0.883 8.032,-27.058 21.459,-61.218 26.291,-100.634 9.471,1.445 18.223,4.365 25.83,8.414 C 19.495,-56.198 7.462,-25.065 0,0"
             style="fill:#23a8fe;fill-opacity:1;fill-rule:nonzero;stroke:none"
             id="path223" /></g><g
           id="g225"
           transform="translate(425.8388,216.3862)"><path
             d="m 0,0 c -21.911,0 -39.673,-17.762 -39.673,-39.673 0,-21.066 16.421,-38.288 37.16,-39.585 -0.352,5.254 -0.644,9.835 -0.718,13.487 -0.287,14.042 5.014,36.056 11.316,64.944 C 5.475,-0.286 2.771,0 0,0"
             style="fill:#43cb8e;fill-opacity:1;fill-rule:nonzero;stroke:none"
             id="path227" /></g><g
           id="g229"
           transform="translate(396.4912,82.1255)"><path
             d="m 0,0 c 0,-18.692 -15.153,-33.844 -33.844,-33.844 -18.692,0 -33.844,15.152 -33.844,33.844 0,18.691 15.152,33.844 33.844,33.844 C -15.153,33.844 0,18.691 0,0"
             style="fill:#ffa85d;fill-opacity:1;fill-rule:nonzero;stroke:none"
             id="path231" /></g><g
           id="g233"
           transform="translate(419.1538,258.5464)"><path
             d="m 0,0 c 0,-11.07 -8.974,-20.044 -20.044,-20.044 -11.071,0 -20.045,8.974 -20.045,20.044 0,11.07 8.974,20.044 20.045,20.044 C -8.974,20.044 0,11.07 0,0"
             style="fill:#ff656f;fill-opacity:1;fill-rule:nonzero;stroke:none"
             id="path235" /></g><g
           id="g237"
           transform="translate(424.3579,351.1094)"><path
             d="m 0,0 c -3.943,-12.133 -27.841,-15.24 -53.378,-6.94 -25.536,8.299 -43.041,24.863 -39.098,36.996 3.944,12.133 27.842,15.24 53.378,6.941 C -13.561,28.697 3.944,12.133 0,0"
             style="fill:#6c7ed6;fill-opacity:1;fill-rule:nonzero;stroke:none"
             id="path239" /></g><g
           id="g241"
           transform="translate(408.9155,176.7134)"><path
             d="m 0,0 c 0,16.548 10.134,30.724 24.533,36.674 0.159,0.726 0.315,1.437 0.475,2.172 -2.61,0.541 -5.314,0.827 -8.085,0.827 -21.91,0 -39.673,-17.762 -39.673,-39.673 0,-21.066 16.421,-38.288 37.16,-39.585 -0.233,3.49 -0.439,6.674 -0.574,9.496 C 5.369,-22.816 0,-12.039 0,0"
             style="fill:#00ba66;fill-opacity:1;fill-rule:nonzero;stroke:none"
             id="path243" /></g><g
           id="g245"
           transform="translate(351.5527,82.1255)"><path
             d="M 0,0 C 0,14.7 9.374,27.206 22.469,31.879 18.914,33.148 15.085,33.844 11.094,33.844 -7.598,33.844 -22.75,18.691 -22.75,0 c 0,-18.692 15.152,-33.844 33.844,-33.844 3.991,0 7.82,0.696 11.375,1.965 C 9.374,-27.206 0,-14.7 0,0"
             style="fill:#ff9839;fill-opacity:1;fill-rule:nonzero;stroke:none"
             id="path247" /></g><g
           id="g249"
           transform="translate(401.8144,258.5464)"><path
             d="M 0,0 C 0,6.844 3.436,12.879 8.67,16.496 5.437,18.729 1.521,20.045 -2.705,20.045 -13.775,20.045 -22.75,11.07 -22.75,0 c 0,-11.07 8.975,-20.044 20.045,-20.044 4.226,0 8.142,1.315 11.375,3.548 C 3.436,-12.879 0,-6.844 0,0"
             style="fill:#ff4756;fill-opacity:1;fill-rule:nonzero;stroke:none"
             id="path251" /></g><g
           id="g253"
           transform="translate(358.1323,375.1104)"><path
             d="m 0,0 c 2.787,8.575 15.546,12.634 31.801,11.352 -1.525,0.578 -3.083,1.127 -4.673,1.644 -25.536,8.299 -49.435,5.192 -53.378,-6.941 -3.943,-12.133 13.562,-28.697 39.098,-36.996 7.489,-2.434 14.832,-3.88 21.577,-4.412 C 11.465,-26.651 -3.698,-11.377 0,0"
             style="fill:#4f67d2;fill-opacity:1;fill-rule:nonzero;stroke:none"
             id="path255" /></g><g
           id="g257"
           transform="translate(349.0937,158.333)"><path
             d="m 0,0 c 7.118,0.554 12.824,6.115 13.563,13.216 l 3.785,36.393 c 0.996,9.579 -7.282,17.54 -16.814,16.172 l -41.037,-5.892 c 0.017,-1.116 0.027,-2.235 0.027,-3.358 0,-17.975 -1.775,-38.704 -3.473,-59.956 z"
             style="fill:#ff656f;fill-opacity:1;fill-rule:nonzero;stroke:none"
             id="path259" /></g><g
           id="g261"
           transform="translate(332.3139,157.0254)"><path
             d="m 0,0 c 1.644,20.509 3.304,40.461 3.304,57.838 0,2.424 -0.041,4.831 -0.118,7.222 l -26.91,-3.864 c 0.017,-1.115 0.028,-2.235 0.028,-3.358 0,-17.975 -1.776,-38.703 -3.473,-59.955 z"
             style="fill:#ff4756;fill-opacity:1;fill-rule:nonzero;stroke:none"
             id="path263" /></g><g
           id="g265"
           transform="translate(163.667,158.8892)"><path
             d="m 0,0 c -6.991,0.544 -12.596,6.006 -13.321,12.98 l -3.718,35.747 c -0.979,9.408 7.152,17.228 16.514,15.883 l 40.243,-5.638 c 1.02,75.261 39.962,134.565 33.681,166.951 -2.148,11.074 -2.846,20.813 -2.829,28.858 0.017,8.027 1.289,15.96 3.458,23.671 -32.263,3.999 -117.459,8.506 -179.393,-42.945 0.071,-39.842 0.325,-38.633 0.325,-38.633 1.924,-56.611 11.59,-104.32 19.58,-140.899 2.515,0.51 5.116,0.784 7.782,0.784 21.503,0 38.934,-17.431 38.934,-38.934 0,-20.589 -15.985,-37.431 -36.219,-38.826 -2.874,-43.149 -10.436,-133.998 67.679,-130.278 60.91,2.9 55.963,78.389 50.395,147.995 z"
             style="fill:#fed2a4;fill-opacity:1;fill-rule:nonzero;stroke:none"
             id="path267" /></g><g
           id="g269"
           transform="translate(85.9892,215.6479)"><path
             d="M 0,0 C 5.906,0 11.502,-1.322 16.517,-3.676 8.414,33.267 -1.72,82 -3.695,140.115 c 0,0 -0.245,-1.157 -0.322,36.379 -0.011,5.4 -0.018,11.611 -0.021,18.731 -8.138,-4.725 -16.069,-10.179 -23.649,-16.476 0.071,-39.843 0.325,-38.634 0.325,-38.634 C -25.438,83.504 -15.772,35.795 -7.783,-0.784 -5.268,-0.273 -2.666,0 0,0"
             style="fill:#ffbd86;fill-opacity:1;fill-rule:nonzero;stroke:none"
             id="path271" /></g><g
           id="g273"
           transform="translate(112.98,148.6646)"><path
             d="m 0,0 c -6.39,-6.146 -14.874,-10.128 -24.276,-10.776 -2.874,-43.149 -10.436,-133.998 67.679,-130.279 2.554,0.122 4.987,0.376 7.314,0.747 C -16.066,-130.294 -1.217,-33.522 0,0"
             style="fill:#ffbd86;fill-opacity:1;fill-rule:nonzero;stroke:none"
             id="path275" /></g><g
           id="g277"
           transform="translate(72.2114,431.3237)"><path
             d="m 0,0 c 7.661,0 13.928,-6.268 13.928,-13.928 v 24.849 c 0,8.558 7.003,15.561 15.561,15.561 8.558,0 15.56,-7.003 15.56,-15.561 V 25.23 c 0,9.138 7.477,16.615 16.615,16.615 9.138,0 16.615,-7.477 16.615,-16.615 v 14.268 c 0,9.707 7.943,17.649 17.65,17.649 9.182,0 16.775,-7.109 17.571,-16.093 2.981,18.413 14.363,32.123 28.122,32.123 16.06,0 29.079,-18.674 29.079,-41.709 0,-6.756 -1.123,-13.133 -3.112,-18.775 -0.953,-2.702 -1.79,-5.442 -2.522,-8.205 -30.088,3.978 -117.26,9.808 -178.973,-43.67 -0.014,6.991 -0.022,15.322 -0.022,25.254 C -13.928,-6.268 -7.661,0 0,0"
             style="fill:#ff656f;fill-opacity:1;fill-rule:nonzero;stroke:none"
             id="path279" /></g><g
           id="g281"
           transform="translate(81.9497,417.3955)"><path
             d="m 0,0 c 0,2.673 0.776,5.167 2.095,7.294 -2.461,3.968 -6.845,6.634 -11.833,6.634 -7.661,0 -13.929,-6.267 -13.929,-13.928 0,-9.932 0.009,-18.263 0.023,-25.253 7.551,6.543 15.484,12.192 23.646,17.072 C 0.001,-5.578 0,-2.863 0,0"
             style="fill:#ff4756;fill-opacity:1;fill-rule:nonzero;stroke:none"
             id="path283" /></g><g
           id="g285"
           transform="translate(150.4902,293.8208)"><path
             d="m 0,0 c 0,28.318 30.613,51.274 68.377,51.274 4.303,0 8.506,-0.312 12.588,-0.882 C 72.933,23.334 59.505,-10.826 54.674,-50.243 23.478,-45.483 0,-24.798 0,0"
             style="fill:#60b8fe;fill-opacity:1;fill-rule:nonzero;stroke:none"
             id="path287" /></g><g
           id="g289"
           transform="translate(175.8154,288.6699)"><path
             d="m 0,0 c 0,26.033 22.628,48.092 53.935,55.752 -3.547,0.429 -7.175,0.673 -10.883,0.673 -37.764,0 -68.377,-22.956 -68.377,-51.274 0,-24.386 22.709,-44.783 53.13,-49.981 C 10.806,-34.072 0,-17.986 0,0"
             style="fill:#23a8fe;fill-opacity:1;fill-rule:nonzero;stroke:none"
             id="path291" /></g><g
           id="g293"
           transform="translate(86.1396,216.3862)"><path
             d="m 0,0 c 21.911,0 39.673,-17.762 39.673,-39.673 0,-21.066 -16.421,-38.288 -37.16,-39.585 0.352,5.254 0.644,9.835 0.718,13.487 0.287,14.042 -5.014,36.056 -11.316,64.944 C -5.474,-0.286 -2.771,0 0,0"
             style="fill:#43cb8e;fill-opacity:1;fill-rule:nonzero;stroke:none"
             id="path295" /></g><g
           id="g297"
           transform="translate(87.6206,351.1094)"><path
             d="M 0,0 C 3.943,-12.133 27.841,-15.24 53.378,-6.94 78.915,1.359 96.419,17.923 92.476,30.056 88.532,42.189 64.634,45.296 39.098,36.997 13.561,28.697 -3.943,12.133 0,0"
             style="fill:#6c7ed6;fill-opacity:1;fill-rule:nonzero;stroke:none"
             id="path299" /></g><g
           id="g301"
           transform="translate(109.0893,359.9429)"><path
             d="m 0,0 c -2.948,9.07 6.093,20.616 21.514,29.335 -1.29,-0.364 -2.584,-0.749 -3.885,-1.172 -25.537,-8.3 -43.041,-24.864 -39.098,-36.996 3.944,-12.133 27.842,-15.241 53.378,-6.941 6.446,2.095 12.378,4.717 17.584,7.661 C 25.46,-14.893 3.743,-11.515 0,0"
             style="fill:#4f67d2;fill-opacity:1;fill-rule:nonzero;stroke:none"
             id="path303" /></g><g
           id="g305"
           transform="translate(162.8848,158.333)"><path
             d="m 0,0 c -7.118,0.554 -12.824,6.115 -13.562,13.216 l -3.786,36.393 c -0.996,9.579 7.282,17.54 16.814,16.172 l 41.037,-5.892 c -0.017,-1.116 -0.027,-2.235 -0.027,-3.358 0,-17.975 1.776,-38.704 3.473,-59.956 z"
             style="fill:#ff656f;fill-opacity:1;fill-rule:nonzero;stroke:none"
             id="path307" /></g><g
           id="g309"
           transform="translate(175.8164,169.2432)"><path
             d="m 0,0 -3.951,37.985 c -0.63,6.063 2.302,11.499 6.923,14.526 l -16.437,2.36 c -9.533,1.368 -17.81,-6.593 -16.814,-16.172 l 3.785,-36.393 c 0.739,-7.101 6.445,-12.662 13.563,-13.216 L 9.454,-12.655 C 4.335,-10.534 0.599,-5.759 0,0"
             style="fill:#ff4756;fill-opacity:1;fill-rule:nonzero;stroke:none"
             id="path311" /></g><g
           id="g313"
           transform="translate(112.9326,147.4741)"><path
             d="m 0,0 c 0.048,1.108 0.085,2.161 0.105,3.141 0.278,13.616 -4.698,34.728 -10.745,62.333 -4.936,2.203 -10.399,3.439 -16.153,3.439 -2.77,0 -5.474,-0.287 -8.085,-0.828 6.302,-28.888 11.603,-50.901 11.316,-64.944 -0.074,-3.652 -0.366,-8.233 -0.718,-13.487 C -14.94,-9.762 -6.483,-5.94 0,0"
             style="fill:#00ba66;fill-opacity:1;fill-rule:nonzero;stroke:none"
             id="path315" /></g><g
           id="g317"
           transform="translate(132.914,258.5464)"><path
             d="m 0,0 c 0,-11.07 -8.974,-20.044 -20.044,-20.044 -11.071,0 -20.045,8.974 -20.045,20.044 0,11.07 8.974,20.044 20.045,20.044 C -8.974,20.044 0,11.07 0,0"
             style="fill:#ff656f;fill-opacity:1;fill-rule:nonzero;stroke:none"
             id="path319" /></g><g
           id="g321"
           transform="translate(115.5747,258.5464)"><path
             d="M 0,0 C 0,6.844 3.436,12.879 8.67,16.496 5.437,18.729 1.521,20.044 -2.705,20.044 -13.775,20.044 -22.75,11.07 -22.75,0 c 0,-11.07 8.975,-20.045 20.045,-20.045 4.226,0 8.142,1.316 11.375,3.549 C 3.436,-12.879 0,-6.844 0,0"
             style="fill:#ff4756;fill-opacity:1;fill-rule:nonzero;stroke:none"
             id="path323" /></g><g
           id="g325"
           transform="translate(183.1763,82.1255)"><path
             d="m 0,0 c 0,-18.692 -15.153,-33.844 -33.844,-33.844 -18.692,0 -33.844,15.152 -33.844,33.844 0,18.691 15.152,33.844 33.844,33.844 C -15.153,33.844 0,18.691 0,0"
             style="fill:#ffa85d;fill-opacity:1;fill-rule:nonzero;stroke:none"
             id="path327" /></g><g
           id="g329"
           transform="translate(138.2378,82.1255)"><path
             d="M 0,0 C 0,14.7 9.374,27.206 22.469,31.879 18.914,33.148 15.085,33.844 11.094,33.844 -7.598,33.844 -22.75,18.691 -22.75,0 c 0,-18.692 15.152,-33.844 33.844,-33.844 3.991,0 7.82,0.696 11.375,1.965 C 9.374,-27.206 0,-14.7 0,0"
             style="fill:#ff9839;fill-opacity:1;fill-rule:nonzero;stroke:none"
             id="path331" /></g><g
           id="g333"
           transform="translate(439.7778,431.3237)"><path
             d="m 0,0 c -7.661,0 -13.928,-6.268 -13.928,-13.928 v 24.849 c 0,8.558 -7.002,15.561 -15.561,15.561 -8.558,0 -15.56,-7.003 -15.56,-15.561 V 25.23 c 0,9.138 -7.477,16.615 -16.615,16.615 -9.138,0 -16.615,-7.477 -16.615,-16.615 v 14.268 c 0,9.707 -7.943,17.649 -17.65,17.649 -9.182,0 -16.775,-7.109 -17.571,-16.093 -2.981,18.413 -14.363,32.124 -28.122,32.124 -16.06,0 -29.079,-18.675 -29.079,-41.71 0,-6.756 1.123,-13.133 3.112,-18.775 0.953,-2.702 1.791,-5.442 2.522,-8.205 30.088,3.978 117.26,9.808 178.973,-43.67 0.014,6.991 0.022,15.322 0.022,25.254 C 13.928,-6.268 7.661,0 0,0 Z"
             style="fill:none;stroke:#000000;stroke-width:15;stroke-linecap:round;stroke-linejoin:round;stroke-miterlimit:10;stroke-dasharray:none;stroke-opacity:1"
             id="path335" /></g><g
           id="g337"
           transform="translate(326.2778,472.3774)"><path
             d="M 0,0 V -47.151"
             style="fill:none;stroke:#000000;stroke-width:15;stroke-linecap:round;stroke-linejoin:round;stroke-miterlimit:10;stroke-dasharray:none;stroke-opacity:1"
             id="path339" /></g><g
           id="g341"
           transform="translate(361.499,456.5537)"><path
             d="M 0,0 V -33.4"
             style="fill:none;stroke:#000000;stroke-width:15;stroke-linecap:round;stroke-linejoin:round;stroke-miterlimit:10;stroke-dasharray:none;stroke-opacity:1"
             id="path343" /></g><g
           id="g345"
           transform="translate(394.729,442.2451)"><path
             d="M 0,0 V -27.381"
             style="fill:none;stroke:#000000;stroke-width:15;stroke-linecap:round;stroke-linejoin:round;stroke-miterlimit:10;stroke-dasharray:none;stroke-opacity:1"
             id="path347" /></g><g
           id="g349"
           transform="translate(425.8496,417.3955)"><path
             d="M 0,0 V -10.822"
             style="fill:none;stroke:#000000;stroke-width:15;stroke-linecap:round;stroke-linejoin:round;stroke-miterlimit:10;stroke-dasharray:none;stroke-opacity:1"
             id="path351" /></g><g
           id="g353"
           transform="translate(361.499,293.8208)"><path
             d="m 0,0 c 0,28.318 -30.613,51.274 -68.377,51.274 -4.303,0 -8.506,-0.312 -12.588,-0.882 8.032,-27.058 21.46,-61.218 26.292,-100.635 C -23.478,-45.483 0,-24.798 0,0 Z"
             style="fill:none;stroke:#000000;stroke-width:15;stroke-linecap:round;stroke-linejoin:round;stroke-miterlimit:10;stroke-dasharray:none;stroke-opacity:1"
             id="path355" /></g><g
           id="g357"
           transform="translate(425.8496,216.3862)"><path
             d="m 0,0 c -21.911,0 -39.673,-17.762 -39.673,-39.673 0,-21.066 16.421,-38.288 37.16,-39.585 -0.352,5.254 -0.644,9.835 -0.718,13.487 -0.287,14.042 5.014,36.056 11.316,64.944 C 5.475,-0.286 2.771,0 0,0 Z"
             style="fill:none;stroke:#000000;stroke-width:15;stroke-linecap:round;stroke-linejoin:round;stroke-miterlimit:10;stroke-dasharray:none;stroke-opacity:1"
             id="path359" /></g><g
           id="g361"
           transform="translate(396.5014,82.1255)"><path
             d="m 0,0 c 0,-18.692 -15.152,-33.844 -33.844,-33.844 -18.692,0 -33.844,15.152 -33.844,33.844 0,18.691 15.152,33.844 33.844,33.844 C -15.152,33.844 0,18.691 0,0 Z"
             style="fill:none;stroke:#000000;stroke-width:15;stroke-linecap:round;stroke-linejoin:round;stroke-miterlimit:10;stroke-dasharray:none;stroke-opacity:1"
             id="path363" /></g><g
           id="g365"
           transform="translate(419.1645,258.5464)"><path
             d="m 0,0 c 0,-11.07 -8.974,-20.044 -20.044,-20.044 -11.071,0 -20.045,8.974 -20.045,20.044 0,11.07 8.974,20.044 20.045,20.044 C -8.974,20.044 0,11.07 0,0 Z"
             style="fill:none;stroke:#000000;stroke-width:15;stroke-linecap:round;stroke-linejoin:round;stroke-miterlimit:10;stroke-dasharray:none;stroke-opacity:1"
             id="path367" /></g><g
           id="g369"
           transform="translate(424.3686,351.1094)"><path
             d="m 0,0 c -3.943,-12.133 -27.841,-15.24 -53.378,-6.94 -25.536,8.299 -43.041,24.863 -39.098,36.996 3.944,12.133 27.842,15.24 53.378,6.941 C -13.561,28.697 3.943,12.133 0,0 Z"
             style="fill:none;stroke:#000000;stroke-width:15;stroke-linecap:round;stroke-linejoin:round;stroke-miterlimit:10;stroke-dasharray:none;stroke-opacity:1"
             id="path371" /></g><g
           id="g373"
           transform="translate(349.1045,158.333)"><path
             d="m 0,0 c 7.118,0.554 12.824,6.115 13.562,13.216 l 3.786,36.393 c 0.996,9.579 -7.282,17.54 -16.814,16.172 l -41.037,-5.892 c 0.017,-1.116 0.027,-2.235 0.027,-3.358 0,-17.975 -1.776,-38.704 -3.473,-59.956 z"
             style="fill:none;stroke:#000000;stroke-width:15;stroke-linecap:round;stroke-linejoin:round;stroke-miterlimit:10;stroke-dasharray:none;stroke-opacity:1"
             id="path375" /></g><g
           id="g377"
           transform="translate(72.2222,431.3237)"><path
             d="m 0,0 c 7.661,0 13.928,-6.268 13.928,-13.928 v 24.849 c 0,8.558 7.003,15.561 15.561,15.561 8.558,0 15.56,-7.003 15.56,-15.561 V 25.23 c 0,9.138 7.477,16.615 16.615,16.615 9.138,0 16.615,-7.477 16.615,-16.615 v 14.268 c 0,9.707 7.943,17.649 17.65,17.649 9.182,0 16.775,-7.109 17.571,-16.093 2.981,18.413 14.363,32.123 28.122,32.123 16.06,0 29.079,-18.674 29.079,-41.709 0,-6.756 -1.123,-13.133 -3.112,-18.775 -0.953,-2.702 -1.791,-5.442 -2.522,-8.205 -30.088,3.978 -117.26,9.808 -178.973,-43.67 -0.014,6.991 -0.022,15.322 -0.022,25.254 C -13.928,-6.268 -7.661,0 0,0 Z"
             style="fill:none;stroke:#000000;stroke-width:15;stroke-linecap:round;stroke-linejoin:round;stroke-miterlimit:10;stroke-dasharray:none;stroke-opacity:1"
             id="path379" /></g><g
           id="g381"
           transform="translate(185.7222,472.3774)"><path
             d="M 0,0 V -47.151"
             style="fill:none;stroke:#000000;stroke-width:15;stroke-linecap:round;stroke-linejoin:round;stroke-miterlimit:10;stroke-dasharray:none;stroke-opacity:1"
             id="path383" /></g><g
           id="g385"
           transform="translate(150.501,456.5537)"><path
             d="M 0,0 V -33.4"
             style="fill:none;stroke:#000000;stroke-width:15;stroke-linecap:round;stroke-linejoin:round;stroke-miterlimit:10;stroke-dasharray:none;stroke-opacity:1"
             id="path387" /></g><g
           id="g389"
           transform="translate(117.271,442.2451)"><path
             d="M 0,0 V -27.381"
             style="fill:none;stroke:#000000;stroke-width:15;stroke-linecap:round;stroke-linejoin:round;stroke-miterlimit:10;stroke-dasharray:none;stroke-opacity:1"
             id="path391" /></g><g
           id="g393"
           transform="translate(86.1504,417.3955)"><path
             d="M 0,0 V -10.822"
             style="fill:none;stroke:#000000;stroke-width:15;stroke-linecap:round;stroke-linejoin:round;stroke-miterlimit:10;stroke-dasharray:none;stroke-opacity:1"
             id="path395" /></g><g
           id="g397"
           transform="translate(150.501,293.8208)"><path
             d="m 0,0 c 0,28.318 30.613,51.274 68.377,51.274 4.303,0 8.506,-0.312 12.588,-0.882 C 72.933,23.334 59.505,-10.826 54.673,-50.243 23.478,-45.483 0,-24.798 0,0 Z"
             style="fill:none;stroke:#000000;stroke-width:15;stroke-linecap:round;stroke-linejoin:round;stroke-miterlimit:10;stroke-dasharray:none;stroke-opacity:1"
             id="path399" /></g><g
           id="g401"
           transform="translate(86.1504,216.3862)"><path
             d="m 0,0 c 21.911,0 39.673,-17.762 39.673,-39.673 0,-21.066 -16.421,-38.288 -37.16,-39.585 0.352,5.254 0.644,9.835 0.718,13.487 0.287,14.042 -5.014,36.056 -11.316,64.944 C -5.474,-0.286 -2.771,0 0,0 Z"
             style="fill:none;stroke:#000000;stroke-width:15;stroke-linecap:round;stroke-linejoin:round;stroke-miterlimit:10;stroke-dasharray:none;stroke-opacity:1"
             id="path403" /></g><g
           id="g405"
           transform="translate(115.4985,82.1255)"><path
             d="m 0,0 c 0,-18.692 15.152,-33.844 33.844,-33.844 18.692,0 33.844,15.152 33.844,33.844 0,18.691 -15.152,33.844 -33.844,33.844 C 15.152,33.844 0,18.691 0,0 Z"
             style="fill:none;stroke:#000000;stroke-width:15;stroke-linecap:round;stroke-linejoin:round;stroke-miterlimit:10;stroke-dasharray:none;stroke-opacity:1"
             id="path407" /></g><g
           id="g409"
           transform="translate(92.8354,258.5464)"><path
             d="m 0,0 c 0,-11.07 8.974,-20.044 20.044,-20.044 11.071,0 20.045,8.974 20.045,20.044 0,11.07 -8.974,20.044 -20.045,20.044 C 8.974,20.044 0,11.07 0,0 Z"
             style="fill:none;stroke:#000000;stroke-width:15;stroke-linecap:round;stroke-linejoin:round;stroke-miterlimit:10;stroke-dasharray:none;stroke-opacity:1"
             id="path411" /></g><g
           id="g413"
           transform="translate(87.6313,351.1094)"><path
             d="M 0,0 C 3.943,-12.133 27.841,-15.24 53.378,-6.94 78.915,1.359 96.419,17.923 92.476,30.056 88.532,42.189 64.634,45.296 39.098,36.997 13.561,28.697 -3.943,12.133 0,0 Z"
             style="fill:none;stroke:#000000;stroke-width:15;stroke-linecap:round;stroke-linejoin:round;stroke-miterlimit:10;stroke-dasharray:none;stroke-opacity:1"
             id="path415" /></g><g
           id="g417"
           transform="translate(162.8955,158.333)"><path
             d="m 0,0 c -7.118,0.554 -12.824,6.115 -13.562,13.216 l -3.786,36.393 c -0.996,9.579 7.282,17.54 16.814,16.172 l 41.037,-5.892 c -0.017,-1.116 -0.027,-2.235 -0.027,-3.358 0,-17.975 1.776,-38.704 3.473,-59.956 z"
             style="fill:none;stroke:#000000;stroke-width:15;stroke-linecap:round;stroke-linejoin:round;stroke-miterlimit:10;stroke-dasharray:none;stroke-opacity:1"
             id="path419" /></g><g
           id="g421"
           transform="translate(166.8428,8.9385)"><path
             d="m 0,0 c 65.88,14.247 36.529,132.843 36.529,205.925 0,76.684 40.069,137.133 33.705,169.949 -2.148,11.073 -2.846,20.813 -2.829,28.858 0.022,10.363 2.117,20.573 5.563,30.347 1.99,5.642 3.112,12.019 3.112,18.774 0,23.036 -13.019,41.71 -29.079,41.71 -13.759,0 -25.14,-13.711 -28.122,-32.124 -0.796,8.985 -8.388,16.094 -17.57,16.094 -9.708,0 -17.651,-7.943 -17.651,-17.65 v -14.268 c 0,9.138 -7.476,16.615 -16.615,16.615 -9.138,0 -16.615,-7.477 -16.615,-16.615 v -14.308 c 0,8.558 -7.002,15.56 -15.56,15.56 -8.558,0 -15.56,-7.002 -15.56,-15.56 v -24.85 c 0,7.661 -6.268,13.928 -13.929,13.928 -7.66,0 -13.928,-6.267 -13.928,-13.928 0,-63.27 0.344,-61.632 0.344,-61.632 3.426,-100.793 31.393,-173.368 30.744,-205.148 C -78.077,111.467 -93.542,17.995 -35,1.174"
             style="fill:none;stroke:#000000;stroke-width:15;stroke-linecap:round;stroke-linejoin:round;stroke-miterlimit:10;stroke-dasharray:none;stroke-opacity:1"
             id="path423" /></g><g
           id="g425"
           transform="translate(451.2514,321.7642)"><path
             d="m 0,0 c 0.979,10.94 1.712,22.276 2.111,33.999 0,0 0.344,-1.637 0.344,61.632 0,7.661 -6.268,13.929 -13.929,13.929 -7.66,0 -13.928,-6.268 -13.928,-13.929 v 24.85 c 0,8.559 -7.002,15.561 -15.56,15.561 -8.559,0 -15.56,-7.002 -15.56,-15.561 v 14.309 c 0,9.138 -7.478,16.614 -16.616,16.614 -9.138,0 -16.614,-7.476 -16.614,-16.614 v 14.267 c 0,9.708 -7.943,17.65 -17.651,17.65 -9.182,0 -16.775,-7.109 -17.571,-16.094 -2.981,18.413 -14.362,32.124 -28.121,32.124 -16.06,0 -29.079,-18.674 -29.079,-41.71 0,-6.755 1.122,-13.132 3.112,-18.774 3.445,-9.774 5.541,-19.983 5.563,-30.347 0.017,-8.045 -0.681,-17.784 -2.829,-28.858 -6.364,-32.816 33.705,-93.264 33.705,-169.948 0,-76.684 -32.315,-203.478 46.977,-207.254 87.047,-4.145 67.703,109.153 67.013,143.005 -0.49,23.971 15.3,71.156 24.56,136.149"
             style="fill:none;stroke:#000000;stroke-width:15;stroke-linecap:round;stroke-linejoin:round;stroke-miterlimit:10;stroke-dasharray:none;stroke-opacity:1"
             id="path427" /></g></g></g></g></svg>
