<svg id="b43f7a72-d944-4be5-97c1-1c1dae138da4" viewBox="0 0 64 64" xmlns="http://www.w3.org/2000/svg" data-name="Line"><path d="m20.9517 44.6224a24.8294 24.8294 0 0 0 3.0184.9509 1.0032 1.0032 0 0 0 .2847-1.9593c-1.7592-.52-3.4272-1.2068-5.17-1.7194a1 1 0 0 0 -1.24.68c-.3658 1.5288 2.1005 1.4924 3.1069 2.0478z"/><path d="m40.0757 41.5923c-1.5353.0493-3.0853.03-4.6109-.0591a1 1 0 0 0 -.1153 1.9973 42.0527 42.0527 0 0 0 9.5623-.45 23.1135 23.1135 0 0 1 7.5024-.2372 1 1 0 0 0 .3906-1.9622 22.1634 22.1634 0 0 0 -7.2466.0911l-.3356-1.9275a2.9516 2.9516 0 0 0 1.4487-3.0607l-.3272-1.883a2.9555 2.9555 0 1 0 -5.824 1.0109c.2335 1.2518.3048 3.063 1.5374 3.7943a2.9441 2.9441 0 0 0 1.1962.4934l.3215 1.847a34.8828 34.8828 0 0 1 -3.4995.3457zm2.4154-6.8232a.9552.9552 0 0 1 1.882-.3261l.3269 1.883a.9551.9551 0 0 1 -1.882.3261z"/><path d="m4.9956 41.65c1.1121-.1923 1.2439-1.0612 4.6168-1.9293a16.7993 16.7993 0 0 1 2.94-.4524l.5685 2.556a1 1 0 0 0 1.9524-.4346l-2.712-12.1948a2.952 2.952 0 0 0 1.3058-3.1271l-.4151-1.8659a2.9554 2.9554 0 0 0 -5.77 1.2833l.4151 1.8665a2.9534 2.9534 0 0 0 2.5129 2.2818l1.6995 7.6413a18.7042 18.7042 0 0 0 -2.9936.5079 13.9159 13.9159 0 0 0 -4.7325 2.0764 1.0059 1.0059 0 0 0 .6122 1.7909zm4.8544-14.7329c-.1229-.813-.6676-2.1317-.2886-2.5858a.9616.9616 0 0 1 1.7385.3052l.4151 1.8655a.9554.9554 0 0 1 -1.865.4151z"/><path d="m52.61 50.5329h-8.0318a1 1 0 0 0 0 2h8.0318a1 1 0 0 0 0-2z"/><path d="m4.9931 52.5331h35.5846a1 1 0 0 0 0-2h-35.5846a1 1 0 0 0 0 2z"/><path d="m52.6144 54.8274h-47.6213a1 1 0 0 0 0 2h47.6213a1 1 0 0 0 0-2z"/><path d="m35.6884 13.1184a.9983.9983 0 0 0 .629-.2231l3.7974-3.0781a2.8784 2.8784 0 0 1 2.4466-.5733l5.573 1.2385a4.7824 4.7824 0 0 0 1.8459.0625l6.9706-1.14a1 1 0 0 0 -.3223-1.9739l-6.9735 1.1405c-.6619.245-5.9006-1.1837-6.6581-1.2794a4.867 4.867 0 0 0 -4.1392.9688l-3.8 3.08a1.0069 1.0069 0 0 0 .6306 1.7775z"/><path d="m59.796 19.2325a.9991.9991 0 0 0 -1.4015-.1905l-4.37 3.3227a2.8722 2.8722 0 0 1 -1.4934.5768l-5.9392.5171a4.9 4.9 0 0 0 -1.9974.6236l-6.5731 3.7534a1.5534 1.5534 0 0 1 -1.6085-2.6551l11.96-7.6767a1 1 0 0 0 -1.08-1.6838l-1.871 1.2009-4.1-1.408a1.9652 1.9652 0 0 0 -1.8089.2779l-2.718 2.0061a1.9639 1.9639 0 0 0 -.795 1.4401l-.2889 3.9174a3.614 3.614 0 0 0 -1.9895 3.4662 2.8843 2.8843 0 0 0 -1.676 1.7827 2.1124 2.1124 0 0 1 -.3816-1.39l.72-9.8714a2.8461 2.8461 0 0 1 .8927-1.86 1 1 0 0 0 -1.3606-1.4659 4.867 4.867 0 0 0 -1.5275 3.1805l-.7186 9.8635a4.0573 4.0573 0 0 0 1.7848 3.6922 2.9155 2.9155 0 0 0 1.1839 3.0478l-1.9946 7.2772a47.3353 47.3353 0 0 1 -9.0619-2.4847l1.254-3.2715a2.9463 2.9463 0 0 0 2.8148-1.893l.6847-1.7849a2.9553 2.9553 0 0 0 -5.5183-2.1164l-.6847 1.7844a2.9514 2.9514 0 0 0 .8373 3.2889l-1.306 3.4073c-1.0056-.1719-2.8594-1.0815-3.163.447-.0852.8068.6307 1.156 1.3328 1.18 4.1129.9286 8.0027 2.8372 12.2786 3.38l-.7762 2.8323a1 1 0 0 0 1.9289.5283l3.305-12.0562a2.9054 2.9054 0 0 0 1.2166-.353c1.2975-.6034 1.5477-2.41 1.8986-3.6265.0212-.0744.0166-.1553.0314-.2307a3.5385 3.5385 0 0 0 1.297-.4368l6.5731-3.7534a2.8951 2.8951 0 0 1 1.1778-.3677l5.94-.5172a4.8676 4.8676 0 0 0 2.5306-.9772l4.37-3.3227a1 1 0 0 0 .1908-1.401zm-37.796 12.695.6846-1.7849a.9553.9553 0 0 1 1.7834.6847l-.6846 1.7843a.9552.9552 0 0 1 -1.7834-.6841zm15.9825-12.421 2.69-2.0018 2.6032.8941-5.4645 3.5076zm-2.7316 12.0376a.9559.9559 0 0 1 -1.844-.5025l.5089-1.8479a.9218.9218 0 0 1 .51-.5914 3.5072 3.5072 0 0 0 1.3352 1.0892c.0015.0092-.5088 1.843-.5101 1.8526z"/></svg>