<svg id="&#x421;&#x43B;&#x43E;&#x439;_1" viewBox="0 0 1994.7 2065" xmlns="http://www.w3.org/2000/svg"><g transform="translate(-752.65 -717.5)"><path d="m809.91 2157.16c-95.06-838.72 92.25-943 413.77-1037.13 319.25-93.51 354.62-193.82 337-370h378.63c-17.62 176.2 17.75 276.52 337 370 321.53 94.17 508.84 198.41 413.77 1037.13" fill="#ffcf8f"/><path d="m1148.09 1648.47c37.7 282.75 60.22 777 67.76 841.09s-33.61 260.44-33.61 260.44h1135.52s-41.16-196.34-33.62-260.43 30.06-558.34 67.76-841.09" fill="#ffcf8f"/><g stroke-linecap="round" stroke-linejoin="round" stroke-width="65"><path d="m1914.74 1185.28c24.9 0 45.09 23.92 45.09 53.42s-20.19 53.42-45.09 53.42h-35.13v14.54c0 14.17-8.84 32.52-20.28 39.36-68.67 41.25-150 41.25-218.65 0-11.44-6.84-20.28-25.2-20.28-39.36v-14.54h-35.13c-24.9 0-45.09-23.92-45.09-53.42s20.19-53.42 45.09-53.42h35.13v-30.28c0-14.2 8.84-18.85 20.28-12 68.67 41.25 150 41.25 218.65 0 11.44-6.84 20.28-2.2 20.28 12v30.26z" fill="#fff" stroke="#5e1235"/><path d="m1855.5 1023.48v102.89c0 9.25-7.2 21.24-16.51 25.71a206 206 0 0 1 -178 0c-9.31-4.47-16.51-16.46-16.51-25.71v-112.37c0-9.25 7.2-21.24 16.51-25.71a206 206 0 0 1 178 0c9.31 4.47 16.51 16.46 16.51 25.71z" fill="#fff" stroke="#5e1235"/><path d="m1914.74 1381.44c24.9 0 45.09 23.92 45.09 53.42s-20.19 53.42-45.09 53.42h-35.13v14.54c0 14.17-8.84 32.52-20.28 39.36-68.67 41.25-150 41.25-218.65 0-11.44-6.84-20.28-25.2-20.28-39.36v-14.54h-35.13c-24.9 0-45.09-23.92-45.09-53.42s20.19-53.42 45.09-53.42h35.13v-30.26c0-14.2 8.84-18.85 20.28-12 68.67 41.25 150 41.25 218.65 0 11.44-6.84 20.28-2.2 20.28 12v30.26z" fill="#fff" stroke="#5e1235"/><path d="m1914.74 1577.6c24.9 0 45.09 23.92 45.09 53.42s-20.19 53.42-45.09 53.42h-35.13v14.56c0 14.17-8.84 32.52-20.28 39.36-68.67 41.25-150 41.25-218.65 0-11.44-6.84-20.28-25.2-20.28-39.36v-14.54h-35.13c-24.9 0-45.09-23.92-45.09-53.42s20.19-53.42 45.09-53.42h35.13v-30.26c0-14.2 8.84-18.85 20.28-12 68.67 41.25 150 41.25 218.65 0 11.44-6.84 20.28-2.2 20.28 12v30.26z" fill="#fff" stroke="#5e1235"/><path d="m1914.74 1783.76c24.9 0 45.09 23.92 45.09 53.42s-20.19 53.42-45.09 53.42h-35.13v14.54c0 14.17-8.84 32.52-20.28 39.36-68.67 41.25-150 41.25-218.65 0-11.44-6.84-20.28-25.2-20.28-39.36v-14.54h-35.13c-24.9 0-45.09-23.92-45.09-53.42s20.19-53.42 45.09-53.42h35.13v-30.26c0-14.2 8.84-18.85 20.28-12 68.67 41.25 150 41.25 218.65 0 11.44-6.84 20.28-2.2 20.28 12v30.26z" fill="#fff" stroke="#5e1235"/><path d="m1914.74 1987.76c24.9 0 45.09 23.92 45.09 53.42s-20.19 53.42-45.09 53.42h-35.13v14.54c0 14.17-8.84 32.52-20.28 39.36-68.67 41.25-150 41.25-218.65 0-11.44-6.84-20.28-25.2-20.28-39.36v-14.54h-35.13c-24.9 0-45.09-23.92-45.09-53.42s20.19-53.42 45.09-53.42h35.13v-30.26c0-14.2 8.84-18.85 20.28-12 68.67 41.25 150 41.25 218.65 0 11.44-6.84 20.28-2.2 20.28 12v30.26z" fill="#fff" stroke="#5e1235"/><path d="m1914.74 2192.76c24.9 0 45.09 23.92 45.09 53.42s-20.19 53.42-45.09 53.42h-35.13v14.54c0 14.17-8.84 32.52-20.28 39.36-68.67 41.25-150 41.25-218.65 0-11.44-6.84-20.28-25.2-20.28-39.36v-14.54h-35.13c-24.9 0-45.09-23.92-45.09-53.42s20.19-53.42 45.09-53.42h35.13v-30.26c0-14.2 8.84-18.85 20.28-12 68.67 41.25 150 41.25 218.65 0 11.44-6.84 20.28-2.2 20.28 12v30.26z" fill="#fff" stroke="#5e1235"/><path d="m1914.74 2399.92c24.9 0 45.09 23.92 45.09 53.42s-20.19 53.42-45.09 53.42h-35.13v14.54c0 14.17-8.84 32.52-20.28 39.36-68.67 41.25-150 41.25-218.65 0-11.44-6.84-20.28-25.2-20.28-39.36v-14.54h-35.13c-24.9 0-45.09-23.92-45.09-53.42s20.19-53.42 45.09-53.42h35.13v-30.26c0-14.2 8.84-18.85 20.28-12 68.67 41.25 150 41.25 218.65 0 11.44-6.84 20.28-2.2 20.28 12v30.26z" fill="#fff" stroke="#5e1235"/><path d="m1855.5 2604.12v86c0 10-7.2 23.05-16.51 27.9a191.52 191.52 0 0 1 -178 0c-9.31-4.85-16.51-17.86-16.51-27.9v-107.45c0-10.07 7.2-13.36 16.51-8.51a191.52 191.52 0 0 0 178 0c9.31-4.85 16.51-1.56 16.51 8.51z" fill="#fff" stroke="#5e1235"/><path d="m1939.31 750c-17.62 176.2 17.75 276.52 337 370 321.53 94.17 508.84 198.41 413.77 1037.13" fill="none" stroke="#5e1235"/><path d="m809.91 2157.16c-95.06-838.72 92.25-943 413.77-1037.13 319.25-93.51 354.62-193.82 337-370" fill="none" stroke="#5e1235"/><path d="m2317.76 2750s-41.16-196.34-33.62-260.43 30.06-558.34 67.76-841.09" fill="none" stroke="#5e1235"/><path d="m1148.09 1648.47c37.7 282.75 60.22 777 67.76 841.09s-33.61 260.44-33.61 260.44" fill="none" stroke="#5e1235"/><path d="m1103.5 1325.5s61-38 246.5-87.5" fill="none" stroke="#fff"/></g></g></svg>