<svg id="Layer_1" enable-background="new 0 0 512 512" height="512" viewBox="0 0 512 512" width="512" xmlns="http://www.w3.org/2000/svg" xmlns:xlink="http://www.w3.org/1999/xlink"><linearGradient id="SVGID_1_" gradientUnits="userSpaceOnUse" x1="9.394" x2="415.815" y1="516.708" y2="110.287"><stop offset="0" stop-color="#ca70ba" stop-opacity="1" original-stop-color="#fcc60e"></stop><stop offset="1" stop-color="#ca70ba" stop-opacity="1" original-stop-color="#e92e29"></stop></linearGradient><path clip-rule="evenodd" d="m491.303 316.938-150.834 159.632c-12.184 12.889-27.592 19.428-45.798 19.428h-278.67v-83.019h64.932c2.127 0 4.164-.849 5.664-2.351l33.65-33.75c14.203-14.24 30.23-27.268 51.164-26.189 6.592.339 14.243.989 23.104 1.748 25.375 2.161 56.921 4.861 88.168 2.311 12.029.852 21.035 9.84 21.035 21.1 0 10.031-7.024 18.45-16.408 20.6l-5.122.531h-107.869c-4.416 0-7.999 3.58-7.999 7.999 0 4.42 3.582 8 7.999 8h108.28.002c2.465 0 4.876-.239 7.208-.7l8.069-.84c19.034-1.97 34.457-9.151 47.156-21.94l84.003-84.65c24.678-24.859 46.883-32.48 59.397-20.359 8.836 8.559 10.261 24.629 2.869 32.449zm-329.961-81.749c15.48 43.81 44.398 61.49 88.022 53.801-9.729-34.64-38.654-52.322-88.022-53.801zm77.36-46.881c0-4.59 1.551-8.979 4.338-12.529 5.115 1.289 10.464 1.98 15.971 1.98 5.51 0 10.86-.7 15.975-1.98 2.786 3.54 4.338 7.94 4.338 12.529 0 11.191-9.101 20.301-20.293 20.312-.006 0-.011 0-.018 0-.008 0-.011 0-.018 0-11.192-.011-20.293-9.121-20.293-20.312zm-19.065-7.899c-3.836 3.84-8.937 5.95-14.361 5.95-5.425 0-10.525-2.11-14.361-5.95-3.836-3.831-5.95-8.929-5.95-14.359 0-5.421 2.114-10.522 5.948-14.361 3.252-3.249 7.464-5.259 11.951-5.799 5.553 9.25 13.322 17.02 22.572 22.57-.536 4.489-2.549 8.699-5.799 11.949zm-56.932-68.099c0-11.201 9.11-20.311 20.311-20.311 4.588 0 8.982 1.551 12.53 4.341-1.29 5.109-1.981 10.459-1.981 15.97 0 5.509.693 10.859 1.981 15.979-3.547 2.781-7.942 4.33-12.53 4.33-11.201 0-20.311-9.11-20.311-20.309zm28.207-68.102c3.837-3.829 8.938-5.948 14.363-5.948s10.525 2.119 14.361 5.948c3.251 3.25 5.263 7.46 5.797 11.951-9.25 5.55-17.02 13.32-22.572 22.571-4.485-.531-8.699-2.541-11.949-5.801-3.834-3.831-5.948-8.93-5.948-14.36 0-5.42 2.114-10.521 5.948-14.361zm68.1-28.208c11.199 0 20.313 9.109 20.313 20.307 0 4.591-1.552 8.992-4.338 12.531-5.115-1.278-10.466-1.979-15.975-1.979s-10.86.701-15.975 1.979c-2.785-3.539-4.334-7.94-4.334-12.531-.001-11.198 9.11-20.307 20.309-20.307zm39.378 28.208c3.836-3.84 8.935-5.948 14.362-5.948 5.425 0 10.523 2.107 14.359 5.948 3.838 3.84 5.95 8.94 5.95 14.361 0 5.43-2.111 10.529-5.948 14.36-3.25 3.259-7.464 5.261-11.953 5.801-5.552-9.25-13.32-17.02-22.569-22.571.535-4.481 2.547-8.7 5.799-11.951zm56.93 68.102c0 11.199-9.11 20.309-20.31 20.309-4.59 0-8.985-1.549-12.533-4.339 1.288-5.111 1.981-10.461 1.981-15.97 0-5.511-.693-10.86-1.979-15.97 3.547-2.79 7.942-4.341 12.531-4.341 11.2 0 20.31 9.109 20.31 20.311zm-28.207 68.099c-3.834 3.84-8.936 5.95-14.361 5.95s-10.525-2.11-14.362-5.95c-3.252-3.25-5.264-7.461-5.799-11.949 9.248-5.55 17.017-13.32 22.569-22.57 4.489.529 8.704 2.55 11.953 5.799 3.838 3.831 5.95 8.94 5.95 14.361 0 5.419-2.113 10.52-5.95 14.359zm-117.548-68.099c0 27.269 22.181 49.448 49.446 49.448 27.264 0 49.447-22.179 49.447-49.448 0-27.26-22.183-49.45-49.447-49.45-27.265-.001-49.446 22.19-49.446 49.45zm147.122 122.879c-49.376 1.48-78.295 19.151-88.025 53.801 43.626 7.679 72.544-9.991 88.025-53.801zm142.876 37.801c-7.349-7.11-34.979-26.67-81.881 20.589l-84.003 84.65c-5.001 5.039-10.567 8.97-16.788 11.841 1.822-4.382 2.83-9.182 2.83-14.221 0-19.74-16.124-36.04-36.71-37.111-.359-.018-.72-.009-1.08.02-4.957.411-9.939.68-14.916.83v-34.658c7.186 1.209 14.085 1.819 20.674 1.819 16.963 0 31.907-4 44.639-11.97 19.751-12.381 34.218-34.409 42.998-65.479.674-2.39.201-4.96-1.283-6.96-1.483-1.99-3.809-3.18-6.293-3.221-33.254-.531-59.914 5.369-79.264 17.49-8.52 5.34-15.677 11.9-21.472 19.629v-32.509c13.285-3 23.834-13.3 27.188-26.451 5.553 3.311 11.916 5.08 18.551 5.08 9.698 0 18.817-3.779 25.675-10.64 6.856-6.851 10.634-15.97 10.634-25.669 0-6.63-1.767-13-5.078-18.55 15.697-4.001 27.337-18.26 27.337-35.19s-11.642-31.18-27.339-35.19c3.313-5.55 5.08-11.911 5.08-18.55-.002-9.701-3.779-18.809-10.637-25.672-6.857-6.859-15.976-10.637-25.673-10.637-6.636 0-12.996 1.769-18.55 5.08-4.006-15.698-18.264-27.34-35.19-27.34s-31.184 11.642-35.189 27.34c-5.551-3.312-11.916-5.08-18.549-5.08-9.698 0-18.817 3.778-25.675 10.637-6.858 6.863-10.634 15.971-10.634 25.672 0 6.639 1.767 13 5.078 18.55-15.697 4.01-27.339 18.269-27.339 35.19 0 16.93 11.642 31.19 27.339 35.19-3.311 5.55-5.078 11.92-5.078 18.55 0 9.699 3.777 18.818 10.636 25.678 6.858 6.851 15.977 10.631 25.675 10.631 6.635 0 12.998-1.769 18.55-5.08 3.354 13.151 13.905 23.451 27.19 26.451v32.509c-5.795-7.73-12.954-14.29-21.476-19.629-19.347-12.121-46.003-18.001-79.264-17.49-2.484.041-4.807 1.231-6.291 3.221-1.483 1.999-1.957 4.569-1.282 6.96 8.78 31.07 23.245 53.099 42.998 65.479 12.734 7.97 27.672 11.97 44.639 11.97 6.585 0 13.488-.61 20.676-1.819v34.82c-19.681-.241-38.732-1.85-55.137-3.25-8.629-.741-16.781-1.43-23.639-1.791-27.262-1.409-47.309 14.811-63.322 30.881l-31.305 31.39h-69.611c-4.418 0-8.001 3.58-8.001 7.999v99.021c0 2.13.842 4.161 2.344 5.66 1.5 1.5 3.534 2.34 5.657 2.34h286.668c22.78 0 42.102-8.22 57.427-24.44l150.833-159.63c13.345-14.12 11.742-40.301-3.367-54.94z" fill="url(#SVGID_1_)" fill-rule="evenodd"></path></svg>