<svg id="OBJECT" viewBox="0 0 32 32" xmlns="http://www.w3.org/2000/svg"><path d="m26.08 7.19c.24 0 .49-.09.68-.27l2.18-2.03c.4-.38.43-1.01.05-1.41s-1.01-.43-1.41-.05l-2.18 2.03c-.4.38-.43 1.01-.05 1.41.2.21.46.32.73.32z" fill="#ca70ba" opacity="1" original-fill="#000000"></path><path d="m22.47 4.26s.02 0 .04 0c.54 0 .98-.42 1-.96l.04-1.26c.02-.55-.41-1.01-.96-1.03-.5-.03-1.02.41-1.03.96l-.04 1.26c-.02.55.41 1.01.96 1.03z" fill="#ca70ba" opacity="1" original-fill="#000000"></path><path d="m27.74 9.92c-.02.55.41 1.01.96 1.03l1.26.04s.02 0 .04 0c.54 0 .98-.42 1-.96.02-.55-.41-1.01-.96-1.03l-1.26-.04c-.51-.04-1.01.41-1.03.96z" fill="#ca70ba" opacity="1" original-fill="#000000"></path><path d="m11.89 29h-9.89c-.55 0-1 .45-1 1s.45 1 1 1h9.89c.55 0 1-.45 1-1s-.45-1-1-1z" fill="#ca70ba" opacity="1" original-fill="#000000"></path><path d="m2 27h5.89c.55 0 1-.45 1-1s-.45-1-1-1h-5.89c-.55 0-1 .45-1 1s.45 1 1 1z" fill="#ca70ba" opacity="1" original-fill="#000000"></path><path d="m2 23h.89c.55 0 1-.45 1-1s-.45-1-1-1h-.89c-.55 0-1 .45-1 1s.45 1 1 1z" fill="#ca70ba" opacity="1" original-fill="#000000"></path><path d="m25.71 18.79-.08-.02c-1.22-.32-2.27-1.09-2.99-2.25-1.48-2.39-1.85-5.29-1.01-7.98l.08-.24c.16-.52-.12-1.08-.64-1.25l-1.43-.47c-1.29-.43-2.37-1.32-3.03-2.51-.39-.7-1.07-1.16-1.86-1.26s-1.57.17-2.12.74l-9.92 10.26c-.57.59-.87 1.37-.84 2.19s.38 1.58.99 2.13l12.9 11.59c.92.83 2.11 1.28 3.34 1.28h8.89c1.65 0 3-1.35 3-3v-2.34c-.1-2.47-.21-5.55-5.28-6.87zm.12 3.63c.36-.4.56-.84.66-1.27 2.07.87 2.37 2.17 2.46 3.85h-7.84c-.74 0-1.45-.27-2.01-.77l-.7-.63c1.11.16 2.1.25 2.98.25 2.13 0 3.6-.48 4.45-1.43zm-11.76-17.48c.12-.12.26-.15.36-.15h.07c.09.01.26.06.37.25.91 1.63 2.38 2.85 4.15 3.43l.52.17c-.19.77-.3 1.55-.33 2.33l-2.58.17c-.55.04-.97.51-.93 1.06.03.53.47.94 1 .94h.07l2.56-.17c.06.41.13.81.23 1.21l-2.31.62c-.53.14-.85.69-.71 1.23.12.45.52.74.96.74.09 0 .17-.01.26-.03l2.44-.66c.11.24.21.48.34.72l-1.95 1.31c-.46.31-.58.93-.27 1.39.19.29.51.44.83.44.19 0 .39-.05.56-.17l1.92-1.29c.79.93 1.79 1.63 2.94 2.04-.01.18-.07.39-.24.58-.36.38-2.05 1.5-8.83-.11l-6.08-5.46c1.5-1.72 2.22-3.4 2.14-5-.05-.98-.39-1.72-.73-2.23l3.24-3.36zm-4.7 4.87c.1.24.18.52.19.87.04 1.04-.53 2.24-1.63 3.52l-1.5-1.34 2.94-3.04zm18.62 19.2h-8.89c-.74 0-1.45-.27-2-.77l-12.9-11.59c-.2-.18-.32-.44-.33-.71 0-.27.09-.53.28-.73l.89-.92 12.72 11.43c.92.83 2.11 1.28 3.34 1.28h7.88v1c0 .55-.44 1-1 1z" fill="#ca70ba" opacity="1" original-fill="#000000"></path></svg>