<svg id="Layer_1" enable-background="new 0 0 512.004 512.004" height="512" viewBox="0 0 512.004 512.004" width="512" xmlns="http://www.w3.org/2000/svg"><path d="m280.405 256.002 156.988-224.54c6.329-9.053 4.122-21.522-4.931-27.851-9.053-6.33-21.522-4.122-27.851 4.931l-148.609 212.556-148.609-212.556c-6.33-9.053-18.798-11.261-27.851-4.931-9.053 6.329-11.26 18.798-4.931 27.851l156.988 224.54-156.988 224.54c-6.329 9.053-4.122 21.522 4.931 27.851 3.489 2.439 7.485 3.611 11.442 3.611 6.31 0 12.519-2.979 16.409-8.542l148.609-212.556 148.609 212.556c3.89 5.564 10.099 8.542 16.409 8.542 3.957 0 7.954-1.172 11.442-3.611 9.053-6.329 11.26-18.798 4.931-27.851z" fill="#ff2323" opacity="1" original-fill="#000000"></path></svg>