<?xml version="1.0" encoding="iso-8859-1"?>
<!-- Generator: Adobe Illustrator 19.0.0, SVG Export Plug-In . SVG Version: 6.00 Build 0)  -->
<svg version="1.1" id="Capa_1" xmlns="http://www.w3.org/2000/svg" xmlns:xlink="http://www.w3.org/1999/xlink" x="0px" y="0px"
	 viewBox="0 0 512 512" style="enable-background:new 0 0 512 512;" xml:space="preserve">
<path style="fill:#FFD8B9;" d="M417.547,273.96c0-0.478-0.012-0.956-0.037-1.422c-0.723-13.799-7.893-25.232-21.838-25.624
	c-14.301-0.392-22.267,10.539-23.284,24.484l-0.184-9.68c-0.478-6.519-3.321-12.377-7.672-16.74
	c-4.804-4.792-11.421-7.757-18.737-7.757c-13.97,0-25.404,10.796-26.409,24.497h-0.184c-1.005-13.701-12.438-24.497-26.397-24.497
	c-13.971,0-25.404,10.796-26.409,24.497h-0.184c-0.012-0.245-0.061-0.478-0.086-0.723V155.947c0-0.478-0.012-0.944-0.037-1.422
	c-0.711-13.799-11.752-25.22-25.698-25.612c-14.644-0.417-26.703,11.066-27.218,25.465c-0.012,0.049-0.012,0.098-0.012,0.147v5.404
	l0.012-1.814c0,0,0.133,124.439,0.135,170.531l-28.729-28.729c-11.471-11.471-30.07-11.471-41.541,0l0,0
	c-11.471,11.471-11.471,30.07,0,41.541l114.133,128.9V502h124.486v-31.64c0,0,35.889-44.411,35.889-88.583L417.547,273.96
	L417.547,273.96z"/>
<path style="fill:#5377A2;" d="M213.298,299.355c-0.032-55.501-0.124-141.238-0.124-141.238l-0.012,1.814v-5.404
	c0-0.049,0-0.098,0.012-0.147c0.515-14.399,12.573-25.882,27.218-25.465c13.946,0.392,24.987,11.813,25.698,25.612
	c0.025,0.478,0.037,0.943,0.037,1.422v105.048c0.025,0.245,0.074,0.478,0.086,0.723h0.184c1.005-13.701,12.438-24.497,26.409-24.497
	c13.958,0,25.392,10.796,26.397,24.497h0.184c1.005-13.701,12.439-24.497,26.409-24.497c4.858,0,9.405,1.314,13.32,3.596
	c17.129-23.916,27.215-53.219,27.215-84.879C386.329,75.339,320.991,10,240.391,10C159.792,10,94.454,75.339,94.454,155.938
	C94.454,227.278,145.645,286.652,213.298,299.355z"/>
<path style="fill:#FDB655;" d="M213.268,258.35c-0.04-48.927-0.095-100.234-0.095-100.234l-0.012,1.814v-5.404
	c0-0.049,0-0.098,0.012-0.147c0.515-14.399,12.573-25.882,27.218-25.465c13.946,0.392,24.987,11.813,25.698,25.612
	c0.025,0.478,0.037,0.943,0.037,1.422v102.761c0.235-0.059,0.472-0.112,0.706-0.173c2.396-12.152,13.105-21.314,25.973-21.314
	c4.285,0,8.331,1.021,11.912,2.828c25.279-19.379,41.613-49.871,41.613-84.112C346.329,97.523,298.806,50,240.391,50
	S134.452,97.523,134.452,155.938C134.452,204.98,167.951,246.339,213.268,258.35z"/>
<path style="fill:#FF5B70;" d="M213.23,215.998c-0.03-32.28-0.058-57.882-0.058-57.882l-0.012,1.814v-5.404
	c0-0.049,0-0.098,0.012-0.147c0.515-14.399,12.573-25.882,27.218-25.465c13.946,0.392,24.987,11.813,25.698,25.612
	c0.025,0.478,0.037,0.943,0.037,1.422v60.696c23.608-10.046,40.203-33.473,40.203-60.705c0-36.358-29.58-65.938-65.938-65.938
	s-65.938,29.58-65.938,65.938C174.452,182.615,190.387,205.626,213.23,215.998z"/>
<path d="M350.73,476c-0.66,0-1.31-0.06-1.96-0.19c-0.64-0.13-1.27-0.33-1.87-0.58s-1.18-0.55-1.73-0.92
	c-0.54-0.36-1.06-0.78-1.52-1.24s-0.88-0.97-1.24-1.52c-0.36-0.54-0.67-1.12-0.92-1.72c-0.25-0.61-0.44-1.24-0.57-1.88
	s-0.19-1.3-0.19-1.95c0-0.65,0.06-1.31,0.19-1.95s0.32-1.27,0.57-1.88c0.25-0.6,0.56-1.18,0.92-1.72c0.36-0.55,0.78-1.06,1.24-1.52
	s0.98-0.88,1.52-1.24c0.55-0.36,1.13-0.67,1.73-0.92s1.23-0.45,1.87-0.57c1.29-0.26,2.62-0.26,3.91,0c0.64,0.12,1.27,0.32,1.87,0.57
	s1.18,0.56,1.73,0.92c0.54,0.36,1.05,0.78,1.52,1.24c0.46,0.46,0.87,0.97,1.24,1.52c0.36,0.54,0.67,1.12,0.92,1.72
	c0.25,0.61,0.44,1.24,0.57,1.88s0.19,1.3,0.19,1.95c0,0.65-0.06,1.31-0.19,1.95s-0.32,1.27-0.57,1.88c-0.25,0.6-0.56,1.18-0.92,1.72
	c-0.37,0.55-0.78,1.06-1.24,1.52c-0.47,0.46-0.98,0.88-1.52,1.24c-0.55,0.37-1.13,0.67-1.73,0.92s-1.23,0.45-1.87,0.58
	C352.04,475.94,351.38,476,350.73,476z"/>
<path d="M427.496,272.015c-1.091-20.812-13.472-34.588-31.55-35.097c-7.727-0.207-14.569,2.017-20.037,6.188
	c-1.025-1.499-2.172-2.924-3.422-4.268c15.626-24.816,23.843-53.282,23.843-82.899C396.329,69.954,326.376,0,240.391,0
	S84.454,69.954,84.454,155.938c0,52.12,25.814,99.146,66.268,127.62c-5.392,1.891-10.452,4.986-14.755,9.29
	c-12.517,12.518-14.82,31.433-6.924,46.315c0.176,0.376,0.378,0.744,0.605,1.103c1.642,2.868,3.669,5.574,6.091,8.035
	l111.433,125.851V502c0,5.523,4.477,10,10,10h124.486c5.523,0,10-4.477,10-10v-28.233c8.217-10.967,35.889-50.954,35.889-91.989
	V273.96C427.546,273.303,427.529,272.645,427.496,272.015z M104.454,155.938C104.454,80.981,165.434,20,240.391,20
	c74.956,0,135.938,60.981,135.938,135.938c0,25.937-7.225,50.861-20.964,72.556c-1.528-0.413-3.087-0.728-4.67-0.94
	c-0.066-0.009-0.132-0.016-0.197-0.024c-0.658-0.084-1.32-0.15-1.986-0.199c-0.163-0.012-0.325-0.026-0.489-0.036
	c-0.74-0.044-1.482-0.074-2.23-0.074c-6.453,0-12.556,1.71-17.858,4.707c18.251-20.899,28.393-47.599,28.393-75.991
	C356.329,92.01,304.319,40,240.391,40S124.452,92.01,124.452,155.938c0,49.923,32.048,94.006,78.821,109.815
	c0.006,7.17,0.011,14.225,0.015,20.996C145.35,270.399,104.454,217.201,104.454,155.938z M240.675,118.917
	c-0.35-0.01-0.698-0.015-1.046-0.015c-0.139,0-0.275,0.009-0.414,0.01c-0.291,0.003-0.58,0.011-0.87,0.021
	c-0.322,0.011-0.644,0.026-0.964,0.046c-0.129,0.008-0.259,0.009-0.387,0.018c-0.149,0.011-0.295,0.031-0.443,0.043
	c-0.327,0.028-0.653,0.059-0.978,0.096c-0.267,0.03-0.532,0.063-0.797,0.099c-0.331,0.045-0.66,0.093-0.988,0.147
	c-0.255,0.041-0.509,0.086-0.762,0.132c-0.334,0.062-0.666,0.128-0.996,0.199c-0.244,0.052-0.487,0.107-0.73,0.164
	c-0.334,0.079-0.665,0.162-0.996,0.25c-0.236,0.063-0.471,0.127-0.705,0.194c-0.331,0.095-0.66,0.196-0.988,0.301
	c-0.228,0.073-0.455,0.146-0.681,0.223c-0.329,0.112-0.655,0.23-0.979,0.351c-0.219,0.082-0.438,0.164-0.655,0.25
	c-0.325,0.129-0.647,0.263-0.968,0.4c-0.212,0.091-0.423,0.182-0.633,0.277c-0.32,0.144-0.636,0.295-0.95,0.448
	c-0.205,0.1-0.409,0.199-0.611,0.303c-0.313,0.16-0.622,0.326-0.93,0.494c-0.198,0.108-0.396,0.217-0.593,0.329
	c-0.304,0.174-0.604,0.354-0.903,0.536c-0.193,0.118-0.387,0.235-0.578,0.356c-0.294,0.187-0.584,0.38-0.872,0.575
	c-0.188,0.127-0.377,0.254-0.563,0.385c-0.283,0.199-0.56,0.404-0.837,0.61c-0.184,0.138-0.369,0.274-0.551,0.415
	c-0.271,0.21-0.536,0.426-0.801,0.644c-0.179,0.147-0.36,0.294-0.536,0.444c-0.258,0.221-0.511,0.447-0.763,0.675
	c-0.174,0.157-0.35,0.313-0.521,0.474c-0.245,0.23-0.484,0.466-0.723,0.702c-0.169,0.168-0.34,0.334-0.507,0.505
	c-0.232,0.238-0.456,0.483-0.681,0.728c-0.164,0.178-0.33,0.355-0.49,0.536c-0.217,0.246-0.428,0.498-0.639,0.75
	c-0.158,0.189-0.319,0.376-0.473,0.569c-0.203,0.253-0.399,0.512-0.596,0.77c-0.152,0.199-0.306,0.397-0.453,0.599
	c-0.19,0.26-0.371,0.526-0.554,0.791c-0.144,0.209-0.291,0.416-0.431,0.629c-0.174,0.264-0.34,0.535-0.508,0.804
	c-0.138,0.221-0.279,0.44-0.412,0.665c-0.159,0.268-0.309,0.542-0.462,0.814c-0.13,0.232-0.263,0.462-0.388,0.697
	c-0.145,0.273-0.281,0.553-0.419,0.83c-0.12,0.241-0.244,0.48-0.359,0.724c-0.131,0.279-0.253,0.564-0.377,0.847
	c-0.11,0.249-0.223,0.496-0.327,0.748c-0.118,0.285-0.225,0.575-0.335,0.864c-0.098,0.257-0.202,0.511-0.294,0.771
	c-0.104,0.29-0.196,0.586-0.293,0.88c-0.087,0.263-0.178,0.525-0.259,0.791c-0.09,0.296-0.167,0.597-0.25,0.896
	c-0.074,0.27-0.154,0.538-0.222,0.81c-0.076,0.305-0.14,0.616-0.208,0.924c-0.06,0.271-0.127,0.539-0.181,0.812
	c-0.065,0.327-0.116,0.659-0.172,0.99c-0.044,0.259-0.095,0.516-0.133,0.777c-0.053,0.363-0.091,0.73-0.134,1.096
	c-0.027,0.234-0.062,0.465-0.085,0.701c-0.051,0.527-0.085,1.059-0.113,1.593c-0.004,0.076-0.013,0.151-0.016,0.227
	c-0.022,0.286-0.034,0.577-0.034,0.873v5.404c0,0.184,0.005,0.366,0.015,0.547c0,0.012,0,0.027,0,0.04c0,0.031,0,0.069,0,0.1
	l0.037,37.054c-11.725-10.465-18.76-25.588-18.76-41.733c0-30.844,25.094-55.938,55.938-55.938s55.938,25.094,55.938,55.938
	c0,16.922-7.597,32.567-20.203,43.027v-43.018c0-0.649-0.017-1.281-0.05-1.936C275.09,134.863,259.54,119.448,240.675,118.917z
	 M276.126,231.27v-8.35c24.623-13.14,40.203-38.745,40.203-66.983c0-41.873-34.065-75.938-75.938-75.938
	c-41.872,0-75.938,34.065-75.938,75.938c0,27.502,15.03,52.805,38.784,66.18c0.004,4.234,0.008,8.555,0.012,12.93
	c0.003,3.098,0.005,6.221,0.008,9.355c-35.191-14.777-58.804-49.478-58.804-88.465c0-52.9,43.038-95.938,95.938-95.938
	s95.938,43.038,95.938,95.938c0,28.211-12.115,54.414-33.427,72.71c-0.146-0.042-0.295-0.07-0.441-0.11
	c-0.554-0.154-1.114-0.292-1.678-0.419c-0.138-0.031-0.273-0.07-0.412-0.099c-0.738-0.158-1.486-0.285-2.238-0.397
	c-0.203-0.03-0.406-0.054-0.609-0.081c-0.587-0.077-1.178-0.14-1.772-0.188c-0.209-0.017-0.417-0.036-0.626-0.05
	c-0.769-0.049-1.542-0.082-2.322-0.082C286.845,227.221,281.16,228.674,276.126,231.27z M407.546,381.778
	c0,40.022-33.335,81.885-33.667,82.297c-1.438,1.779-2.222,3.998-2.222,6.285V492H267.171v-16h48.981c5.523,0,10-4.477,10-10
	s-4.477-10-10-10h-58.339l-88.277-99.699c5.086-1.254,9.976-3.618,14.284-7.137c4.277-3.494,4.912-9.794,1.418-14.071
	c-3.495-4.277-9.794-4.912-14.071-1.418c-6.991,5.711-17.351,4.733-23.094-2.181c-0.024-0.03-0.049-0.059-0.074-0.088l-1.396-1.822
	c-3.764-7.292-2.599-16.49,3.506-22.596c7.555-7.553,19.846-7.555,27.399,0l28.729,28.729c2.86,2.859,7.162,3.715,10.898,2.167
	c3.737-1.548,6.173-5.194,6.173-9.239c0-7.807-0.004-17.909-0.011-29.294c0-0.001,0-0.002,0-0.003
	c-0.007-12.567-0.018-26.685-0.029-41.007l0,0c0-0.147,0-0.295,0-0.443c-0.012-14.222-0.024-28.63-0.037-41.91v-0.001l-0.001-1.098
	c-0.007-7.571-0.014-14.758-0.02-21.315c-0.001-0.962-0.002-1.909-0.003-2.842c0-0.362-0.001-0.717-0.001-1.075
	c4.96,2.52,10.552,3.945,16.445,3.945c0.336,0,0.678-0.005,1.017-0.014c5.52-0.152,9.872-4.751,9.72-10.273
	c-0.152-5.521-4.753-9.849-10.272-9.72c-9.026,0.269-16.627-6.855-16.948-15.838c-0.001-0.038-0.003-0.075-0.005-0.113l0.01-2.973
	c0.266-6.71,4.594-12.356,10.533-14.66c1.986-0.77,4.151-1.167,6.405-1.104c1.064,0.03,2.105,0.167,3.113,0.401
	c7.055,1.637,12.483,8.025,12.879,15.725c0.016,0.307,0.023,0.605,0.023,0.912v60.696v42.065v2.288c0,0.019,0.003,0.038,0.003,0.058
	v24.185c0,5.523,4.477,10,10,10s10-4.477,10-10V263.97c0.114-0.495,0.202-1,0.24-1.521c0.06-0.821,0.199-1.618,0.377-2.401
	c0.067-0.298,0.134-0.595,0.216-0.886c0.071-0.25,0.157-0.493,0.24-0.737c0.071-0.211,0.136-0.426,0.215-0.633
	c0.913-2.364,2.355-4.465,4.182-6.158c0.002-0.001,0.003-0.003,0.005-0.004c0.357-0.33,0.729-0.643,1.113-0.942
	c0.035-0.027,0.071-0.053,0.107-0.08c0.35-0.267,0.712-0.52,1.083-0.759c0.068-0.043,0.135-0.086,0.204-0.128
	c0.342-0.213,0.692-0.413,1.049-0.601c0.099-0.052,0.198-0.104,0.298-0.154c0.332-0.166,0.671-0.319,1.014-0.463
	c0.127-0.053,0.254-0.108,0.383-0.158c0.324-0.126,0.655-0.238,0.988-0.344c0.15-0.048,0.299-0.099,0.451-0.143
	c0.324-0.093,0.654-0.169,0.986-0.242c0.163-0.036,0.324-0.078,0.488-0.109c0.345-0.065,0.697-0.11,1.049-0.153
	c0.153-0.019,0.303-0.046,0.457-0.061c0.505-0.047,1.016-0.074,1.532-0.074c0.589,0,1.171,0.04,1.748,0.1
	c0.249,0.027,0.494,0.07,0.74,0.108c0.313,0.047,0.624,0.099,0.932,0.164c0.302,0.065,0.6,0.139,0.896,0.22
	c0.24,0.065,0.478,0.139,0.715,0.215c0.32,0.103,0.639,0.208,0.95,0.331c0.19,0.074,0.376,0.163,0.564,0.245
	c5.408,2.363,9.359,7.54,9.862,13.715v23.021c0,5.523,4.477,10,10,10s10-4.477,10-10v-21.794c0.067-0.359,0.119-0.724,0.147-1.096
	c0.587-8.005,6.969-14.385,14.842-15.151c0.525-0.051,1.056-0.077,1.593-0.077c0.479,0,0.953,0.029,1.425,0.07
	c0.145,0.012,0.29,0.027,0.434,0.043c0.371,0.041,0.738,0.097,1.103,0.163c0.214,0.039,0.427,0.084,0.639,0.131
	c0.295,0.066,0.588,0.138,0.878,0.219c0.225,0.063,0.448,0.132,0.67,0.205c0.204,0.067,0.406,0.142,0.607,0.217
	c0.396,0.148,0.787,0.311,1.172,0.489c0.166,0.077,0.333,0.152,0.497,0.235c0.241,0.122,0.479,0.251,0.715,0.385
	c1.27,0.722,2.458,1.605,3.517,2.662c2.738,2.746,4.423,6.35,4.76,10.171l0.178,9.376c0.001,0.036,0.006,0.072,0.007,0.108v13.543
	c0,5.523,4.477,10,10,10s10-4.477,10-10v-13.55c0.504-5.84,2.884-15.043,12.994-14.778c9.835,0.277,11.823,10.238,12.133,16.162
	c0.016,0.291,0.023,0.589,0.023,0.888L407.546,381.778L407.546,381.778z"/>
<g>
</g>
<g>
</g>
<g>
</g>
<g>
</g>
<g>
</g>
<g>
</g>
<g>
</g>
<g>
</g>
<g>
</g>
<g>
</g>
<g>
</g>
<g>
</g>
<g>
</g>
<g>
</g>
<g>
</g>
</svg>
