<svg xmlns="http://www.w3.org/2000/svg" viewBox="0 0 48 48" width="512" height="512"><g id="Layer_22" data-name="Layer 22"><path d="M47.189,35.062c-.134.011-13.52,1.069-21.648-.716-1.081-.238-1.77.089-3.437.88-1.213.575-3.048,1.444-6.114,2.64-6.853,2.672-10.54,2.819-11.155,1.78-.577-.979.729-5.3,2.271-8.751a.75.75,0,1,0-1.369-.613c-.1.222-.267.606-.465,1.085C3.51,30.147,1.5,28.324,1.5,27.23c.115-.494,1.833-1.982,3.8-3.326a1.949,1.949,0,0,1,.071.3,7.613,7.613,0,0,1-.174.98,4.762,4.762,0,0,0-.183,2.247c.228.687.94.929,1.46,1.107.074.025.171.058.247.086.2.445.618,1.173.911,1.664.046.185.145.56.282.947a1.894,1.894,0,0,0,1.251,1.187,1.858,1.858,0,0,0,1.677-.316c.2-.157.461-.373.749-.623l-.519,1.951a.749.749,0,0,0,.725.942.709.709,0,0,0,.222-.034A22.922,22.922,0,0,0,17.29,31.8c3.661-2.422,4.25-5,4.273-5.112a.749.749,0,0,0-1.464-.321,4.619,4.619,0,0,1-.555,1.169l-3.012.281a.75.75,0,0,0,.069,1.5l.07,0,1.525-.142a12.022,12.022,0,0,1-1.734,1.379,21.489,21.489,0,0,1-3.569,1.872l.754-2.831a12.145,12.145,0,0,0,2.536-2.995,4.586,4.586,0,0,0-.264-2.629.75.75,0,0,0-1.374.6,3.183,3.183,0,0,1,.188,1.63,35.333,35.333,0,0,1-4.812,4.727.369.369,0,0,1-.334.064.394.394,0,0,1-.26-.247,9.156,9.156,0,0,1-.263-.9.78.78,0,0,0-.088-.218c-.4-.7-.626-1.149-.907-1.642a1.826,1.826,0,0,0-1.112-.855,3.355,3.355,0,0,1-.523-.21,8.886,8.886,0,0,1,.23-1.41,5.45,5.45,0,0,0,.2-1.424,12.205,12.205,0,0,0-.739-2.366c-.267-.736-.608-1.68-1.023-2.883-.044-.129-.074-.259-.107-.389,1.387.758,3.531.735,5.765.533,2.382-.213,5.776-.388,7.739.545a.75.75,0,1,0,.644-1.355c-1.771-.841-4.4-1.055-8.518-.684-5.033.45-5.573-.593-5.678-1.609C4.8,14.451,6.611,12.56,7.321,11.951a.744.744,0,0,0,.234-.367A3.86,3.86,0,0,1,9.6,9.3a7.288,7.288,0,0,1,2.625-.612,5.676,5.676,0,0,0,3.54,2.33c3.792.989,4.356,1.957,4.439,2.23a3.757,3.757,0,0,1,.125,1.37,11.085,11.085,0,0,0-1.5-.545,22.245,22.245,0,0,0-3.706-.661c-.907-.115-1.971-.248-3.277-.456a8.728,8.728,0,0,1-2.884-.912.749.749,0,1,0-.746,1.3,10.015,10.015,0,0,0,3.393,1.092c1.327.212,2.406.348,3.327.464a21.38,21.38,0,0,1,3.46.608c1.757.533,2.441,1.016,2.521,1.786a2.973,2.973,0,0,1-1.183,2.4.751.751,0,0,0,.082,1.269l1.673.9a.756.756,0,0,0,.356.09.8.8,0,0,0,.109-.008l2.1-.31a.75.75,0,1,0-.219-1.484l-1.852.273-.557-.3a4.031,4.031,0,0,0,.985-2.991,2.65,2.65,0,0,0-.712-1.548,5.664,5.664,0,0,0-.059-2.778c-.4-1.324-2.2-2.386-5.5-3.246a4.667,4.667,0,0,1-2.377-1.315,5.532,5.532,0,0,1,3.053-.393,2.454,2.454,0,0,1,2.211,1.872.75.75,0,0,0,1.455-.363,3.944,3.944,0,0,0-3.365-2.978,7.384,7.384,0,0,0-4.628.8,8.539,8.539,0,0,0-3.483.736,5.366,5.366,0,0,0-2.818,3.034c-.679.616-2.959,2.859-2.732,5.068.006.059.02.11.029.167a.585.585,0,0,0-.038.093,6.009,6.009,0,0,0,.238,3.035c.417,1.213.761,2.164,1.031,2.906.027.076.05.14.077.213C2.9,23.683,0,25.826,0,27.2c0,2.231,3.257,4.64,4.707,5.6-.953,2.539-2.032,6.138-1.164,7.61.558.945,1.734,1.319,3.249,1.319,2.707,0,6.493-1.2,9.743-2.463,3.115-1.215,4.979-2.1,6.212-2.682,1.561-.742,1.91-.894,2.472-.771,8.351,1.835,21.536.791,22.091.745a.749.749,0,1,0-.121-1.494Z" fill="#ca70ba" opacity="1" original-fill="#000000"></path><path d="M23.426,26.291a1.287,1.287,0,0,0,1.151.573,2.594,2.594,0,0,0,.636-.088,13.067,13.067,0,0,0,3.813-2.019,1.571,1.571,0,0,0,2.58.833c2.879-2.591,2.957-2.92,3.02-3.182.087-.366.169-.777.238-1.15l5.5.12h.017a.75.75,0,0,0,.016-1.5l-4.753-.1L47.782,7.551A.75.75,0,1,0,46.718,6.5L33.778,19.522a.76.76,0,0,0-.209.414c0,.012-.18,1.165-.381,2.032A27.365,27.365,0,0,1,30.6,24.475l-.1-.094,1.669-2.214a.75.75,0,0,0-1.081-1.025l-2.048,1.719a14.971,14.971,0,0,1-4.205,2.462c-.044.011-.083.019-.117.026a7.508,7.508,0,0,1,1.546-2.727,12.881,12.881,0,0,1,4.566-3.036.746.746,0,0,0,.34-.26l8.35-11.563a.75.75,0,1,0-1.216-.879L30.085,18.272A13.752,13.752,0,0,0,25.1,21.681C24.5,22.433,22.587,24.988,23.426,26.291Z" fill="#ca70ba" opacity="1" original-fill="#000000"></path><path d="M46.739,16.641l-6.286,5.846-1.519-.174a4.556,4.556,0,0,0-3,.706c-4.247,2.778-4.435,3.715-4.279,4.374a2.47,2.47,0,0,0,1.86,1.851,8.312,8.312,0,0,0,1.642.126c.615,0,1.232-.033,1.649-.065a9.11,9.11,0,0,0,5.84-2.333l4.983-2.894a.75.75,0,0,0-.754-1.3L41.8,25.73a.825.825,0,0,0-.191.157c-.058.068-1.487,1.649-4.921,1.922a12.93,12.93,0,0,1-2.837-.028.971.971,0,0,1-.7-.622c.132-.218.763-1.025,3.606-2.884a3.037,3.037,0,0,1,2.012-.472l1.861.213a.77.77,0,0,0,.6-.2l6.539-6.081a.75.75,0,0,0-1.022-1.1Z" fill="#ca70ba" opacity="1" original-fill="#000000"></path></g></svg>
