<svg id="Line_Expand" height="512" viewBox="0 0 64 64" width="512" xmlns="http://www.w3.org/2000/svg" data-name="Line Expand"><path d="m60 28.25h-2.25v-11h-12.5v3.75a2.25 2.25 0 0 1 -4.5 0v-3.75h-22v-2.25a3.75 3.75 0 0 0 -7.5 0v2.25h-11v12.5h3.75a2.25 2.25 0 0 1 0 4.5h-3.75v12.5h11v2.25a3.75 3.75 0 0 0 7.5 0v-2.25h20.5v2.25a3.75 3.75 0 0 0 7.5 0v-2.25h11v-11h2.25a3.75 3.75 0 0 0 0-7.5zm-31 10.9c-1.593-.887-8.25-4.917-8.25-10.239a4.158 4.158 0 0 1 7.625-2.3l.625.942.625-.942a4.158 4.158 0 0 1 7.625 2.3c0 5.311-6.659 9.348-8.25 10.237zm-11.75 6.1v3.75a2.25 2.25 0 0 1 -4.5 0v-3.75h-11v-9.5h2.25a3.75 3.75 0 0 0 0-7.5h-2.25v-9.5h11v-3.75a2.25 2.25 0 0 1 4.5 0v3.75h11v5.6a5.652 5.652 0 0 0 -9 4.561c0 6.19 7.191 10.543 9 11.54v4.8zm42.75-11h-3.75v11h-11v3.75a2.25 2.25 0 0 1 -4.5 0v-3.75h-11v-4.8c1.809-1 9-5.35 9-11.54a5.652 5.652 0 0 0 -9-4.561v-5.6h9.5v2.251a3.75 3.75 0 0 0 7.5 0v-2.25h9.5v11h3.75a2.25 2.25 0 0 1 0 4.5z" fill="#ca70ba" opacity="1" original-fill="#000000"></path></svg>