<svg version="1.1" id="Capa_1" xmlns="http://www.w3.org/2000/svg" xmlns:xlink="http://www.w3.org/1999/xlink" x="0px" y="0px" viewBox="0 0 511.999 511.999" style="enable-background:new 0 0 511.999 511.999;" xml:space="preserve">
<g>
	<g>
		<circle cx="467.05" cy="436.95" r="15.01" fill="#ca70ba" opacity="1" original-fill="#000000"></circle>
	</g>
</g>
<g>
	<g>
		<circle cx="226.89" cy="496.99" r="15.01" fill="#ca70ba" opacity="1" original-fill="#000000"></circle>
	</g>
</g>
<g>
	<g>
		<circle cx="46.775" cy="346.89" r="15.01" fill="#ca70ba" opacity="1" original-fill="#000000"></circle>
	</g>
</g>
<g>
	<g>
		<circle cx="407.01" cy="46.691" r="15.01" fill="#ca70ba" opacity="1" original-fill="#000000"></circle>
	</g>
</g>
<g>
	<g>
		<path d="M106.815,31.681h-15.01v-15.01c0-8.289-6.721-15.01-15.01-15.01s-15.01,6.72-15.01,15.01v15.01h-15.01
			c-8.29,0-15.01,6.72-15.01,15.01c0,8.29,6.72,15.01,15.01,15.01h15.01v15.01c0,8.289,6.72,15.01,15.01,15.01
			c8.29,0,15.01-6.72,15.01-15.01V61.7h15.01c8.289,0,15.01-6.72,15.01-15.01C121.825,38.401,115.104,31.681,106.815,31.681z" fill="#ca70ba" opacity="1" original-fill="#000000"></path>
	</g>
</g>
<g>
	<g>
		<path d="M507.711,188.234c-5.19-17.27-19.462-29.856-37.248-32.844L359.249,136.7c-4.224-0.709-7.824-3.45-9.634-7.332
			L301.96,27.157c-7.621-16.344-23.555-26.745-41.586-27.145c-17.971-0.394-34.45,9.368-42.743,25.275l-52.141,99.997
			c-1.98,3.798-5.699,6.375-9.95,6.898L43.607,145.918c-17.901,2.196-32.717,14.136-38.668,31.159
			c-5.952,17.022-1.803,35.593,10.827,48.464l78.991,80.49c2.999,3.056,4.302,7.391,3.484,11.594L76.718,428.326
			c-3.443,17.702,3.332,35.483,17.684,46.405c13.919,10.593,33.087,12.816,49.439,4.677l100.961-50.252
			c3.761-1.873,8.427-1.768,12.104,0.269l98.63,54.68c15.23,8.443,34.478,8.001,49.598-2.481
			c14.821-10.274,22.378-27.736,19.725-45.572l-16.593-111.548c-0.63-4.236,0.863-8.508,3.996-11.428l82.483-76.908
			C507.934,223.87,512.902,205.502,507.711,188.234z M474.273,214.21l-82.483,76.907c-10.361,9.66-15.301,23.792-13.217,37.802
			l16.593,111.548c0.96,6.451-1.773,12.767-7.135,16.483c-5.468,3.792-12.431,3.951-17.939,0.897l-98.633-54.68
			c-6.367-3.53-13.582-5.397-20.864-5.397c-6.617,0-13.248,1.559-19.172,4.508l-100.958,50.255
			c-5.949,2.96-12.877,2.118-17.884-1.691c-5.191-3.951-7.642-10.382-6.396-16.784l21.525-110.703
			c2.703-13.905-1.607-28.241-11.529-38.349l-78.99-80.49c-4.569-4.656-6.07-11.374-3.916-17.532
			c2.151-6.157,7.511-10.475,13.986-11.27l111.934-13.737c14.059-1.725,26.364-10.254,32.913-22.814l52.141-99.997
			c2.941-5.642,8.72-9.146,15.08-9.146l0.38,0.004c6.521,0.145,12.284,3.908,15.041,9.819l47.654,102.211
			c5.985,12.839,17.899,21.905,31.869,24.251l111.216,18.688c6.432,1.081,11.595,5.633,13.472,11.88
			C480.841,203.118,479.044,209.762,474.273,214.21z" fill="#ca70ba" opacity="1" original-fill="#000000"></path>
	</g>
</g>
<g>
	<g>
		<path d="M414.405,216.278c-1.645-5.472-6.252-9.534-11.886-10.482l-53.86-9.056c-23.717-3.997-43.937-19.383-54.09-41.162
			l-23.085-49.496c-2.415-5.177-7.56-8.536-13.272-8.662c-5.712-0.13-10.999,3.001-13.641,8.066l-25.253,48.434
			c-11.12,21.325-32.001,35.795-55.872,38.709l-54.198,6.666c-5.67,0.697-10.452,4.553-12.337,9.946
			c-1.885,5.393-0.545,11.388,3.456,15.465l38.208,38.94c16.885,17.157,24.217,41.505,19.613,65.135l-10.419,53.614
			c-1.09,5.609,1.099,11.35,5.647,14.809c4.546,3.459,10.663,4.038,15.779,1.491l48.853-24.324
			c10.071-5.017,21.336-7.669,32.579-7.669c12.362,0,24.608,3.169,35.414,9.165c0.002,0.001,0.004,0.002,0.006,0.003l47.757,26.475
			c2.271,1.259,4.776,1.882,7.276,1.882c3,0,5.991-0.899,8.553-2.675c4.695-3.255,7.136-8.894,6.295-14.546l-8.042-54.032
			c-3.531-23.799,4.857-47.781,22.45-64.158l39.932-37.241C414.445,227.68,416.049,221.75,414.405,216.278z M349.867,246.852
			c-24.82,23.106-36.662,56.948-31.679,90.534l3.565,23.954l-21.149-11.724c-15.249-8.463-32.533-12.936-49.979-12.936
			c-15.864,0-31.757,3.742-45.961,10.818l-21.624,10.767l4.615-23.75c6.498-33.344-3.852-67.709-27.667-91.91l-16.902-17.227
			l24.01-2.953c33.673-4.111,63.146-24.531,78.839-54.625l11.194-21.471l10.231,21.935c14.325,30.729,42.85,52.441,76.315,58.08
			l23.88,4.015L349.867,246.852z" fill="#ca70ba" opacity="1" original-fill="#000000"></path>
	</g>
</g>
<g>
</g>
<g>
</g>
<g>
</g>
<g>
</g>
<g>
</g>
<g>
</g>
<g>
</g>
<g>
</g>
<g>
</g>
<g>
</g>
<g>
</g>
<g>
</g>
<g>
</g>
<g>
</g>
<g>
</g>
</svg>
