<svg version="1.1" id="Layer_1" xmlns="http://www.w3.org/2000/svg" xmlns:xlink="http://www.w3.org/1999/xlink" x="0px" y="0px" viewBox="0 0 512 512" style="enable-background:new 0 0 512 512;" xml:space="preserve">
<g>
	<path style="fill:none;stroke:#000000;stroke-width:30;stroke-miterlimit:10;" d="M478.539,254.44l-46.056-59.802v-11.72&#10;&#9;&#9;C431.284,89.993,335.428,15,240.553,15C108.703,15,25.23,144.797,81.355,259.229c9.051,18.476,17.951,37.543,25.849,58.946&#10;&#9;&#9;c17.628,47.689,16.273,83.77-19.814,126.217C74.336,459.749,58.603,477.217,45.909,497h281.276v-82.961h105.321l-0.012-124.394&#10;&#9;&#9;h46.045V254.44z"/>
	<path style="fill:none;stroke:#000000;stroke-width:30;stroke-miterlimit:10;" d="M186.454,242.584v32.458&#10;&#9;&#9;c0,32.403-26.177,58.671-58.468,58.671h-15.795"/>
	<path style="fill:none;stroke:#000000;stroke-width:30;stroke-miterlimit:10;" d="M72.499,237.787l47.39-23.336&#10;&#9;&#9;c26.66-13.128,55.963-19.954,85.66-19.954h59.287"/>
	<path style="fill:none;stroke:#000000;stroke-width:30;stroke-miterlimit:10;" d="M252.849,290.67h-18.474&#10;&#9;&#9;c-26.466,0-47.92-21.529-47.92-48.086v0c0-26.557,21.455-48.086,47.92-48.086h33.612v0.155c0,18.961,15.318,34.331,34.213,34.331h0&#10;&#9;&#9;c18.895,0,34.213-15.371,34.213-34.331v-46.431l55.83-68.321"/>
	<path style="fill:none;stroke:#000000;stroke-width:30;stroke-miterlimit:10;" d="M120.934,58.948l21.736,32.789&#10;&#9;&#9;c11.569,17.452,17.742,37.946,17.742,58.907v49.185"/>
	
		<line style="fill:none;stroke:#000000;stroke-width:30;stroke-miterlimit:10;" x1="432.483" y1="194.638" x2="336.412" y2="194.638"/>
	<path style="fill:none;stroke:#000000;stroke-width:30;stroke-miterlimit:10;" d="M227.816,17.171L227.816,17.171&#10;&#9;&#9;c0,54.974,34.313,104.06,85.825,122.776l22.771,8.273"/>
	<path style="fill:none;stroke:#000000;stroke-width:30;stroke-miterlimit:10;" d="M245.861,83.51c0,0-16.258,45.752-86.081,55.545"/>
</g>
<g>
</g>
<g>
</g>
<g>
</g>
<g>
</g>
<g>
</g>
<g>
</g>
<g>
</g>
<g>
</g>
<g>
</g>
<g>
</g>
<g>
</g>
<g>
</g>
<g>
</g>
<g>
</g>
<g>
</g>
</svg>