<svg id="图层_1" enable-background="new 0 0 156 156" height="512" viewBox="0 0 156 156" width="512" xmlns="http://www.w3.org/2000/svg"><path d="m132.37 74.54c-.28-.24-2.02-1.27-3.87-2.27-4.68-2.54-23.48-12.15-24.21-12.38-.33-.11-.95 0-1.43.25-1.13.58-1.32 2.01-.73 5.6.25 1.54.38 3.13.3 3.52-.08.38.04 1.08.26 1.5.74 1.41.65 1.46-2.29 1.36-3.71-.13-21.15.64-37.53 1.65-13.69.84-22.46 1.27-32.54 1.59-5.27.17-5.62.21-6.2.79-.81.81-1.04 3.26-.88 9.48.15 5.92.17 5.95 3.57 5.96 1.21.01 2.29.09 2.38.18.22.23 10.13.02 17.11-.36 9.74-.52 28.64-2.26 46.99-4.32 5.95-.67 10.82-1.19 10.85-1.17.06.05.89 6.1 1.18 8.6.23 1.95.59 2.05 3.06.83 2.86-1.42 13.71-10.42 17.86-14.83.45-.48 1.05-.87 1.32-.87.29 0 .61-.28.76-.65.29-.74 2.25-2.16 3.54-2.58 1.01-.32 1.25-1.22.5-1.88zm-4.43 1.04c-.3 0-.67-.28-.86-.64-.18-.37-.55-.83-.86-1.07-.29-.23.14-.09.95.3 1.47.72 1.84 1.41.77 1.41zm-4.07 3.65c-.16.1-.28.04-.28-.13s.12-.3.28-.3c.17 0 .28.05.28.13s-.11.2-.28.3zm-4.67 4.26c-.18-.19.37-1.2 1.28-2.36.53-.67.96-.93 1.57-.93.84 0 .84 0-.93 1.72-.98.98-1.84 1.67-1.92 1.57zm-3.71 3.12c-.17-.45 1.39-1.91 2.04-1.91.47 0 .34.22-.67 1.09-.7.61-1.31.97-1.37.82zm-.4-7.5c-1.99-.68-3.01-1.26-1.74-.99 1.01.21 3.57 1.28 3.42 1.42-.06.06-.81-.13-1.68-.43zm-2.07-7.99c-2.41-.71-3.5-1.2-4.7-2.1-.87-.66-1.56-1.23-1.56-1.29 0-.29 2.52.75 5.78 2.38 2.02 1.01 3.66 1.86 3.65 1.89-.02.02-1.44-.36-3.17-.88zm1.38 16.71c-.44.34-.45.32-.1-.13.37-.48.59-.61.59-.37 0 .07-.21.28-.49.5zm-3.01-3.79c-1.77-.34-2.38-.61-2.38-1.05 0-.41.98-.29 2.97.36 2.21.73 1.85 1.15-.59.69zm-.96-18.01c-1.43-.53-3.13-1.11-3.76-1.27-1.23-.33-2.44-1.25-2.44-1.86 0-.2.06-.36.14-.36.22 0 8.83 4.3 8.75 4.38-.04.04-1.25-.36-2.69-.89zm-1.45 20.78c-1.6-.82-1.82-1.09-1.07-1.27.41-.1 1.09.05 1.74.38.93.48 1.01.6.66.95-.36.36-.52.35-1.33-.06zm-.31-14.09c-1.66-.38-3.31-1.26-3.31-1.76 0-.39 2.3.37 3.73 1.23.73.44 1.32.82 1.32.86 0 .03-.79-.11-1.74-.33zm-1.01 19.16c-.23-.25-.01-.52 1.26-1.46l1.35-1.01-1.25 1.29c-.68.71-1.3 1.24-1.36 1.18zm-.31-17c-.13 0-.42-.2-.6-.42-.38-.46-.29-.51.41-.25.47.18.61.67.19.67zm-.66 7.86c-.12 0-.21-.52-.21-1.16 0-1.12.02-1.15.53-.69.44.39.47.6.21 1.16-.17.37-.42.69-.53.69zm-8.42-2.57c-4.85-.04-5.29-.07-3.02-.25 4.12-.32 8.7-.31 8.7.01 0 .18-2.06.27-5.68.24zm1.69 2.82c-2.19-.01-4.76-.11-5.68-.21-1.43-.15-.93-.23 3.37-.53 6.51-.45 6.31-.46 6.31.21-.01.53-.19.56-4 .53zm-3.66-9.58c-1.27-.05-.17-.1 2.47-.1s3.67.04 2.3.1c-1.35.05-3.52.05-4.77 0zm-11.25 8.21c-.18-.18.74-.27 2.65-.24l2.93.04-2.65.24c-1.68.15-2.75.13-2.93-.04zm-4.73-6.54c-.5-.06-.16-.11.77-.11s1.34.05.91.11c-.42.06-1.17.06-1.68 0zm.14 8.7c-.42-.06-.07-.11.77-.11s1.19.05.77.11-1.12.06-1.54 0zm-13.67.72c-2.97.1-3.55.07-1.96-.08 1.24-.12 4.88-.29 8.13-.38 4.88-.13 5.22-.11 1.96.08-2.17.14-5.8.31-8.13.38zm-10.1-8.12c-3.48.13-3.77.11-1.68-.09 5.08-.5 16.17-1.13 19.13-1.08 2.28.03 1.01.16-5.1.53-4.5.27-10.03.56-12.35.64zm12.83 5.43c-.57-.06-.1-.11 1.05-.11s1.63.05 1.05.11-1.51.06-2.1 0zm-8.23-3.46c-3.37.33-3.53.32-3.41-.16.11-.46.52-.5 4.5-.47 4.62.05 4.58.07-1.09.63zm-8.46 3.74c-.35-.06-.07-.11.63-.11s.98.05.63.11c-.33.06-.92.06-1.26 0zm-10.53-2.65-7.49.15 6.03-.49c3.31-.27 7.74-.57 9.82-.66l3.79-.17-2.33.5c-1.77.4-4.13.55-9.82.67zm-2.02 3.72c-2.22.12-3.4.1-3.23-.07.16-.15 1.91-.59 3.93-.99 3.45-.68 4.99-.73 5.34-.18.09.14 1.31.27 2.74.3l2.58.04-3.93.35c-2.16.19-5.5.44-7.43.55zm2.1 3.43c-3.14-.01-3.23-.03-1.26-.21 1.16-.11 3.93-.2 6.17-.2h4.07l-2.8.21c-1.55.12-4.33.21-6.18.2zm-10.01-4.75c-.59-.47-1.07-.89-1.07-.95s2.43-.1 5.4-.08l5.4.03-4.33.93-4.33.93zm-3.28 4.39c-.18.1-.31.35-.31.57 0 .45-2.31 1.03-2.48.62-.06-.14.13-.69.42-1.22.45-.84.63-.95 1.33-.81.45.08 1.82.17 3.09.2l2.27.04-2.01.21c-1.09.11-2.14.29-2.31.39zm-.68-4.03c-.22-.22-.11-.31.39-.31.93 0 1.33.4.53.52-.33.06-.75-.04-.92-.21zm-2.49-3.59c-.1-.06-.12-.31-.03-.53.21-.53 3.07-.58 3.25-.06.09.25-.35.42-1.45.53-.87.1-1.66.12-1.77.06zm.08 2.68c-.22.08-.32-.03-.25-.25.06-.2.29-.43.49-.49.22-.07.33.04.25.25-.07.2-.29.43-.49.49z" fill="#ca70ba" opacity="0.9" original-fill="#000000"></path></svg>