<svg id="Layer_1" enable-background="new 0 0 66 66" viewBox="0 0 66 66" xmlns="http://www.w3.org/2000/svg"><g><path d="m61.71 21.44c0-3.83-3.12-6.95-6.95-6.95-.02 0-.03 0-.05 0-.03-.39-.08-.77-.14-1.16-.87-5.18-5.11-9.36-10.31-10.17-5.42-.84-10.59 1.77-13.07 6.55-1.45-.66-3.06-1.01-4.7-1.01-5.12 0-9.61 3.43-11 8.26-1.71-.7-3.6-.8-5.4-.27-3.16.92-5.48 3.75-5.77 7.04-.28 3.16 1.29 6.17 3.97 7.74-1.49 2.12-2.21 4.7-2.04 7.34.3 4.49 3.3 8.45 7.52 9.98.76 3.9.9 7.59.4 10.97-.15 1.02.28 2.05 1.12 2.67.5.37 1.09.55 1.67.55.41 0 .82-.09 1.2-.27 5.03-2.39 9.06-5.74 11.98-9.98.84.18 1.7.27 2.6.27 4.57 0 8.73-2.41 11-6.35 1.72.8 3.58 1.21 5.45 1.17 6.63-.08 12.16-5.54 12.32-12.19.07-3.11-.98-6.06-2.98-8.38 1.96-1.24 3.18-3.44 3.18-5.81zm-1.56 14.18c-.15 5.91-5.07 10.78-10.97 10.85-1.89.05-3.7-.42-5.4-1.31-.16-.09-.35-.1-.53-.05-.18.06-.32.18-.41.34-1.95 3.82-5.82 6.19-10.11 6.19-.95 0-1.85-.11-2.73-.34-.28-.07-.58.04-.74.29-2.84 4.27-6.67 7.5-11.7 9.89-.48.23-1.03.18-1.47-.15-.44-.32-.66-.83-.58-1.36.54-3.66.37-7.64-.49-11.84-.05-.24-.23-.44-.46-.52-3.89-1.26-6.68-4.83-6.95-8.9-.17-2.58.62-5.08 2.24-7.05.14-.16.19-.38.14-.59s-.19-.38-.39-.47c-2.6-1.18-4.18-3.9-3.92-6.76.24-2.73 2.16-5.07 4.79-5.84.64-.19 1.29-.28 1.94-.28 1.11 0 2.21.27 3.22.81.19.1.42.11.62.02s.34-.27.38-.48c.96-4.64 5.1-8.01 9.86-8.01 1.66 0 3.28.4 4.69 1.16.17.09.37.11.55.05s.33-.2.41-.37c2.08-4.62 6.88-7.19 11.92-6.4 4.62.72 8.39 4.44 9.17 9.04.09.56.15 1.12.15 1.67 0 .2.09.39.25.52.15.13.36.19.55.15.19-.03.4-.04.6-.04 3.08 0 5.58 2.5 5.58 5.58 0 2.15-1.25 4.12-3.19 5.03-.2.09-.35.28-.39.5s.03.44.19.6c2.11 2.18 3.24 5.04 3.18 8.07z" fill="#ca70ba" opacity="1" original-fill="#000000"></path><path d="m32.8 15.4c-3.87 0-7.28 2.6-8.29 6.33-.21.77-.11 1.57.28 2.26s1.04 1.19 1.8 1.4c1.57.44 3.22-.5 3.66-2.08.31-1.15 1.36-1.95 2.55-1.95 1.46 0 2.65 1.19 2.65 2.66 0 1.46-1.19 2.65-2.65 2.65-1.64 0-2.98 1.34-2.98 2.98v5.7c0 1.64 1.34 2.98 2.98 2.98s2.98-1.34 2.98-2.98v-3.25c3.34-1.24 5.62-4.49 5.62-8.07.01-4.77-3.85-8.63-8.6-8.63zm2.09 15.53c-.29.09-.49.36-.49.66v3.75c0 .88-.72 1.6-1.6 1.6s-1.6-.72-1.6-1.6v-5.7c0-.88.72-1.6 1.6-1.6 2.22 0 4.02-1.8 4.02-4.02s-1.8-4.03-4.02-4.03c-1.81 0-3.4 1.22-3.88 2.96-.24.87-1.1 1.36-1.97 1.12-.41-.11-.76-.38-.97-.75s-.27-.8-.15-1.22c.85-3.13 3.72-5.32 6.97-5.32 3.99 0 7.23 3.25 7.23 7.24 0 3.14-2.11 5.98-5.14 6.91z" fill="#ca70ba" opacity="1" original-fill="#000000"></path><path d="m33.19 39.94c-1.77 0-3.22 1.44-3.22 3.22 0 1.77 1.44 3.22 3.22 3.22 1.77 0 3.22-1.44 3.22-3.22-.01-1.78-1.45-3.22-3.22-3.22zm0 5.05c-1.02 0-1.84-.83-1.84-1.84 0-1.02.83-1.84 1.84-1.84s1.84.83 1.84 1.84c0 1.02-.83 1.84-1.84 1.84z" fill="#ca70ba" opacity="1" original-fill="#000000"></path></g></svg>