<svg height="60" viewBox="0 0 60 60" width="60" xmlns="http://www.w3.org/2000/svg"><g id="Page-1" fill="none" fill-rule="evenodd"><g id="045---Grilled-Cheese" fill-rule="nonzero" transform="translate(-1)"><path id="Shape" d="m25 3.36v53.28c.0003888 1.0300476-.6689581 1.9407207-1.6521587 2.2478276-.9832007.307107-2.0518818-.0606855-2.6378413-.9078276l-18.29-26.64c-.55988935-.8056068-.55988935-1.8743932 0-2.68l18.29-26.64c.5859595-.84714208 1.6546406-1.2149346 2.6378413-.90782764.9832006.30710696 1.6525475 1.21778004 1.6521587 2.24782764z" fill="#c4e5ec"/><path id="Shape" d="m59.58 31.34-18.29 26.64c-.5859595.8471421-1.6546406 1.2149346-2.6378413.9078276-.9832006-.3071069-1.6525475-1.21778-1.6521587-2.2478276v-53.28c-.0008269-1.03023231.668369-1.94130846 1.651681-2.2486794.9833119-.30737094 2.0522547.06038494 2.638319.9076794l18.29 26.641c.5598894.8056068.5598894 1.8743932 0 2.68" fill="#c4e5ec"/><path id="Shape" d="m34 14c0 .5522847.4477153 1 1 1h2v4h-2.5c-1.3807119 0-2.5 1.1192881-2.5 2.5s1.1192881 2.5 2.5 2.5h2.5v11h-2.5c-1.3807119 0-2.5 1.1192881-2.5 2.5s1.1192881 2.5 2.5 2.5h2.5v15s-1-3-6-3-6 3-6 3v-7h4.5c1.3807119 0 2.5-1.1192881 2.5-2.5s-1.1192881-2.5-2.5-2.5h-4.5v-4h3c.5522847 0 1-.4477153 1-1s-.4477153-1-1-1h-3v-5h4.5c1.3807119 0 2.5-1.1192881 2.5-2.5s-1.1192881-2.5-2.5-2.5h-4.5v-5h2c.5522847 0 1-.4477153 1-1s-.4477153-1-1-1h-2v-3h2.5c1.3807119 0 2.5-1.1192881 2.5-2.5s-1.1192881-2.5-2.5-2.5h-2.5v-7s1 3 6 3 6-3 6-3v8h-2c-.5522847 0-1 .4477153-1 1z" fill="#ec4e5a"/><path id="Shape" d="m40.538 58.687-.012.007zm.752-.709c-.1949439.2882389-.4510171.529972-.75.708.2987652-.1783161.554781-.4199951.75-.708" fill="#e5e5e5"/><path id="Shape" d="m39.386 1c-1.2066925-.0152351-2.2284375.886737-2.363 2.086l17.557 25.574c.5598894.8056068.5598894 1.8743932 0 2.68l-17.557 25.573c.1336077 1.1995049 1.1551719 2.1021317 2.362 2.087.3954068.000041.7839418-.1033845 1.127-.3l.011-.006.012-.007c.2989829-.178028.5550561-.4197611.75-.708l18.295-26.639c.5598894-.8056068.5598894-1.8743932 0-2.68l-18.29-26.641c-.4232407-.63789167-1.1384703-1.02067478-1.904-1.019" fill="#a6d7dd"/><g fill="#17173f"><path id="Shape" d="m42.113 1.452c-.8338488-1.20876825-2.3572326-1.73430063-3.7590154-1.29677381-1.4017827.43752682-2.3557618 1.73629795-2.3539846 3.20477381v1.44c-.236.462-1.37 2.2-5 2.2-3.652 0-4.766-1.735-5-2.2v-1.44c.0005665-1.46813598-.9537722-2.76600887-2.3553151-3.20316004-1.4015428-.43715117-2.9245062.08803364-3.7586849 1.29616004l-18.286 26.639c-.8010389 1.1451541-.8010389 2.6688459 0 3.814l18.287 26.642c.6101379.9067666 1.6310714 1.4509647 2.724 1.452.3496235-.0009506.6971371-.0542068 1.031-.158 1.4130298-.4207536 2.3755295-1.7277614 2.358-3.202v-1.44c.236-.462 1.37-2.2 5-2.2 3.652 0 4.766 1.735 5 2.2v1.44c-.0166306 1.4735011.9456901 2.7794495 2.358 3.2.3337597.1044711.6812756.1584018 1.031.16 1.0939927-.0017755 2.1154524-.5475536 2.725-1.456l18.286-26.636c.8004517-1.145339.8004517-2.668661 0-3.814zm-6.113 21.548h-1.5c-.8284271 0-1.5-.6715729-1.5-1.5s.6715729-1.5 1.5-1.5h1.5zm0 16h-1.5c-.8284271 0-1.5-.6715729-1.5-1.5s.6715729-1.5 1.5-1.5h1.5zm-10 5h3.5c.8284271 0 1.5.6715729 1.5 1.5s-.6715729 1.5-1.5 1.5h-3.5zm0-16h3.5c.8284271 0 1.5.6715729 1.5 1.5s-.6715729 1.5-1.5 1.5h-3.5zm0-15h1.5c.8284271 0 1.5.6715729 1.5 1.5s-.6715729 1.5-1.5 1.5h-1.5zm-2 43.64c.0006521.5921463-.3835528 1.1160257-.9485244 1.2933525-.5649716.1773269-1.1796332-.0330397-1.5174756-.5193525l-18.292-26.643c-.32394269-.4636925-.32394269-1.0803075 0-1.544l18.291-26.64c.2395721-.3686188.6503792-.58985159 1.09-.587.1437581-.00025217.2867211.02132714.424.064.5746168.16617301.9656697.69797203.953 1.296zm7-5.64c-1.7643013-.0772818-3.5097392.3894483-5 1.337v-3.337h3.5c1.9329966 0 3.5-1.5670034 3.5-3.5s-1.5670034-3.5-3.5-3.5h-3.5v-3h2c.5522847 0 1-.4477153 1-1s-.4477153-1-1-1h-2v-4h3.5c1.9329966 0 3.5-1.5670034 3.5-3.5s-1.5670034-3.5-3.5-3.5h-3.5v-4h1c.5522847 0 1-.4477153 1-1s-.4477153-1-1-1h-1v-2h1.5c1.9329966 0 3.4999999-1.5670034 3.4999999-3.5s-1.5670033-3.5-3.4999999-3.5h-1.5v-3.337c1.4902608.94755168 3.2356987 1.41428179 5 1.337 1.7643013.07728179 3.5097392-.38944832 5-1.337v5.337h-1c-.5522847 0-1 .4477153-1 1s.4477153 1 1 1h1v3h-1.5c-1.9329966 0-3.5 1.5670034-3.5 3.5s1.5670034 3.5 3.5 3.5h1.5v9h-1.5c-1.9329966 0-3.5 1.5670034-3.5 3.5s1.5670034 3.5 3.5 3.5h1.5v11.337c-1.4902608-.9475517-3.2356987-1.4142818-5-1.337zm27.758-20.229-18.291 26.642c-.3374427.4870839-.9524051.6981654-1.5178497.5209912-.5654446-.1771741-.9499964-.7014394-.9491503-1.2939912v-53.28c-.0122115-.59765974.3787487-1.12892254.953-1.295.1375535-.04308169.2808577-.06499881.425-.065.4387579-.00354136.8489944.2170362 1.088.585l18.292 26.644c.3230121.4632525.3230121 1.0787475 0 1.542z"/><path id="Shape" d="m21 29h-9c-.5522847 0-1 .4477153-1 1s.4477153 1 1 1h9c.5522847 0 1-.4477153 1-1s-.4477153-1-1-1z"/><path id="Shape" d="m8 29h-1c-.55228475 0-1 .4477153-1 1s.44771525 1 1 1h1c.55228475 0 1-.4477153 1-1s-.44771525-1-1-1z"/><path id="Shape" d="m21 23h-10c-.5522847 0-1 .4477153-1 1s.4477153 1 1 1h10c.5522847 0 1-.4477153 1-1s-.4477153-1-1-1z"/><path id="Shape" d="m21 17h-6c-.5522847 0-1 .4477153-1 1s.4477153 1 1 1h6c.5522847 0 1-.4477153 1-1s-.4477153-1-1-1z"/><path id="Shape" d="m19 13h1.9c.5522847 0 1-.4477153 1-1s-.4477153-1-1-1h-1.9c-.5522847 0-1 .4477153-1 1s.4477153 1 1 1z"/><path id="Shape" d="m21 35h-10c-.5522847 0-1 .4477153-1 1s.4477153 1 1 1h10c.5522847 0 1-.4477153 1-1s-.4477153-1-1-1z"/><path id="Shape" d="m21 41h-6c-.5522847 0-1 .4477153-1 1s.4477153 1 1 1h6c.5522847 0 1-.4477153 1-1s-.4477153-1-1-1z"/><path id="Shape" d="m20.9 47h-1.9c-.5522847 0-1 .4477153-1 1s.4477153 1 1 1h1.9c.5522847 0 1-.4477153 1-1s-.4477153-1-1-1z"/><path id="Shape" d="m41 31h9c.5522847 0 1-.4477153 1-1s-.4477153-1-1-1h-9c-.5522847 0-1 .4477153-1 1s.4477153 1 1 1z"/><path id="Shape" d="m55 29h-1c-.5522847 0-1 .4477153-1 1s.4477153 1 1 1h1c.5522847 0 1-.4477153 1-1s-.4477153-1-1-1z"/><path id="Shape" d="m51 23h-10c-.5522847 0-1 .4477153-1 1s.4477153 1 1 1h10c.5522847 0 1-.4477153 1-1s-.4477153-1-1-1z"/><path id="Shape" d="m41 19h6c.5522847 0 1-.4477153 1-1s-.4477153-1-1-1h-6c-.5522847 0-1 .4477153-1 1s.4477153 1 1 1z"/><path id="Shape" d="m41.1 13h1.9c.5522847 0 1-.4477153 1-1s-.4477153-1-1-1h-1.9c-.5522847 0-1 .4477153-1 1s.4477153 1 1 1z"/><path id="Shape" d="m51 35h-10c-.5522847 0-1 .4477153-1 1s.4477153 1 1 1h10c.5522847 0 1-.4477153 1-1s-.4477153-1-1-1z"/><path id="Shape" d="m47 41h-6c-.5522847 0-1 .4477153-1 1s.4477153 1 1 1h6c.5522847 0 1-.4477153 1-1s-.4477153-1-1-1z"/><path id="Shape" d="m43 47h-1.9c-.5522847 0-1 .4477153-1 1s.4477153 1 1 1h1.9c.5522847 0 1-.4477153 1-1s-.4477153-1-1-1z"/></g></g></g></svg>