<svg xmlns="http://www.w3.org/2000/svg" xmlns:xlink="http://www.w3.org/1999/xlink" version="1.1" id="Layer_1" x="0px" y="0px" viewBox="0 0 500 500" style="enable-background:new 0 0 500 500;" xml:space="preserve" width="512" height="512">
<path d="M149.7,412.2c-2.5-1.5-5.4-2.7-8.7-3.8c-5-1.6-11.2-2.8-18.2-3.8c-5.6-0.7-11.7-1.3-18.2-1.6c-1.089-9.447-6.021-22-13.3-22  c-8.555,0-12.343,13.294-13.3,22.2c-12.957,0.651-26.489,2.609-39.5,7.4c-4.947,1.762-9.3,5.4-9.3,10.4v54.4c0,2.6,0.7,5.2,2,7.4  c1.1,1.9,2.6,3.6,4.2,4.9c2.9,2.4,6.4,4.1,10.3,5.5c5.9,2.1,13,3.4,20.9,4.2c7.9,0.9,16.7,1.2,26,1.2c19.77,0,38.826-2.579,47.2-6.1  c5.796-2.351,16.3-7.211,16.3-17.1v-53.7c0-1.598-0.823-4.168-2.5-6.2C152.5,414.1,151.1,413.1,149.7,412.2z M105.7,415.3  c8.874,0,27.04,2.291,36,6.4c-8.789,3.806-26.8,5.851-36.8,6.4C105.247,425.987,105.663,420.827,105.7,415.3z M48.8,419.7  c3.9-1.1,9.1-2.2,14.9-3c4-0.5,8.3-1,12.9-1.3c-0.451,3.387,2.06,6.749,6,6.9c3.4,0,6.1-2.6,6.2-6c0.1-5.6,2.6-17.7,2.6-17.8  c1.919,7.394,2.685,22.904,0.9,29.8c-14.662-0.109-33.385-1.47-49-6.6C44.7,421.1,46.6,420.4,48.8,419.7z M143.9,475.4  c0,0.826-1.591,2.302-3,3.2c-1.7,1.1-4.2,2.2-7.4,3.2c-4.7,1.5-10.8,2.7-17.8,3.5s-14.9,1.2-23.2,1.2c-7.8,0-15.1-0.3-21.8-0.9  c-5-0.4-9.5-1.1-13.5-1.9c-3-0.6-5.6-1.3-7.8-2.1c-1.7-0.6-3.1-1.2-4.2-1.9c-1.607-0.865-3.9-2.572-3.9-4.4V434  c1.4,0.5,2.9,1,4.6,1.5c5.7,1.6,12.7,2.9,20.6,3.7c7.9,0.9,16.8,1.4,26.1,1.4c19.932,0,40.783-2.706,51.3-6.6V475.4z M163.9,179.7  c-4.1,1.5-7.9,3.9-11,6.9c-4.7,4.5-8.1,10.5-10.4,17.3c-2.2,6.8-3.3,14.6-3.3,23.2c0,3.4,2.7,6.1,6.1,6.1c3.4,0,6.1-2.7,6.1-6.1  c0-10,1.7-18.3,4.7-24.3c1.5-3,3.3-5.5,5.2-7.4c2-1.9,4.2-3.3,6.7-4.2c3.2-1.1,4.8-4.6,3.6-7.8C170.6,180.2,167.1,178.5,163.9,179.7  z M336.8,387.7c3.3-0.8,5.2-4.1,4.4-7.4s-4.1-5.2-7.4-4.4c-17,4.2-34.5,7.1-56.4,7.1c-18.6,0-40.3-2.1-67.5-7.2  c-27.2-5.1-59.8-13.4-100-25.7c-10.1-3.1-18.9-4.5-26.4-4.5c-5.4,0-10.2,0.7-14.3,2c-6.3,1.9-11.2,5.3-14.5,9.5  c-3.3,4.2-5,9.1-4.9,13.9c0,2.9,0.6,5.7,1.7,8.4c1.1,2.6,2.8,5,5,7c2.5,2.2,6.3,2,8.6-0.4c2.2-2.5,2-6.3-0.4-8.6  c-2.343-2.536-3.232-7.294-1.7-10.6c1-2.1,2.9-4.3,6.2-6c3.3-1.7,8-3,14.5-3c6.1,0,13.7,1.1,22.9,3.9c40.5,12.4,73.5,20.7,101.3,26  c27.8,5.3,50.3,7.4,69.8,7.4C300.4,395.2,319.1,392.1,336.8,387.7z M145.5,253.4c0.2,0.1,6.8,3,19.7,13.5c1.7,1.4,3.6,2.5,5.7,3.4  c2.1,0.8,4.4,1.3,6.8,1.3c2.449,0,5.279-0.885,7.8-1.7c3.2-1.1,4.8-4.6,3.6-7.8c-1.1-3.2-4.6-4.8-7.8-3.6  c-2.945,1.138-6.374,0.809-8.4-1c-14.6-11.8-22.1-15-22.7-15.3c-3.1-1.3-6.7,0.2-7.9,3.3C140.9,248.6,142.4,252.1,145.5,253.4z   M163.9,228.8c-1.4,2.5-2.2,4.3-2.2,4.4c-1.4,3.1,0,6.7,3.1,8c3.1,1.4,6.7,0,8-3.1c0-0.1,0.7-1.6,1.9-3.8c1.2-2.1,2.8-4.9,4.7-7.4  c2.8-3.7,4.4-7.6,5.3-11c0.9-3.4,1.109-10.474,2.1-14.1c0.8-3.3-1.1-6.6-4.4-7.4s-6.6,1.2-7.4,4.4  c-0.931,3.604-1.089,8.974-1.4,10.7c-0.2,1.4-0.6,3.2-1.2,5s-1.5,3.6-2.7,5.2C167.3,223,165.3,226.3,163.9,228.8z M351.3,449.2  c4.726,0.328,9.955-1.051,12.4-4.7c1-1.6,1.6-3.6,1.6-5.6c0-1.7-0.4-3.5-1.3-5c-3.1-5.7-7.4-9.9-11.5-13.1  c-4.1-3.2-8.2-5.3-11.1-6.6c-8.464-3.647-16.404,0.987-20.7,7c-2.555-6.864-9.317-14.5-22.5-14.5c-5.2,0-10,1.3-14,3.6  c-5.838,3.509-11.7,9.181-11.7,15.6c0,3.355,1.449,6.615,3.4,7.9c-1.8,0.3-3.5,0.9-5.2,1.6c-4.3,1.9-7.8,5.1-10.5,8.8  c-2.7,3.8-4.5,8.2-5.6,12.9c-1.983,8.538,2.528,15.666,6.4,18.4c2.47,1.744,5.5,2.6,8.6,2.6c3.8,0,7.8-1.5,11-4.3s7.464-5.96,9.8-7  c-0.8,1.6-1.6,3.3-2.4,5.3c-1.1,2.4-1.642,4.9-1.6,7.3c0.174,10.068,6.919,15.617,18.1,18.8c12.457,3.183,24.347,0.826,28.7-9.4  c5.034,7.349,15.855,6.728,21.2,3.4c6.43-4.3,11.4-10.86,11.4-19.3C365.8,462.319,358.238,453.698,351.3,449.2z M344.4,482.5  c-1.1-0.5-2.4-1.6-3.6-3.2c-1.2-1.6-2.2-3.6-2.8-5.8c-2-7.3-5.2-12.4-8.3-15.7c-1.555-1.806-5.019-2.8-8.1-0.8  c-2.302,1.681-3.23,5.349-1.5,8.1c2.9,4.6,4,8.8,4,12.2s-1,5.9-2.4,7.7c-2.108,2.383-9.892,2.851-12.8,2.1c-1.6-0.4-3.1-0.9-4.5-1.5  c-2-0.9-3.7-2.1-4.6-3.1c-1.157-1.436-1.311-3.5-0.6-5.1c2.8-6.3,4.9-10.2,6.3-12.4c1.862-2.596,3.472-6.268,2.8-8.4  c-0.7-2.1-2.6-3.7-4.8-4c-7.883-0.911-15.777,1.932-22.4,6.2c-3.217,2.073-6.1,4.4-8.5,6.5c-1.1,0.9-2,1.2-2.9,1.2  c-2.821,0-3.913-2.872-3.2-6.1c1.521-6.8,4.709-12.34,10.2-13.7c6.203-1.536,12.985,0.381,18.6,2c2.445,0.577,5.343,0.245,7-1.6  c1.7-1.9,2-4.6,0.8-6.9c-0.3-0.5-1.5-2.7-4.4-5.5c-2.8-2.7-7.3-6-13.6-8.6c2.206-3.347,5.9-6.8,13.2-6.8  c11.594,0,13.581,14.568,13.8,18.9c-1.1,3.9-1.4,6.7-1.4,6.9c-0.3,3.3,2.1,6.3,5.5,6.6c3.3,0.3,6.3-2.1,6.6-5.4  c0.23-1.749,0.817-4.885,2.3-8.7c0.9-2.2,2.1-4.5,3.6-6.6c1.5-2.1,3.4-3.9,5.7-5.4c0.557-0.26,1.4-0.268,2,0c2.3,1,5.5,2.7,8.7,5.1  c2.3,1.8,4.6,3.9,6.5,6.5c-8.77-0.221-15.706,2.864-20.6,6.8c-1.8,1.5-2.6,3.9-2,6.2c0.6,2.3,2.4,4,4.7,4.4  c6.896,0.889,20.3,7.843,20.3,18.6C354,479.868,349.34,484.404,344.4,482.5z M394.1,303.8c18.8-1.1,38.7-3.2,38.8-3.2h0.1  c19.1-2.4,42.9-5.7,61.3-8.5c3.3-0.5,5.6-3.6,5.1-6.9s-3.6-5.6-6.9-5.1c-18.2,2.8-41.9,6.1-60.9,8.5c0,0-6.909,0.645-12.2,1.2  c-12.6-1-23.6-4.5-32.8-9.1c-9.2-4.7-16.5-10.5-21.2-16.1c-4.6-5.5-7-11.2-8.3-15.4c0,0-0.962-3.232-1.2-6.7c-0.1-3.4-2.9-6-6.2-5.9  c-3.4,0.1-6,2.9-5.9,6.2c0,0.4,0.1,4.2,1.7,9.7c1.6,5.5,4.7,12.8,10.7,19.9c7.991,9.068,16.468,15.468,26.4,19.8l-24.7-0.1  c-5.6,0-10.7,0.2-15.8,0.7c-28.1-2.6-47.8-8.5-60.4-13.8c-1.8-0.7-3.4-1.5-4.9-2.1c2-0.4,4.1-0.8,6.2-1.1c5.2-0.9,10.4-1.6,14.8-2  c3.3-0.3,5.9-3.2,5.6-6.5s-3.2-5.9-6.5-5.6c-5.2,0.4-10.8,1.2-16.5,2.2c-8.3,1.5-16.7,3.3-23,4.8c1.7-6.5,2.6-13.5,2.6-20.9  c0-9.6-1.5-19.7-5.1-29.2c-3.5-9.5-9.1-18.4-17.1-25.6c-2.5-2.2-6.3-2-8.6,0.5c-2.2,2.5-2,6.3,0.5,8.6c6.3,5.6,10.8,12.8,13.8,20.7  c3,7.9,4.3,16.6,4.3,24.9c0,5-0.5,9.8-1.4,14.3c-1.387,6.426-7.038,21.468-14.1,23.6c-6.6,1.7-15.7,3.4-25.7,4.6s-21,2-31.4,2  c-5.845,0-21.562,0.332-34.8-4.4c2.081-1.477,6.409-7.204,7.7-12c0.411-1.527,1.485-4.651,2.5-5.9c2.1-2.5,1.8-6.2-0.6-8.4  c-2.5-2.2-6.4-2-8.6,0.5c-0.6,0.7-3,3.7-4.9,10.3c-1.5,5.296-5.649,9.675-10.5,9.4c-2.8-1.4-5.5-2.8-8-4.4  c1.957-4.764,6.277-9.598,11.1-13.8c0,0,2.177-1.989,4.2-3.4c2.7-1.9,3.4-5.7,1.4-8.5c-1.9-2.7-5.7-3.4-8.5-1.4  c-0.2,0.1-5.1,3.6-10.1,8.8c-3.249,3.277-7.24,8.681-8.5,11.5c-5.953-4.032-19.068-13.777-25.1-22.7c-1-1.9-4.8-10-6.5-21.5  s2.064-24.917,11.7-26.9c10.2-1.9,23.7-4.4,36.9-8.1c6.6-1.8,13.2-4,19.2-6.6c6.1-2.6,11.7-5.6,16.4-9.4c4.8-3.8,8-8.1,10.3-12  c2.3-3.9,5.096-12.215,7.6-14.4c0.2,3.3,1.3,6.8,3.2,10.1c1.7,2.9,5.4,3.9,8.3,2.2c2.9-1.7,3.9-5.4,2.2-8.3  c-1.881-2.823-2.97-9.6,3-9.6c11.243,0,19.591,20.747,20.3,27c-0.9-0.5-1.8-1.1-2.9-2c-2.6-2.1-6.4-1.7-8.5,0.9  c-2.1,2.6-1.7,6.4,0.9,8.5c2.4,1.9,4.7,3.4,7,4.4s4.509,1.795,6.7,1.6c3.572-0.317,9.781-2.721,9.9-10.2  c2.8,7.011,11.736,18.053,20.4,15.7c4.387,8.434,13.23,10.14,16.4,9.2c1.617,2.983,6.417,8,12.4,8c6.579,0,11.613-6.391,13.5-12.3  c0.8-2.6,1.2-5.6,1.4-9c3,3.8,6.6,7.2,11,10.1c4.2,2.8,9.1,5.1,14.7,6.7c5.5,1.6,11.7,2.4,18.5,2.4c17.9,0,32.6-5.6,42.8-13.5  c5.1-4,9.2-8.5,12-13.4c2.8-4.9,5.147-12.783,4-18c1.3-1.4,2.4-2.8,3.2-4.1l76.4,8.1c0.6,0,1.2,0,1.8-0.1l18.7-4.2  c3.3-0.7,5.3-4,4.6-7.3c-0.7-3.3-4-5.3-7.3-4.6l-17.8,4c-4.6-0.4-11.4-1.1-19.1-1.9l-49.7-5.5c4.134-7.694,5.4-12.8,5.4-19.3  c0-4-0.7-8.2-2.5-12.4s-4.7-8.3-8.7-12.1c-4.5-4.3-8-8.3-10.2-12c-2.772-4.447-3.866-9.596-1.3-18.4c2-6.5,5.4-16.8,9.1-28.1  c3.8-11.2,7.9-23.4,11.4-33.5c1.1-3.2-0.6-6.6-3.8-7.7c-3.2-1.1-6.6,0.6-7.7,3.8c-4.3,12.3-9.5,27.7-13.9,40.8  c-2.2,6.6-4.1,12.6-5.7,17.4c-1.242,4.104-3.6,12.091-3.6,15.8c0,2.8,0.5,5.6,1.3,8.3c1.3,4,3.4,7.8,6.1,11.5s6,7.2,9.7,10.8  c3,2.8,4.917,5.453,5.9,8.1c4.719,12.711-5.749,32.115-13.1,35.8c-2.324,1.068-3.532-1.387-2.5-3.3c4.2-6.7,9.3-15.3,9.3-15.3  c1.7-2.9,0.8-6.6-2.1-8.3c-2.9-1.7-6.6-0.8-8.3,2.1l-9.5,15.6c-1.185,1.915-2.996,4.451-5.1,4.2c-1.168-3.017,0.147-6.6,1.3-10.2  c0.5-1.7,1.2-3.7,1.8-5.9c4.749-4.415,12.643-15.313,8.1-27.8c-1.1-3.2-4.6-4.8-7.8-3.7c-3.2,1.1-4.8,4.6-3.7,7.8  c1.511,3.626-0.915,8.966-2,10.7c-1.119,1.788-2.7,3.8-4.7,6c-1.402,1.5-3.151,1.245-2.8-1.9c1.585-11.634,3.947-14.919,4.9-21.4  l5.9-36.9c1.317-7.853-4.811-20.194-19-21.6l4.026-36.25c0.3-3.3-1.983-6.085-5.283-6.485c-3.3-0.3-6.382,2.157-6.782,5.457  l-4.36,37.877c-13.376,2.639-18.475,13.573-18.4,19.9v26.6c-11.542-2.222-20.544,3.499-23.4,11.1c-3.5-3.3-8.1-8-13.6-14.2  c-1.6-1.8-3.7-4.5-6.1-7.8c-4.2-5.7-9.3-13.2-14.4-21.1C251.3,45.9,243.2,33,237,23c-3.1-5-5.7-9.2-7.5-12.2  c-0.9-1.5-1.6-2.7-2.1-3.5c-1.506-2.364-3.572-3.641-4-3.8c-0.2-0.1-2.5-0.9-6.2-1.7c-3.6-1-8.7-1.8-14.2-1.8  c-3.8,0-7.8,0.4-11.9,1.5c-4,1.1-8.1,3.1-11.7,6.1c-5.6,4.8-11.3,10.7-15.8,17.6c-2.2,3.5-4.1,7.2-5.5,11.3  c-0.7,2.1-1.2,4.2-1.6,6.4L127.7,2.7c-2-2.7-5.8-3.3-8.5-1.4c-2.7,1.9-3.3,5.8-1.4,8.5l47,65.2c3.647,5.298,9.149,9.1,16.1,9.1  c7.857,0,13.398-4.313,16-8.1c6.9,5.7,13.7,11.5,19,16.6c3,2.9,5.595,5.504,7.4,7.7c1.87,2.274,2.968,4.372,3.1,7.6  c0.09,2.198-0.3,4.7-0.9,7.4c-0.9,4.1-2.2,8.5-3.4,13c-2.151,7.916-2.717,11.168-2.1,15.8c0.3,2.5,0.7,5.2,1.3,8.1  c-2.3-4.4-5.7-9.2-10.6-13.9c-2.5-2.4-5.2-4.3-8-5.5c-1-0.4-2-0.8-3-1.1c-2.4-2.8-7.7-8.7-16.2-14.7c-5.7-4-12.9-8-21.5-11.1  c-8.6-3-18.6-5-29.9-5c-8.6,0-18,1.2-28,3.9c-23.5,6.3-40.9,17.3-52.5,29.9c-5.8,6.3-10.1,13-13,19.8c-2.9,6.8-4.4,13.7-4.4,20.2  c0,5.832,1.115,12.24,3,16.1c-6.626,5.732-10.923,17.83-5.2,33.1c-8.66,3.879-24.787,13.994-28.3,25.2  c-4.274,13.304-4.249,22.321,1.1,34.6c4.328,8.832,9.309,13.465,21.1,15.7c12,2.2,26.5,5.1,39.6,8.1c6.6,1.5,12.8,3.1,18.2,4.6  c5.4,1.5,10,3,13.1,4.3c7.2,3,16.8,6.6,27.2,9.6s21.5,5.6,31.9,6.4c5,0.4,12.5,0.8,21.1,1.2c25.8,1.3,61,2.7,61,2.7  c2.66,0.107,4.851-1.449,5.6-3.2c1.7,0.2,3.4,0.4,4.9,0.5c-3.117,3.783-2.023,9.289,1.6,13.6c5.581,6.353,19.406,3.7,39.6,3.7  c6.3,0,12,0.4,17.9,0.7c14.166,1.443,31.773,1.245,45.5-1.6c6.3-1.3,13.4-2.9,20.6-4.1c7.2-1.3,14.4-2.2,20.8-2.2  c34.372,0,67.798-0.083,99-1.2c3.4-0.2,5.9-3.1,5.7-6.4c-0.2-3.2-3-5.8-6.4-5.6c-35.647,1.84-63.545,1.2-98.2,1.2  c-5,0-10.2,0.5-15.3,1.2c-7.7,1.1-15.3,2.7-22,4.1c-18.848,3.622-26.981,4.298-48.8,2.9c-5.9-0.4-11.9-0.8-18.7-0.8  c-11.073,0-25.353,1.687-30.875,0.379c6.387-2.523,21.266-7.798,40.174-12.179c7.8-1.8,14.9-3.1,19.8-4c3.3-0.6,5.5-3.7,4.9-7  c-0.5-2.7-2.7-4.7-5.3-5c2.989-2.04,12.713-5.3,23.1-6.4C355.772,303.399,378.221,304.43,394.1,303.8z M328.6,107.7  c3.667-0.456,11.202-1.999,14.9-3.2c3.2-1.1,4.9-4.5,3.8-7.7c-1.1-3.2-4.5-4.9-7.7-3.8c-2.932,0.979-8.621,2.298-10.9,2.4v-9.7  c3.449-0.116,11.045-2.126,14.8-3.2c3.2-1.1,4.9-4.5,3.8-7.7c-1.1-3.2-4.5-4.9-7.7-3.8c-2.272,0.755-8.26,2.181-10.9,2.4V64  c1.96-7.34,10.274-12.196,18.5-9.3c3.947,1.389,6.741,5.93,7.1,8.2l-5.7,35.6c-0.3,1-1.1,3.6-2,7c-0.8,3.2-1.8,7.1-2.5,11.1  c-4.645,1.557-13.27,0.357-15.5-1.5V107.7z M316.6,102.2v5.5c0,4.998-6.898,9.874-10.3,9.4c-1.232-1.326-2.5-4.057-2.5-8  C303.8,104.745,310.072,99.485,316.6,102.2z M296.2,145.2c2.051-7.247,4.587-12.668,7.4-16.4c3.166,0.838,9.37,0.051,13.8-3.8  c-5.132,4.936-10.443,14.596-13,22.4c-0.9,3.2,0.9,6.6,4.1,7.5c3.2,0.9,6.6-0.9,7.5-4.1c2.064-8.204,10.2-19.668,13.6-21.5  c-0.294,4.002-0.728,19.572-0.2,26.4c0.185,2.395,0.2,4.6,0.4,6.4c0.4,3.3,3.3,5.8,6.7,5.4c3.3-0.4,5.8-3.3,5.4-6.7  c-0.1-1.3-0.2-3.2-0.3-5.4c-0.549-8.621-0.472-21.166,0.2-26c0.9-0.1,1.8-0.2,2.8-0.3c1.1,2.7,3,4.9,5.2,6.3  c1.3,0.8,2.8,1.4,4.3,1.8c-1.196,6.652-1.057,15.843,3.9,20.3c2.1,1.7,4.9,2.6,7.5,2.6c2,0,3.9-0.5,5.8-1.3  c0.594,3.179,4.657,7.421,11.2,6.3c-0.4,1.9-1.2,4.1-2.5,6.3c-2.9,5-8.2,10.3-15.7,14.2c-7.5,4-17.1,6.6-28.6,6.6  c-7.6,0-14-1.3-19.3-3.4c-7.9-3.2-13.4-8.1-17-13.7C295.289,168.562,293.468,154.234,296.2,145.2z M180.8,72.1  c-5.774,0-10.991-12.632-12.4-18.3c5.1,3.9,11.8,9,18.9,14.7C185.685,70.936,182.362,72.1,180.8,72.1z M209.5,70.8  c-9.8-8.3-20.5-16.7-28.8-23.1c-4.5-3.4-8.2-6.2-10.7-8.1c1.5-4.1,3.9-8.1,6.8-11.9c3.1-4,6.8-7.6,10.5-10.9c2-1.7,4.3-2.9,7-3.6  c5.551-1.2,16.266-0.821,23.1,1c3,4.9,11,18.2,20.2,32.8c5.8,9.2,12.1,19,17.9,27.5c2.9,4.3,5.6,8.2,8.2,11.6  c2.5,3.4,4.8,6.4,6.8,8.6c11.1,12.5,18.9,19.2,22.3,21.9c0.3,1.1,0.73,2.837,1.5,4c-1.3,2.1-3.1,4.9-4.9,8.4  c-1.8,3.6-3.7,7.7-5.1,12.4c-0.5,1.6-0.9,3.2-1.3,4.8c-2.2,0.9-3.7,3.1-3.7,5.6V182c0,5.787-0.577,10.37-2.8,12.1  c0,0-1.681-1.462-2.6-3.7c-0.698-1.701-1.1-4.1-1.1-6.9c0-23.2-2-32.5-2.1-33c-0.7-3.3-4-5.4-7.2-4.6c-3.3,0.7-5.3,3.9-4.6,7.2  c0,0,1.8,8.6,1.8,30.4c0,0.9,0,1.7,0.1,2.6c-0.711-0.443-2.2-2.4-2.9-4.4s-1.283-4.487-1.8-8.5c-1.1-10.8-2.8-16-2.9-16.5  c-1-3.2-4.5-4.9-7.7-3.9c-3.2,1-4.9,4.5-3.9,7.6c1.719,5.238,2.5,15.2,2.5,15.2s-2.919-2.621-5-6.3c-1.9-3.6-3.5-8.3-4.7-13  c-1.791-7.636-3.06-15.172-1.8-20.9c0.9-3.7,2.3-8.2,3.5-12.8c1.2-4.7,2.3-9.6,2.3-14.7c0-5.309-1.783-9.921-4.3-13.4  c-1.8-2.4-4.2-5-7-7.8C222.3,81.8,216.1,76.3,209.5,70.8z M49.4,159.5c6.9-16.3,25.2-34,57.5-42.8c9.1-2.5,17.3-3.5,24.9-3.5  c25.03,0,43.93,10.964,52.8,20.6c-2.5,0.1-4.677,0.488-6.8,1c-3.651,0.881-6.204,2.966-9.8,6.2c-2,1.8-4.2,3.3-6.7,4.5  c-4.8,2.4-10.592,3.781-17,4.4c-7.64,0.738-17.981,0.8-25.1,0.8c-7.8,0-15.7,0.1-23.4,1c-7.7,1-15.2,2.9-22,6.8  c-2.9,1.7-3.9,5.4-2.2,8.3c1.7,2.9,5.4,3.9,8.3,2.2c4.8-2.8,10.6-4.4,17.4-5.2c6.7-0.8,14.2-0.9,21.9-0.9  c16.821,0,30.672-0.768,38.3-3.1c-1.4,2-3.2,3.9-5.5,5.8c-3.5,2.8-8.2,5.4-13.6,7.7c-8.1,3.5-17.7,6.2-27.1,8.5  c-9.5,2.2-18.8,3.9-26.4,5.4c-2.4,0.4-4.6,1.2-6.5,2.2c-7.911,3.813-13.345,12.421-14.5,22.5c-2.419-2.93-7.794-9.24-12.5-18.4  C44.906,180.383,46.021,168.064,49.4,159.5z M43,203.6c4.2,7.2,9.2,13.5,13.3,18.3c3.1,3.6,5.8,6.4,7.4,8  c0.938,6.122,3.64,17.76,9.8,26.7c-5.202-0.634-11.202-4.664-17-12.6c-2.49-3.408-4.9-7.3-7.4-11.7c-2.7-4.7-4.7-8.8-6-12.4  C40.979,214.277,40.106,207.796,43,203.6z M273,321.2c-3.1,0.6-7.1,1-12.2,1c-4.6,0.1-10.3-0.2-16.9-1  c-2.887-5.289-9.155-9.647-19.7-11.8c-6.015-1.228-13.7-2.2-23.7-2.4c-3.4-0.1-6.1,2.6-6.2,5.9c-0.1,3.4,2.6,6.1,5.9,6.2  c8.2,0.2,14.5,0.8,19.3,1.7c5.926,1.009,9.287,2.37,10.5,3.2c-7.7-0.3-19.8-0.8-32.2-1.4c-8.1-0.4-16.3-0.7-23.5-1.1  c-7.2-0.4-13.5-0.7-17.7-1c-9-0.7-19.5-3-29.4-5.9c-9.9-2.9-19.1-6.3-26-9.2c-3.9-1.6-8.8-3.2-14.5-4.8c-8.5-2.4-18.7-4.8-29-7.1  c-10.3-2.2-20.9-4.3-30-6c-11.925-2.292-16.657-17.691-13.9-30.8c2.604-9.743,14.417-17.372,23-21.6c0.6,1.1,1.2,2.2,1.8,3.3  c2.3,4.1,4.7,8,7.2,11.6c1.9,2.7,4,5.3,6.2,7.6c6.149,6.932,20.851,15.723,33.5,11.2c1.6,1.4,3.3,3,5.2,4.5c4.7,3.9,10.2,8,16.4,12  c0.1,0,0.1,0.1,0.2,0.1c9.4,6,20.5,11.5,32.9,15c4.9,1.4,10.3,2.3,16.1,2.9c5.8,0.6,11.9,0.9,18.2,0.9c11,0,22.4-0.8,32.8-2.1  c3.8-0.5,7.5-1,10.9-1.5c18.672,5.719,54.711,13.596,63.5,17.7L273,321.2z M303.6,307.3c-2.8,2.8-4.7,5.6-6,7.7  c-1.1,0.2-2.3,0.5-3.4,0.8c-3.183-7.753-10.221-9.864-27-14.3c-8-2.2-17.6-4.9-26-7.1c4.991-3.464,8.332-8.8,10.3-12.1  c1.6-0.4,4-1,6.8-1.7c3.1,2.1,9,5.6,18.2,9.4c8.8,3.7,20.7,7.6,35.7,10.6C308.7,302.7,305.8,305,303.6,307.3z M483.9,402.7  c-3.5-2-7-3.3-10.2-4.2c5.338-1.096,10.321-3.415,12.2-6.8c1.879-3.385,1.483-8.7-2-12.7c-10.653-11.191-25.155-13.5-31.6-13.5  c-2,0-4.1,0.4-6,1.2c-3.96,2.045-8.747,5.47-11.3,13.3c-2.298-4.383-9-10.4-17.4-10.4c-8,0-15.1,2.3-20.5,6.4  c-5.4,4-9.1,9.6-10.7,15.8c-2.294,8.945,1.694,13.6,6.7,14.4c-8.113,2.86-11.972,9.821-14.3,17c-1.161,3.581-1.6,7.4-1.6,11.3  c0,10.457,5.477,20.3,17,20.3c2.8,0,5.6-0.7,8.1-2.1c2.5-1.4,4.8-3.5,6.4-6.2c1.6-2.7,6.938-10.138,9.5-11.8  c-0.732,3.023-1.4,7.172-1.4,10.8c0,11.032,8.362,19,24.6,19c16.749,0,25.796-10.372,27.4-19c8.587,5.585,18.147,2.521,22.5-1.7  c12.045-11.966,7.95-25.779,1.4-34C490,406.8,487,404.4,483.9,402.7z M483.9,433.7c-1.43,1.572-3.677,2.896-6.6,2.1  c-1.4-0.5-2.9-1.3-4.4-2.6c-1.5-1.3-2.9-2.9-4.1-4.8c-4.3-7-9.2-11.2-13.4-13.7c-2.2-1.3-4.9-1.1-6.8,0.4  c-3.26,2.57-2.893,6.66-0.2,9.3c3.3,2.9,5.5,5.9,6.9,8.6c1.4,2.8,1.9,5.4,1.9,7.7c0,6.296-5.604,11.2-15.7,11.2  c-7.117,0-12.696-2.361-12.3-8.1c0.502-7.268,1.523-12.374,3.7-18.3c0.9-2,0.8-4.3-0.5-6.1s-3.5-2.8-5.8-2.5  c-3.5,0.5-6.6,1.7-9.5,3.3c-4.3,2.4-7.9,5.7-11,9.1c-3.1,3.4-5.6,7.1-7.7,10.4c-0.834,1.572-2.315,2.6-4.2,2.6  c-1.757,0-3.349-1.513-4.1-3c-1.24-2.594-0.674-8.683,0.1-12.1c0.8-3.2,2.234-5.667,4-7.5c5.247-5.445,13.353-6.083,22.8-5.5  c2.5,0.2,4.9-1.2,5.9-3.5c1.1-2.3,0.6-5-1.2-6.8c-0.4-0.4-2.4-2.3-6.2-4.3c-3.9-2-9.6-4.1-17.3-4.8c-0.034-2.285,2.587-6.906,6-9.4  c3.2-2.4,7.5-3.9,13.2-4c6.494,0,13.264,12.06,13.9,17c0,4.6,0.6,7.6,0.7,7.9c0.6,3.3,3.8,5.5,7.1,4.8c3.3-0.6,5.4-3.8,4.8-7.1  c-0.73-4.915-0.138-12.532,0.8-16c1-3.5,2.6-6.9,5.2-9.8c2.015-2.115,8.551,0.021,13.4,1.9c3.4,1.3,6.8,3.1,9.9,5.6  c-8.141,1.381-15.668,7.491-20.2,13.6c-1.3,2-1.4,4.5-0.1,6.5c1.855,2.551,4.988,2.96,7.6,2.8c9.798-0.6,16.606,2.898,23,9  C488.681,423.064,487.353,429.464,483.9,433.7z M209.6,245.5c0,6.2-0.8,10.9-1.8,14.4c-1.6,5.4-3.8,8.2-5.4,9.8  c0,0-1.485,1.385-2.3,1.7c-3,1.3-4.5,4.7-3.4,7.8c1.2,3.1,4.7,4.8,7.8,3.6c0.4-0.2,1.7-0.7,3.5-1.9c2.6-1.8,6.2-5.3,9-11  c2.8-5.7,4.8-13.6,4.8-24.4c0-3.4-2.7-6.1-6.1-6.1C212.3,239.4,209.6,242.1,209.6,245.5z M494.2,221c-13.5-2.2-24.1-7.8-31.3-12.9  c-2.933-1.976-9.23-7.26-10.8-9.3c-2.2-2.6-6-2.9-8.6-0.8c-2.6,2.2-2.9,6-0.8,8.6c0.3,0.2,4.7,5.5,13.1,11.4  c8.3,5.9,20.6,12.5,36.4,15c3.3,0.5,6.4-1.7,7-5C499.7,224.7,497.5,221.6,494.2,221z M79.6,469.9c0,4.363,3.537,7.9,7.9,7.9  s7.9-3.537,7.9-7.9c0-4.363-3.537-7.9-7.9-7.9S79.6,465.537,79.6,469.9z M122.8,466.9c4.363,0,7.9-3.537,7.9-7.9s-3.537-7.9-7.9-7.9  s-7.9,3.537-7.9,7.9S118.437,466.9,122.8,466.9z M475.1,98.7c4.142,0,7.5-3.358,7.5-7.5s-3.358-7.5-7.5-7.5  c-4.142,0-7.5,3.358-7.5,7.5S470.958,98.7,475.1,98.7z M456.4,117.4c4.142,0,7.5-3.358,7.5-7.5c0-4.142-3.358-7.5-7.5-7.5  c-4.142,0-7.5,3.358-7.5,7.5C448.9,114.042,452.258,117.4,456.4,117.4z M456.4,80c4.142,0,7.5-3.358,7.5-7.5s-3.358-7.5-7.5-7.5  c-4.142,0-7.5,3.358-7.5,7.5S452.258,80,456.4,80z M89.4,55.9c4.142,0,7.5-3.358,7.5-7.5c0-4.142-3.358-7.5-7.5-7.5  c-4.142,0-7.5,3.358-7.5,7.5C81.9,52.542,85.258,55.9,89.4,55.9z M55.8,93.4c4.142,0,7.5-3.358,7.5-7.5c0-4.142-3.358-7.5-7.5-7.5  s-7.5,3.358-7.5,7.5C48.3,90.042,51.658,93.4,55.8,93.4z" fill="#ca70ba" opacity="1" original-fill="#000000"></path>
</svg>
