<svg id="Layer_1" height="512" viewBox="0 0 512 512" width="512" xmlns="http://www.w3.org/2000/svg" data-name="Layer 1"><path d="m11.315 266.587 65.437 25.024a17.624 17.624 0 0 0 22.732-10.155l1.188-3.106c.606.332 1.21.669 1.816 1a112.493 112.493 0 0 0 12.635 19.262 24.407 24.407 0 0 0 20.972 36.9c.14 0 .281-.008.422-.011a24.378 24.378 0 0 0 24.247 21.7c.144 0 .287-.009.43-.011a24.349 24.349 0 0 0 24.206 21.698c.153 0 .307-.012.461-.015a24.417 24.417 0 0 0 42.6 13.429l4.362-4.96 23.756 20.158a24.214 24.214 0 0 0 15.746 5.781q1.02 0 2.05-.084a24.345 24.345 0 0 0 22.377-23.097 24.355 24.355 0 0 0 23.271-20.922c.668.055 1.338.086 2.007.086a24.378 24.378 0 0 0 24.067-20.2 24.631 24.631 0 0 0 3.129.222q1.02 0 2.05-.084a24.165 24.165 0 0 0 20-34.425c8.858-6.171 17.807-15.13 27.152-27.178q.077-.1.15-.2a31.38 31.38 0 0 1 12.4-9.961l1.539 4.023a17.6 17.6 0 0 0 22.731 10.155l65.438-25.024a17.626 17.626 0 0 0 10.155-22.732l-51.174-133.82a17.624 17.624 0 0 0 -22.731-10.155l-65.436 25.023a17.624 17.624 0 0 0 -10.156 22.732l.812 2.121c-4.566 1.585-9.822 3.425-15.728 5.506-26.7-7.569-52.576-11.9-83.489-13.983a32.057 32.057 0 0 0 -22.752 7.088l-19.638 15.6q-16.824-.532-41.372-1.3l-29.037-13.68.517-1.352a17.625 17.625 0 0 0 -10.157-22.731l-65.437-25.024a17.625 17.625 0 0 0 -22.73 10.155l-51.173 133.816a17.625 17.625 0 0 0 10.155 22.731zm119.231 50.838a8.434 8.434 0 0 1 -.763-11.89l13.293-15.118a8.425 8.425 0 0 1 12.657 11.122l-13.3 15.123a8.473 8.473 0 0 1 -11.888.761zm24.669 21.692a8.434 8.434 0 0 1 -.767-11.886l20.57-23.393a8.425 8.425 0 0 1 12.654 11.126l-5.652 6.428-.007.008-14.911 16.957a8.434 8.434 0 0 1 -11.887.76zm24.669 21.692a8.435 8.435 0 0 1 -.763-11.89l14.912-16.96a8.425 8.425 0 0 1 12.652 11.128l-7.811 8.884-7.1 8.073a8.435 8.435 0 0 1 -11.89.765zm36.559 20.927a8.425 8.425 0 0 1 -12.653-11.126l7.1-8.072a8.425 8.425 0 0 1 12.654 11.126zm159.885-241.036a1.573 1.573 0 0 1 .885-.847l65.438-25.024a1.566 1.566 0 0 1 .556-.1 1.63 1.63 0 0 1 1.516 1.028l51.177 133.813a1.627 1.627 0 0 1 -.926 2.072l-65.438 25.024a1.626 1.626 0 0 1 -2.072-.925l-51.176-133.816a1.576 1.576 0 0 1 .04-1.225zm-126.189 20.2a16.1 16.1 0 0 1 11.721-3.651c30.677 2.071 56.148 6.419 82.587 14.1a8 8 0 0 0 4.893-.139c7.077-2.5 13.28-4.67 18.532-6.492l37.381 97.75a47.847 47.847 0 0 0 -19.545 15.421c-8.635 11.118-16.917 19.332-24.7 24.516l-92.522-87.191a23 23 0 0 0 -34.126 2.875 34.893 34.893 0 0 0 -5.468 10.85 7.977 7.977 0 0 0 -.229.951c-3.277 18.5-11.279 29.69-22.531 31.5a7.993 7.993 0 0 0 -2.211.695 6.386 6.386 0 0 1 -9.123-5.014l.7-49.472a6.544 6.544 0 0 1 2.644-5.382zm-76.282 16.956a7.989 7.989 0 0 0 3.16.759q13.17.412 24.153.758l-12.981 10.314a22.614 22.614 0 0 0 -8.687 17.682l-.705 49.887q-.006.346.02.691a22.386 22.386 0 0 0 30.966 19.037c9.129-1.8 28.322-9.678 34.542-43.779a18.751 18.751 0 0 1 2.805-5.476 7 7 0 0 1 10.386-.875l96.9 91.319c3.674 3.462 4.227 8.686 1.287 12.153a8.473 8.473 0 0 1 -11.875.974l-5.21-4.419-.016.019c-.248-.228-.5-.454-.755-.674l-40.183-34.087a8 8 0 0 0 -10.351 12.2l40.187 34.088a8.425 8.425 0 1 1 -10.9 12.849l-4.877-4.137-.02-.016-.042-.038-38.738-32.861a8 8 0 0 0 -10.35 12.2l38.737 32.86a8.425 8.425 0 1 1 -10.9 12.85l-2.221-1.884-.008-.008-35.638-30.231a8 8 0 0 0 -10.35 12.2l34.147 28.968 1.492 1.265a8.425 8.425 0 0 1 -10.9 12.848l-25.872-21.943a24.632 24.632 0 0 0 .51-6.813 24.371 24.371 0 0 0 -17.833-21.969 24.391 24.391 0 0 0 -18.337-30.931 24.432 24.432 0 0 0 -7.919-22.581l-5.284 6.007 5.283-6.008a24.452 24.452 0 0 0 -25.439-4.23 24.408 24.408 0 0 0 -40.976-6.972l-5.466 6.215a104.021 104.021 0 0 1 -9.994-16.192 8 8 0 0 0 -3.336-3.425q-2.91-1.572-5.824-3.185l37.968-99.286zm-157.757 71.715 51.177-133.816a1.63 1.63 0 0 1 1.516-1.028 1.562 1.562 0 0 1 .556.1l65.438 25.024a1.626 1.626 0 0 1 .925 2.072l-51.172 133.817a1.624 1.624 0 0 1 -2.072.927l-65.437-25.024a1.627 1.627 0 0 1 -.931-2.072zm239.9-249.571a8 8 0 0 1 8 8v79.4a8 8 0 0 1 -16 0v-79.4a8 8 0 0 1 8-8zm128.021 34.261a8 8 0 0 1 2.928 10.928l-39.709 68.778a8 8 0 0 1 -13.856-8l39.708-68.778a8 8 0 0 1 10.929-2.928zm28.443 321.311a8 8 0 0 1 8-13.857l54.346 31.377a8 8 0 1 1 -8 13.857zm-25.515 111.238a8 8 0 1 1 -13.856 8l-31.377-54.346a8 8 0 1 1 13.856-8zm-138.949 37.19v-62.743a8 8 0 0 1 16 0v62.743a8 8 0 0 1 -16 0zm-116.028-25.188a8 8 0 0 1 -6.921-12l31.377-54.347a8 8 0 0 1 13.857 8l-31.377 54.347a8 8 0 0 1 -6.936 4zm-32.436-123.24-54.346 31.377a8 8 0 0 1 -8-13.856l54.346-31.377a8 8 0 1 1 8 13.856zm39.371-318.382 39.709 68.777a8 8 0 1 1 -13.857 8l-39.708-68.777a8 8 0 1 1 13.856-8z" fill="#ca70ba" opacity="1" original-fill="#000000"></path></svg>