<svg fill="none" xmlns="http://www.w3.org/2000/svg" viewBox="0 0 454 171">
  <path fill-rule="evenodd" clip-rule="evenodd" d="M386.398 113.376c2.566 1.328 6.151 2.286 10.315 2.286 8.914 0 13.287-4.338 13.287-9.742-.036-4.771-2.756-7.5705-8.865-9.3967-4.205-1.2659-5.933-2.2004-5.933-4.2469 0-1.9755 1.674-3.2812 4.588-3.2812 3.085 0 5.948 1.1924 7.284 1.9242l1.598-5.6279c-1.917-1.0568-5.23-1.952-8.924-1.952-7.733 0-12.446 4.3289-12.446 9.7836-.035 3.8227 2.758 7.2109 9.271 9.0529 4.096 1.195 5.494 2.183 5.494 4.323 0 1.946-1.551 3.436-5.318 3.436-3.036 0-6.8-1.283-8.708-2.458l-1.643 5.899Zm-28.062-15.5248c0-.6047.136-1.2568.281-1.8649.952-3.8831 4.384-6.3715 8.088-6.3715 5.647 0 8.69 4.5362 8.69 9.7762 0 6.245-3.476 10.103-8.927 10.103-4.04 0-7.163-2.833-7.96-6.055-.118-.651-.172-1.294-.172-1.974v-3.6138Zm-8.142 29.7048h8.142v-16.294h.126c1.811 2.798 5.53 4.4 9.807 4.4 7.678 0 15.413-5.553 15.413-16.7237 0-9.7375-6.775-15.5988-14.148-15.5988-5.392 0-9.389 2.1462-11.919 5.8248h-.126l-.397-5.0652h-7.152c.156 3.001.254 6.4456.254 10.3833v33.0736Zm-15.103-12.654h8.143V84.0991h-8.143v30.8029Zm4.103-43.9138c-2.824 0-4.611 1.9418-4.611 4.3056 0 2.3273 1.733 4.305 4.521 4.305 2.941 0 4.673-1.9777 4.673-4.305-.036-2.3922-1.761-4.3056-4.583-4.3056Zm-19.189 43.9138h8.143V69.5977h-8.143v45.3043Zm-15.084 0h8.142V69.5977h-8.142v45.3043Zm-15.085 0h8.143V84.0991h-8.143v30.8029Zm4.103-43.9138c-2.824 0-4.612 1.9418-4.612 4.3056 0 2.3273 1.734 4.305 4.521 4.305 2.942 0 4.675-1.9777 4.675-4.305-.037-2.3922-1.761-4.3056-4.584-4.3056Zm-41.15 43.9138h8.144V96.8325c0-.8866.052-1.6651.36-2.3626.915-2.2203 3.273-4.5567 6.748-4.5567 4.791 0 6.71 3.5134 6.71 8.3531v16.6357h8.142V97.206c0-10.5842-6.472-13.8665-11.833-13.8665-2.034 0-4.079.5415-5.715 1.4578-1.802.9481-3.23 2.2447-4.287 3.8187h-.125V69.5977h-8.144v45.3043Zm-27.343-36.478c.906-.1805 2.688-.3895 5.231-.3895 5.673 0 9.514 2.2425 9.514 7.1711 0 5.031-3.916 7.8839-10.199 7.8839-1.901 0-3.386-.119-4.546-.4356V78.424Zm-8.07 36.478h8.07V98.9747c1.197.2825 2.745.3816 4.454.3816 6.172 0 11.223-1.5114 14.566-4.657 2.513-2.2948 3.795-5.7451 3.795-9.6936 0-4.1291-1.806-7.4882-4.427-9.5496-2.782-2.259-7.109-3.5812-13.199-3.5812-5.977 0-10.214.4157-13.259.8963v42.1308Zm-22.164-25.7542c6.003 0 8.605 5.3044 8.605 10.2711 0 6.7151-3.879 10.4341-8.715 10.4341-5.068 0-8.722-4.125-8.722-10.2986 0-5.359 2.748-10.4066 8.832-10.4066Zm.253-5.8083c-10.459 0-17.512 6.6779-17.512 16.4416 0 9.7039 7.481 15.8809 16.889 15.8809 8.942 0 17.403-5.584 17.403-16.5404 0-9.0661-6.714-15.7821-16.78-15.7821Zm-21.104 24.5785c-1.697.687-3.914 1.378-7.057 1.378-5.702 0-10.388-3.552-10.388-9.8771-.037-5.6386 3.897-9.8577 10.354-9.8577 3.203 0 5.32.6521 6.769 1.3775l1.498-6.0236c-2.094-.8872-5.322-1.5756-8.554-1.5756-11.723 0-18.425 7.2718-18.425 16.4951 0 9.3704 6.678 15.8274 17.115 15.8274 4.397 0 8.03-.935 9.862-1.783l-1.174-5.961Zm-46.458-18.7702c6.004 0 8.605 5.3044 8.605 10.2711 0 6.7151-3.879 10.4341-8.716 10.4341-5.066 0-8.721-4.125-8.721-10.2986 0-5.359 2.747-10.4066 8.832-10.4066Zm.253-5.8083c-10.46 0-17.513 6.6779-17.513 16.4416 0 9.7039 7.481 15.8809 16.889 15.8809 8.943 0 17.404-5.584 17.404-16.5404 0-9.0661-6.714-15.7821-16.78-15.7821ZM76.9177 114.902h8.1402V97.083c0-.8057.1088-1.7373.3633-2.3603.8866-2.3484 3.2436-4.8374 6.8197-4.8374 4.6928 0 6.638 3.4889 6.638 8.3554v16.6613h8.1401V97.2317c0-10.6099-6.526-13.8922-11.9742-13.8922-5.7491 0-9.3309 3.3512-10.6622 5.7178h-.1988l-.3975-4.9582h-7.1231c.1549 2.6479.2545 5.7349.2545 9.3196v21.4833Zm-20.91-25.7542c6.0031 0 8.6049 5.3044 8.6049 10.2711 0 6.7151-3.8796 10.4341-8.7159 10.4341-5.0669 0-8.7216-4.125-8.7216-10.2986 0-5.359 2.7475-10.4066 8.8326-10.4066Zm.2523-5.8083c-10.4596 0-17.5127 6.6779-17.5127 16.4416 0 9.7039 7.4813 15.8809 16.8891 15.8809 8.9426 0 17.404-5.584 17.404-16.5404 0-9.0661-6.7138-15.7821-16.7804-15.7821ZM36.5959 113.446c-2.0454 1.021-6.7103 2.216-12.6667 2.216C9.13674 115.662 0 106.982 0 94.0564c0-13.2253 10.1708-22.5608 25.0248-22.5608 5.9137 0 10.0963 1.2044 11.9116 2.1519l-1.8387 6.3761c-2.3159-1.0512-5.752-1.9355-9.7392-1.9355-10.0387 0-16.8026 5.8208-16.8026 15.6102 0 8.7027 5.8704 15.2717 16.6557 15.2717 3.6729 0 7.5235-.714 9.9317-1.81l1.4526 6.286Z" fill="#111"/>
  <path fill-rule="evenodd" clip-rule="evenodd" d="M263.571.172528c-1.834-.05125-10.38 2.908152-20.666 11.035272-4.711 3.7219-8.265 6.6995-11.086 9.1424-2.768 2.3951-6.172 3.9298-9.799 4.4183-5.064.6822-18.45 1.8325-33.421-1.271-17.507-3.6285-33.904-11.6246-41.54-16.1346-.458-.27048-1.045-.15147-1.362.27561-.325.43791-.257 1.05177.158 1.40653 2.882 2.46966 13.489 12.04886 19.54 24.15016 4.121 8.2427 4.615 14.6842 4.941 18.9471.364 4.7429.012 8.5832 11.037 4.2156 9.476-3.7549 24.826-12.9287 41.174-26.2548 4.004-3.2635 5.025-4.9844 8.506-5.9535 4.927-1.3713 9.449-3.2949 13.698-5.8181 12.236-7.2638 19.377-15.2064 19.737-17.07931.143-.745968-.387-1.064856-.917-1.079662Z" fill="#E40015"/>
  <path d="M400.261 165.359c-1.188 0-2.256-.216-3.204-.648-.936-.444-1.674-1.074-2.214-1.89-.528-.828-.792-1.83-.792-3.006 0-2.052.738-3.6 2.214-4.644 1.488-1.044 3.858-1.59 7.11-1.638l2.772-.072v-1.26c0-.984-.294-1.752-.882-2.304-.576-.564-1.476-.84-2.7-.828-.9.012-1.728.228-2.484.648-.744.408-1.236 1.098-1.476 2.07h-3.726c.072-1.272.438-2.334 1.098-3.186.672-.864 1.59-1.506 2.754-1.926 1.164-.432 2.508-.648 4.032-.648 1.776 0 3.222.234 4.338.702 1.116.468 1.938 1.146 2.466 2.034.528.876.792 1.938.792 3.186v13.05h-3.69l-.342-3.348c-.672 1.404-1.524 2.376-2.556 2.916-1.02.528-2.19.792-3.51.792Zm1.422-2.97c.54 0 1.074-.096 1.602-.288.528-.204 1.008-.474 1.44-.81.432-.348.774-.732 1.026-1.152.264-.42.396-.858.396-1.314v-2.934l-2.286.036c-1.128.012-2.112.132-2.952.36-.84.228-1.5.594-1.98 1.098-.468.492-.702 1.152-.702 1.98 0 .948.33 1.692.99 2.232.66.528 1.482.792 2.466.792Zm-21.496 2.973c-2.46 0-4.392-.846-5.796-2.538-1.404-1.692-2.106-4.098-2.106-7.218 0-1.944.282-3.63.846-5.058.576-1.44 1.416-2.55 2.52-3.33 1.116-.792 2.496-1.188 4.14-1.188.768 0 1.464.096 2.088.288.636.18 1.2.42 1.692.72s.906.63 1.242.99c.348.36.618.72.81 1.08v-10.854h4.392v26.748h-3.24l-.486-3.816c-.144.444-.36.912-.648 1.404-.276.48-.654.93-1.134 1.35-.468.42-1.056.762-1.764 1.026s-1.56.396-2.556.396Zm.9-3.222c1.572 0 2.718-.51 3.438-1.53.732-1.032 1.098-2.736 1.098-5.112-.012-1.356-.18-2.496-.504-3.42-.312-.924-.798-1.62-1.458-2.088-.648-.468-1.488-.702-2.52-.702-1.32 0-2.406.486-3.258 1.458-.852.972-1.278 2.556-1.278 4.752 0 2.184.39 3.84 1.17 4.968.78 1.116 1.884 1.674 3.312 1.674Zm-22.943 3.219c-1.188 0-2.256-.216-3.204-.648-.936-.444-1.674-1.074-2.214-1.89-.528-.828-.792-1.83-.792-3.006 0-2.052.738-3.6 2.214-4.644 1.488-1.044 3.858-1.59 7.11-1.638l2.772-.072v-1.26c0-.984-.294-1.752-.882-2.304-.576-.564-1.476-.84-2.7-.828-.9.012-1.728.228-2.484.648-.744.408-1.236 1.098-1.476 2.07h-3.726c.072-1.272.438-2.334 1.098-3.186.672-.864 1.59-1.506 2.754-1.926 1.164-.432 2.508-.648 4.032-.648 1.776 0 3.222.234 4.338.702 1.116.468 1.938 1.146 2.466 2.034.528.876.792 1.938.792 3.186v13.05h-3.69l-.342-3.348c-.672 1.404-1.524 2.376-2.556 2.916-1.02.528-2.19.792-3.51.792Zm1.422-2.97c.54 0 1.074-.096 1.602-.288.528-.204 1.008-.474 1.44-.81.432-.348.774-.732 1.026-1.152.264-.42.396-.858.396-1.314v-2.934l-2.286.036c-1.128.012-2.112.132-2.952.36-.84.228-1.5.594-1.98 1.098-.468.492-.702 1.152-.702 1.98 0 .948.33 1.692.99 2.232.66.528 1.482.792 2.466.792ZM331.883 165v-18.612h4.284v2.664c.288-.48.678-.942 1.17-1.386.504-.444 1.122-.804 1.854-1.08s1.59-.414 2.574-.414c1.152 0 2.22.228 3.204.684.996.456 1.794 1.17 2.394 2.142.612.972.918 2.226.918 3.762V165h-4.392v-11.718c0-1.224-.336-2.13-1.008-2.718-.672-.6-1.518-.9-2.538-.9-.696 0-1.356.12-1.98.36-.624.228-1.134.582-1.53 1.062-.384.468-.576 1.056-.576 1.764V165h-4.374Zm-15.224.359c-1.188 0-2.256-.216-3.204-.648-.936-.444-1.674-1.074-2.214-1.89-.528-.828-.792-1.83-.792-3.006 0-2.052.738-3.6 2.214-4.644 1.488-1.044 3.858-1.59 7.11-1.638l2.772-.072v-1.26c0-.984-.294-1.752-.882-2.304-.576-.564-1.476-.84-2.7-.828-.9.012-1.728.228-2.484.648-.744.408-1.236 1.098-1.476 2.07h-3.726c.072-1.272.438-2.334 1.098-3.186.672-.864 1.59-1.506 2.754-1.926 1.164-.432 2.508-.648 4.032-.648 1.776 0 3.222.234 4.338.702 1.116.468 1.938 1.146 2.466 2.034.528.876.792 1.938.792 3.186v13.05h-3.69l-.342-3.348c-.672 1.404-1.524 2.376-2.556 2.916-1.02.528-2.19.792-3.51.792Zm1.422-2.97c.54 0 1.074-.096 1.602-.288.528-.204 1.008-.474 1.44-.81.432-.348.774-.732 1.026-1.152.264-.42.396-.858.396-1.314v-2.934l-2.286.036c-1.128.012-2.112.132-2.952.36-.84.228-1.5.594-1.98 1.098-.468.492-.702 1.152-.702 1.98 0 .948.33 1.692.99 2.232.66.528 1.482.792 2.466.792Zm-20.857-23.776c1.908 0 3.6.39 5.076 1.17 1.476.768 2.664 1.812 3.564 3.132.912 1.32 1.452 2.79 1.62 4.41h-4.626c-.18-.96-.516-1.818-1.008-2.574-.48-.756-1.116-1.356-1.908-1.8-.792-.444-1.74-.666-2.844-.666-1.38 0-2.556.33-3.528.99-.96.648-1.698 1.68-2.214 3.096-.504 1.416-.756 3.252-.756 5.508 0 3.42.564 5.91 1.692 7.47 1.128 1.56 2.73 2.34 4.806 2.34 1.104 0 2.052-.24 2.844-.72.792-.492 1.428-1.14 1.908-1.944.492-.816.828-1.704 1.008-2.664h4.626c-.144 1.176-.444 2.304-.9 3.384-.444 1.08-1.074 2.046-1.89 2.898-.816.84-1.842 1.506-3.078 1.998-1.224.48-2.688.72-4.392.72-2.388 0-4.44-.546-6.156-1.638-1.704-1.104-3.018-2.664-3.942-4.68-.912-2.028-1.368-4.434-1.368-7.218 0-2.772.456-5.142 1.368-7.11.912-1.968 2.22-3.474 3.924-4.518 1.716-1.056 3.774-1.584 6.174-1.584Z" fill="#000"/>
  <path d="M438.514 134.51c0-.166.207-.799.46-1.406.558-1.341 1.298-1.511.991-.229-.858 3.599-.358 6.077 1.325 6.56.567.163 1.031.47 1.031.683 0 .212-.407 1.158-.904 2.102-1.771 3.36-1.592 4.739.614 4.739.701 0 1.677-.209 2.17-.465.71-.368 1.094-.39 1.849-.104.786.298 1.558.217 4.403-.461 1.897-.452 3.493-.78 3.545-.729.052.051-.765.916-1.816 1.921-1.051 1.006-2.001 2.114-2.112 2.464-.111.35-.679 1.057-1.263 1.571-1.243 1.095-1.571 1.907-1.116 2.76.302.565.143.658-1.925 1.126-1.239.281-2.581.511-2.982.511-2.787 0-2.299 2.114 1.411 6.121.605.653 1.008 1.279.896 1.392-.209.209-.434.125-1.818-.678-.436-.253-1.477-.462-2.313-.465-.885-.003-2.039-.27-2.763-.641-.685-.35-1.843-.637-2.575-.637-1.133 0-1.505-.183-2.499-1.231l-1.167-1.231-1.385 2.357c-2.602 4.426-8.505 11.106-9.199 10.41-.229-.23.33-1.007 1.822-2.533 2.447-2.502 6.026-7.558 7.306-9.917l.5-1.182-1.407.264c-1.234.147-1.929.074-2.502-.264-.436-.257-1.007-.553-1.269-.659-.262-.106-1.261-.572-2.221-1.036-.96-.464-2.388-1.005-3.173-1.202l-1.428-.358 1.428-.68c.785-.374 1.733-.684 2.106-.688.904-.009 1.947-.93 2.181-1.925.141-.603-.013-.994-.622-1.567-.445-.42-.809-.928-.809-1.129 0-.202-.5-1.071-1.111-1.933-1.267-1.787-1.47-2.84-.488-2.527.342.109.893.053 1.223-.124.528-.284.583-.615.464-2.803-.12-2.195-.452-3.743-1.199-5.584-.505-1.242.527-.447 1.736 1.34 1.411 2.084 3.643 3.832 4.892 3.832.661 0 .87.224 1.182 1.268.425 1.425 1.323 2.412 1.88 2.067.55-.341 1.257-2.222 1.257-3.345 0-1.464.476-2.16 1.36-1.99.593.114 1.091-.232 2.391-1.659.904-.992 1.643-1.939 1.643-2.106Z" fill="red"/>
</svg>
