<?xml version="1.0" encoding="UTF-8" standalone="no"?>
<!-- Created with Inkscape (http://www.inkscape.org/) -->
<svg
   xmlns:svg="http://www.w3.org/2000/svg"
   xmlns="http://www.w3.org/2000/svg"
   version="1.0"
   width="90"
   height="35"
   id="svg2">
  <defs
     id="defs4" />
  <g
     transform="translate(-451.0755,-539.51141)"
     id="layer1">
    <g
       transform="translate(452.93456,541.37004)"
       id="g2384">
	<path
   d="M 16.003,16.921 L 16.003,8.929 C 16.003,8.009 15.858,7.645 15.641,7.268 L 25.662,7.268 L 25.653,9.032 L 19.31,9.032 L 19.31,11.047 L 25.542,11.047 L 25.542,12.809 L 19.31,12.809 L 19.31,15.156 L 25.841,15.156 L 25.843,16.921 L 16.003,16.921"
   id="path2386"
   style="fill:#e1393e" />

	<path
   d="M 40.108,7.267 L 40.108,16.92 L 35.335,16.92 L 30.56,8.928 L 30.524,8.928 L 30.524,16.92 L 28.443,16.92 L 28.443,9.003 C 28.443,7.918 28.389,7.719 28.009,7.267 L 33.27,7.267 L 37.973,15.138 L 38.027,15.138 L 38.027,7.267 L 40.108,7.267"
   id="path2388"
   style="fill:#e1393e" />

	<path
   d="M 56.741,7.267 L 56.741,16.92 L 53.434,16.92 L 53.434,9.32 L 53.398,9.32 L 50.197,16.92 L 48.083,16.92 L 44.972,9.32 L 44.936,9.32 L 44.936,16.92 L 42.855,16.92 L 42.855,9.003 C 42.855,7.918 42.8,7.719 42.42,7.267 L 47.555,7.267 L 49.762,12.741 L 49.798,12.741 L 52.149,7.267 L 56.741,7.267"
   id="path2390"
   style="fill:#e1393e" />

	<path
   d="M 86.42,3.852 C 81.574,8.863 75.006,16.815 62.213,22.74 C 46.129,30.188 22.969,31.389 11.637,25.712 C -1.465,19.146 -1.692,7.456 12.167,0 C -3.803,7.38 -3.67,20.714 10.322,27.649 C 23.209,34.038 45.786,31.89 62.197,24.291 C 68.465,21.388 73.458,17.779 77.361,14.226 L 79.797,16.92 L 84.115,16.92 L 79.669,12.01 C 82.684,8.957 84.896,6.068 86.42,3.852"
   id="path2392"
   style="fill:#e1393e" />

	<path
   d="M 62.612,12.727 L 64.405,9.55 L 66.031,12.727 L 62.612,12.727 M 70.563,16.921 C 75.195,13.741 79.435,9.848 83.083,5.893 C 82.502,6.285 80.348,7.983 77.816,9.964 L 75.372,7.268 L 70.662,7.268 C 71.295,7.63 71.494,7.753 72.271,8.597 L 75.288,11.933 C 73.735,13.137 72.188,14.322 70.881,15.287 L 66.895,7.268 L 62.611,7.268 L 63.118,7.813 L 57.881,16.921 L 60.195,16.921 L 61.626,14.489 L 66.872,14.489 L 68.106,16.921 L 70.563,16.921 z"
   id="path2394"
   style="fill:#e1393e" />

</g>
  </g>
</svg>
