<svg version="1.1" id="Capa_1" xmlns="http://www.w3.org/2000/svg" xmlns:xlink="http://www.w3.org/1999/xlink" x="0px" y="0px" viewBox="0 0 512 512" style="enable-background:new 0 0 512 512;" xml:space="preserve">
<g>
	<g>
		<g>
			<path d="M504,496h-24V206.988c13.788-3.56,24-16.101,24-30.988v-23.999c0-0.258-0.013-0.516-0.039-0.776
				c-0.002-0.017-0.002-0.035-0.004-0.053c-0.022-0.204-0.056-0.407-0.093-0.611c-0.013-0.071-0.022-0.143-0.037-0.213
				c-0.031-0.144-0.072-0.287-0.111-0.431c-0.033-0.123-0.064-0.247-0.102-0.367c-0.008-0.026-0.013-0.052-0.022-0.078l-48-144
				C454.504,2.2,451.448,0,448,0H64c-3.448,0-6.496,2.2-7.584,5.464l-48,144c-0.002,0.006-0.003,0.013-0.005,0.019
				c-0.077,0.231-0.141,0.467-0.197,0.706c-0.006,0.027-0.015,0.053-0.021,0.08c-0.046,0.206-0.079,0.417-0.108,0.628
				c-0.009,0.061-0.021,0.122-0.028,0.183c-0.019,0.169-0.028,0.341-0.036,0.513c-0.005,0.101-0.014,0.202-0.015,0.302
				C8.005,151.931,8,151.965,8,152v24c0,14.886,10.212,27.427,24,30.988V496H8c-4.416,0-8,3.584-8,8c0,4.416,3.584,8,8,8h304h112h80
				c4.416,0,8-3.584,8-8C512,499.584,508.416,496,504,496z M69.768,16h372.464l37.333,112H32.435L69.768,16z M24,176v-22.696
				L27.101,144h457.797l3.101,9.304V176c0,8.824-7.176,16-16,16c-8.824,0-16-7.176-16-16v-8c0-4.416-3.584-8-8-8
				c-4.416,0-8,3.584-8,8v8c0,8.824-7.176,16-16,16c-8.824,0-16-7.176-16-16v-8c0-4.416-3.584-8-8-8c-4.416,0-8,3.584-8,8v8
				c0,8.824-7.176,16-16,16c-8.824,0-16-7.176-16-16v-8c0-4.416-3.584-8-8-8c-4.416,0-8,3.584-8,8v8c0,8.824-7.176,16-16,16
				c-8.824,0-16-7.176-16-16v-8c0-4.416-3.584-8-8-8c-4.416,0-8,3.584-8,8v8c0,8.824-7.176,16-16,16c-8.824,0-16-7.176-16-16v-8
				c0-4.416-3.584-8-8-8s-8,3.584-8,8v8c0,8.824-7.176,16-16,16c-8.824,0-16-7.176-16-16v-8c0-4.416-3.584-8-8-8s-8,3.584-8,8v8
				c0,8.824-7.176,16-16,16c-8.824,0-16-7.176-16-16v-8c0-4.416-3.584-8-8-8s-8,3.584-8,8v8c0,8.824-7.176,16-16,16
				c-8.824,0-16-7.176-16-16v-8c0-4.416-3.584-8-8-8s-8,3.584-8,8v8c0,8.824-7.176,16-16,16s-16-7.176-16-16v-8c0-4.416-3.584-8-8-8
				s-8,3.584-8,8v8c0,8.824-7.176,16-16,16S24,184.824,24,176z M48,206.988c6.289-1.624,11.829-5.122,16-9.853
				C69.868,203.79,78.448,208,88,208s18.132-4.21,24-10.865C117.868,203.79,126.448,208,136,208s18.132-4.21,24-10.865
				C165.868,203.79,174.448,208,184,208s18.132-4.21,24-10.865C213.868,203.79,222.448,208,232,208s18.132-4.21,24-10.865
				C261.868,203.79,270.448,208,280,208s18.132-4.21,24-10.865C309.868,203.79,318.448,208,328,208s18.132-4.21,24-10.865
				C357.868,203.79,366.448,208,376,208s18.132-4.21,24-10.865C405.868,203.79,414.448,208,424,208s18.132-4.21,24-10.865
				c4.171,4.731,9.711,8.229,16,9.853V496h-32V312c0-4.416-3.584-8-8-8H312c-4.416,0-8,3.584-8,8v184H48V206.988z M320,496V320h96
				v176H320z" fill="#ca70ba" opacity="1" original-fill="#000000"></path>
			<path d="M160,96h-16c-4.416,0-8,3.584-8,8s3.584,8,8,8h16c13.232,0,24-10.768,24-24s-10.768-24-24-24c-4.408,0-8-3.592-8-8
				s3.592-8,8-8h16c4.416,0,8-3.584,8-8s-3.584-8-8-8h-16c-13.232,0-24,10.768-24,24s10.768,24,24,24c4.408,0,8,3.592,8,8
				S164.408,96,160,96z" fill="#ca70ba" opacity="1" original-fill="#000000"></path>
			<path d="M208,112c4.416,0,8-3.584,8-8V80h16v24c0,4.416,3.584,8,8,8s8-3.584,8-8V40c0-4.416-3.584-8-8-8s-8,3.584-8,8v24h-16V40
				c0-4.416-3.584-8-8-8s-8,3.584-8,8v64C200,108.416,203.584,112,208,112z" fill="#ca70ba" opacity="1" original-fill="#000000"></path>
			<path d="M288,112c13.232,0,24-10.768,24-24V56c0-13.232-10.768-24-24-24s-24,10.768-24,24v32C264,101.232,274.768,112,288,112z
				 M280,56c0-4.408,3.592-8,8-8c4.408,0,8,3.592,8,8v32c0,4.408-3.592,8-8,8c-4.408,0-8-3.592-8-8V56z" fill="#ca70ba" opacity="1" original-fill="#000000"></path>
			<path d="M336,112c4.416,0,8-3.584,8-8V80h8c13.232,0,24-10.768,24-24s-10.768-24-24-24h-16c-4.416,0-8,3.584-8,8v64
				C328,108.416,331.584,112,336,112z M344,48h8c4.408,0,8,3.592,8,8s-3.592,8-8,8h-8V48z" fill="#ca70ba" opacity="1" original-fill="#000000"></path>
			<path d="M280,304H88c-4.416,0-8,3.584-8,8v112c0,4.416,3.584,8,8,8h192c4.416,0,8-3.584,8-8V312C288,307.584,284.416,304,280,304
				z M272,416H96v-96h176V416z" fill="#ca70ba" opacity="1" original-fill="#000000"></path>
			<path d="M120,368c2.048,0,4.096-0.784,5.656-2.344l16-16c3.128-3.128,3.128-8.184,0-11.312s-8.184-3.128-11.312,0l-16,16
				c-3.128,3.128-3.128,8.184,0,11.312C115.904,367.216,117.952,368,120,368z" fill="#ca70ba" opacity="1" original-fill="#000000"></path>
			<path d="M130.344,389.656c1.56,1.56,3.608,2.344,5.656,2.344c2.048,0,4.096-0.784,5.656-2.344l32-32
				c3.128-3.128,3.128-8.184,0-11.312s-8.184-3.128-11.312,0l-32,32C127.216,381.472,127.216,386.528,130.344,389.656z" fill="#ca70ba" opacity="1" original-fill="#000000"></path>
			<path d="M386.32,418.32c-1.44,1.52-2.32,3.6-2.32,5.68c0,2.08,0.88,4.16,2.32,5.68c1.52,1.44,3.6,2.32,5.68,2.32
				c2.08,0,4.16-0.88,5.68-2.32c1.44-1.52,2.32-3.6,2.32-5.68c0-2.08-0.88-4.16-2.32-5.68
				C394.72,415.36,389.28,415.36,386.32,418.32z" fill="#ca70ba" opacity="1" original-fill="#000000"></path>
			<path d="M400,80c2.08,0,4.16-0.88,5.68-2.32c1.44-1.52,2.32-3.6,2.32-5.68s-0.88-4.16-2.32-5.68c-2.96-2.96-8.32-2.96-11.36,0
				C392.88,67.84,392,69.84,392,72c0,2.16,0.88,4.16,2.32,5.68C395.84,79.12,397.92,80,400,80z" fill="#ca70ba" opacity="1" original-fill="#000000"></path>
			<path d="M112,80c2.16,0,4.16-0.88,5.68-2.32c1.44-1.52,2.32-3.52,2.32-5.68c0-2.08-0.88-4.16-2.32-5.68
				c-2.96-2.96-8.32-2.96-11.36,0c-1.44,1.52-2.32,3.6-2.32,5.68s0.88,4.16,2.32,5.68C107.84,79.12,109.92,80,112,80z" fill="#ca70ba" opacity="1" original-fill="#000000"></path>
		</g>
	</g>
</g>
<g>
</g>
<g>
</g>
<g>
</g>
<g>
</g>
<g>
</g>
<g>
</g>
<g>
</g>
<g>
</g>
<g>
</g>
<g>
</g>
<g>
</g>
<g>
</g>
<g>
</g>
<g>
</g>
<g>
</g>
</svg>
