<svg version="1.1" id="Capa_1" xmlns="http://www.w3.org/2000/svg" xmlns:xlink="http://www.w3.org/1999/xlink" x="0px" y="0px" viewBox="0 0 512.002 512.002" style="enable-background:new 0 0 512.002 512.002;" xml:space="preserve">
<g>
	<path style="fill:#66E0F7;" d="M314.131,345.676l-0.041,0.013c12.075-8.583,19.96-22.675,19.96-38.618l0,0&#10;&#9;&#9;c0-17.584-9.742-33.721-25.302-41.911l-45.508-23.953c-36.988,0-47.324-9.534-80.053-9.534l-7.709,7.27v196.316&#10;&#9;&#9;c0,25.97,3.111,50.53-17.175,66.744l0,0h215.082c14.042-16.651,22.504-38.162,22.504-61.648&#10;&#9;&#9;C395.888,392.24,360.375,352.419,314.131,345.676z"/>
	<path style="fill:#FADDD6;" d="M303.847,155.14l-7.628-34.221c1.154-9.211,2.259-29.098,2.229-38.628&#10;&#9;&#9;c-0.05-15.854-5.24-30.477-13.959-42.371c-7.406,30.106-31.003,54.38-60.558,64.639c-18.8,6.525-31.175,24.545-31.175,44.446&#10;&#9;&#9;v38.566c0,14.945-6.947,29.114-18.947,38.022c-4.128,3.065-7.661,6.745-10.547,10.847l101.701,5.673l-40.468-43.308&#10;&#9;&#9;c20.797,6.228,44.141-3.181,53.785-23.987c2.346-5.062,1.805-3.775,3.766-9.038l13.12,0.101&#10;&#9;&#9;C300.842,165.927,305.082,160.68,303.847,155.14z"/>
	<path style="fill:#FFDA8F;" d="M284.494,39.897C271.194,21.763,249.653,10,225.477,10h-9.561&#10;&#9;&#9;c-55.119,0-99.802,44.683-99.802,99.802v165.625c0,21.242,17.22,38.461,38.461,38.461v-15.633v-34.426&#10;&#9;&#9;c0-15.007,7.074-29.137,19.09-38.129s19.09-23.121,19.09-38.129v-38.566c0-19.899,12.373-37.92,31.172-44.445&#10;&#9;&#9;C253.491,94.3,277.094,70.015,284.494,39.897L284.494,39.897z"/>
	<path style="fill:#FADDD6;" d="M351.709,375.837l-9.084,9.084c-9.185,9.185-24.076,9.185-33.261,0l0,0&#10;&#9;&#9;c-9.185-9.185-9.185-24.076,0-33.261l9.084-9.084c9.185-9.185,24.076-9.185,33.261,0l0,0&#10;&#9;&#9;C360.894,351.761,360.894,366.652,351.709,375.837z"/>
	<g>
		<path style="fill:#FADDD6;" d="M211.799,260.285v94.38l63.395,90.282l23.193,4.733c12.987,2.65,21.367,15.327,18.716,28.314v0&#10;&#9;&#9;&#9;c-2.65,12.987-15.327,21.367-28.315,18.717l-31.671-6.464c-5.479-1.119-10.397-4.115-13.902-8.474l-83.341-103.613&#10;&#9;&#9;&#9;c-3.43-4.264-5.299-9.57-5.299-15.042V260.285c0-15.802,12.81-28.612,28.612-28.612h0&#10;&#9;&#9;&#9;C198.989,231.673,211.799,244.483,211.799,260.285z"/>
	</g>
	
		<line style="fill:none;stroke:#000000;stroke-width:20;stroke-linecap:round;stroke-linejoin:round;stroke-miterlimit:10;" x1="116.114" y1="109.802" x2="116.114" y2="109.802"/>
	<path style="fill:none;stroke:#000000;stroke-width:20;stroke-linecap:round;stroke-linejoin:round;stroke-miterlimit:10;" d="&#10;&#9;&#9;M175.478,397.56v47.916c0,20.127-5.978,39.801-17.175,56.526l0,0h215.082c14.042-16.651,22.504-38.161,22.504-61.648&#10;&#9;&#9;c0-30.927-14.673-58.427-37.436-75.918"/>
	<path style="fill:none;stroke:#000000;stroke-width:20;stroke-linecap:round;stroke-linejoin:round;stroke-miterlimit:10;" d="&#10;&#9;&#9;M286.689,354.433c26.157,0,47.362-21.205,47.362-47.362v0c0-17.584-9.742-33.721-25.302-41.911l-45.508-23.953&#10;&#9;&#9;c-15.402-8.126-24.143-25.641-27.157-40.506"/>
	<path style="fill:none;stroke:#000000;stroke-width:20;stroke-linecap:round;stroke-linejoin:round;stroke-miterlimit:10;" d="&#10;&#9;&#9;M351.709,375.837l-9.084,9.084c-9.185,9.185-24.076,9.185-33.261,0l0,0c-9.185-9.185-9.185-24.076,0-33.261l9.084-9.084&#10;&#9;&#9;c9.185-9.185,24.076-9.185,33.261,0l0,0C360.894,351.761,360.894,366.652,351.709,375.837z"/>
	<g>
		<path style="fill:none;stroke:#000000;stroke-width:20;stroke-linecap:round;stroke-linejoin:round;stroke-miterlimit:10;" d="&#10;&#9;&#9;&#9;M211.799,260.285v94.38l63.395,90.282l23.193,4.733c12.987,2.65,21.367,15.327,18.716,28.314v0&#10;&#9;&#9;&#9;c-2.65,12.987-15.327,21.367-28.315,18.717l-31.671-6.464c-5.479-1.119-10.397-4.115-13.902-8.474l-83.341-103.613&#10;&#9;&#9;&#9;c-3.43-4.264-5.299-9.57-5.299-15.042V260.285c0-15.802,12.81-28.612,28.612-28.612h0&#10;&#9;&#9;&#9;C198.989,231.673,211.799,244.483,211.799,260.285z"/>
	</g>
	<path style="fill:none;stroke:#000000;stroke-width:20;stroke-linecap:round;stroke-linejoin:round;stroke-miterlimit:10;" d="&#10;&#9;&#9;M215.916,10h9.561c40.035,0,72.844,32.256,72.971,72.292c0.03,9.531-1.075,29.417-2.229,38.628l7.624,34.202&#10;&#9;&#9;c1.237,5.549-3.011,10.806-8.696,10.762l-13.1-0.102c-1.961,5.262-1.42,3.976-3.766,9.038&#10;&#9;&#9;c-9.644,20.806-32.988,30.215-53.785,23.987"/>
	<path style="fill:none;stroke:#000000;stroke-width:20;stroke-linecap:round;stroke-linejoin:round;stroke-miterlimit:10;" d="&#10;&#9;&#9;M116.114,154.802v120.625c0,21.242,17.22,38.461,38.461,38.461h0"/>
	<path style="fill:none;stroke:#000000;stroke-width:20;stroke-linecap:round;stroke-linejoin:round;stroke-miterlimit:10;" d="&#10;&#9;&#9;M215.916,10c-39.385,0-73.442,22.814-89.676,55.948"/>
	<path style="fill:none;stroke:#000000;stroke-width:20;stroke-linecap:round;stroke-linejoin:round;stroke-miterlimit:10;" d="&#10;&#9;&#9;M284.494,39.898c-7.4,30.117-31.003,54.402-60.567,64.662c-18.799,6.524-31.172,24.545-31.172,44.444v38.567&#10;&#9;&#9;c0,15.008-7.074,29.137-19.09,38.129l0,0c-12.016,8.992-19.09,23.121-19.09,38.129v34.426"/>
	<path style="fill:none;stroke:#000000;stroke-width:20;stroke-linecap:round;stroke-linejoin:round;stroke-miterlimit:10;" d="&#10;&#9;&#9;M183.187,231.673c32.729,0,43.065,9.534,80.053,9.534"/>
</g>
<g>
</g>
<g>
</g>
<g>
</g>
<g>
</g>
<g>
</g>
<g>
</g>
<g>
</g>
<g>
</g>
<g>
</g>
<g>
</g>
<g>
</g>
<g>
</g>
<g>
</g>
<g>
</g>
<g>
</g>
</svg>