<svg id="Layer_1" enable-background="new 0 0 66 66" viewBox="0 0 66 66" xmlns="http://www.w3.org/2000/svg"><g><g><path d="m25.58 48.89c-1.25 0-2.42-.49-3.31-1.37l-7.37-7.37c-1.82-1.82-1.82-4.79 0-6.62l18.97-18.97c.88-.88 2.06-1.37 3.31-1.37s2.42.49 3.31 1.37l7.37 7.37c1.82 1.82 1.82 4.79 0 6.62l-18.97 18.97c-.88.88-2.06 1.37-3.31 1.37zm11.6-33.82c-.75 0-1.45.29-1.98.82l-18.97 18.97c-1.09 1.09-1.09 2.88 0 3.97l7.37 7.37c1.06 1.06 2.91 1.06 3.97 0l18.97-18.97c1.09-1.09 1.09-2.88 0-3.97l-7.37-7.37c-.54-.53-1.24-.82-1.99-.82z" fill="#ca70ba" opacity="1" original-fill="#000000"></path></g><g><path d="m47.19 23.53c-.24 0-.48-.09-.66-.27-.37-.37-.37-.96 0-1.32l2.92-2.92c.18-.18.27-.41.27-.66s-.1-.48-.27-.66l-4.71-4.71c-.35-.35-.97-.35-1.32 0l-2.92 2.92c-.37.37-.96.37-1.32 0-.37-.37-.37-.96 0-1.32l2.92-2.92c1.06-1.06 2.91-1.06 3.97 0l4.71 4.71c.53.53.82 1.23.82 1.98s-.29 1.45-.82 1.98l-2.92 2.92c-.19.18-.43.27-.67.27z" fill="#ca70ba" opacity="1" original-fill="#000000"></path></g><g><path d="m47.75 15.61c-.24 0-.48-.09-.66-.27-.37-.37-.37-.96 0-1.32l8.01-8.02c.37-.37.96-.37 1.32 0 .37.37.37.96 0 1.32l-8.01 8.01c-.18.19-.42.28-.66.28z" fill="#ca70ba" opacity="1" original-fill="#000000"></path></g><g><path d="m10.73 48.17c-.24 0-.48-.09-.66-.27-.37-.37-.37-.96 0-1.32l6.29-6.29c.37-.37.96-.37 1.32 0 .37.37.37.96 0 1.32l-6.29 6.29c-.18.18-.42.27-.66.27z" fill="#ca70ba" opacity="1" original-fill="#000000"></path></g><g><path d="m15.19 52.63c-.24 0-.48-.09-.66-.27-.37-.37-.37-.96 0-1.32l6.29-6.29c.37-.37.96-.37 1.32 0 .37.37.37.96 0 1.32l-6.29 6.29c-.18.18-.42.27-.66.27z" fill="#ca70ba" opacity="1" original-fill="#000000"></path></g><g><path d="m14.69 60.27c-.75 0-1.45-.29-1.99-.82l-9.73-9.73c-.53-.53-.82-1.24-.82-1.98 0-.75.29-1.46.82-1.99l1.81-1.81c1.09-1.09 2.87-1.1 3.97 0l9.73 9.73c.53.53.82 1.23.82 1.98s-.29 1.45-.82 1.98l-1.81 1.81c-.53.54-1.23.83-1.98.83zm-7.91-15.28c-.24 0-.48.09-.66.27l-1.82 1.81c-.18.18-.27.41-.27.66s.1.48.27.66l9.73 9.73c.35.35.97.35 1.32 0l1.81-1.81c.18-.18.27-.41.27-.66s-.1-.49-.27-.66l-9.73-9.73c-.18-.18-.42-.27-.65-.27z" fill="#ca70ba" opacity="1" original-fill="#000000"></path></g><g><path d="m35.1 23.64c-.24 0-.48-.09-.66-.27l-4.02-4.02c-.37-.37-.37-.96 0-1.32.37-.37.96-.37 1.32 0l4.02 4.02c.37.37.37.96 0 1.32-.18.18-.42.27-.66.27z" fill="#ca70ba" opacity="1" original-fill="#000000"></path></g><g><path d="m29.07 25.65c-.24 0-.48-.09-.66-.27l-2.01-2.01c-.37-.37-.37-.96 0-1.32.37-.37.96-.37 1.32 0l2.01 2.01c.37.37.37.96 0 1.32-.18.18-.42.27-.66.27z" fill="#ca70ba" opacity="1" original-fill="#000000"></path></g><g><path d="m27.06 31.68c-.24 0-.48-.09-.66-.27l-4.02-4.02c-.37-.37-.37-.96 0-1.32.37-.37.96-.37 1.32 0l4.02 4.02c.37.37.37.96 0 1.32-.18.18-.42.27-.66.27z" fill="#ca70ba" opacity="1" original-fill="#000000"></path></g><g><path d="m21.03 33.69c-.24 0-.48-.09-.66-.27l-2.01-2.01c-.37-.37-.37-.96 0-1.32.36-.37.96-.37 1.32 0l2.01 2.01c.37.37.37.96 0 1.32-.18.18-.42.27-.66.27z" fill="#ca70ba" opacity="1" original-fill="#000000"></path></g><g><path d="m59.33 20.26c-2.49 0-4.51-2.02-4.51-4.51 0-2.28 3.24-5.31 3.88-5.9.36-.32.9-.32 1.25 0 .65.59 3.89 3.62 3.89 5.9.01 2.49-2.02 4.51-4.51 4.51zm0-8.42c-1.25 1.25-2.64 3-2.64 3.91 0 1.46 1.18 2.64 2.64 2.64s2.64-1.18 2.64-2.64c0-.9-1.4-2.67-2.64-3.91z" fill="#ca70ba" opacity="1" original-fill="#000000"></path></g><g><path d="m54.02 35.17c-2.49 0-4.51-2.02-4.51-4.51 0-2.28 3.24-5.31 3.88-5.9.36-.32.9-.32 1.25 0 .65.59 3.88 3.62 3.88 5.9.02 2.48-2.01 4.51-4.5 4.51zm0-8.43c-1.25 1.25-2.64 3-2.64 3.91 0 1.46 1.18 2.64 2.64 2.64s2.64-1.18 2.64-2.64c0-.9-1.41-2.66-2.64-3.91z" fill="#ca70ba" opacity="1" original-fill="#000000"></path></g><g><path d="m59.33 49.41c-2.49 0-4.51-2.02-4.51-4.51 0-2.28 3.24-5.31 3.88-5.9.36-.32.9-.32 1.25 0 .65.59 3.89 3.62 3.89 5.9.01 2.48-2.02 4.51-4.51 4.51zm0-8.42c-1.25 1.25-2.64 3-2.64 3.91 0 1.46 1.18 2.64 2.64 2.64s2.64-1.18 2.64-2.64c0-.91-1.4-2.67-2.64-3.91z" fill="#ca70ba" opacity="1" original-fill="#000000"></path></g></g></svg>