<svg viewBox="0 0 64 64" xmlns="http://www.w3.org/2000/svg"><g id="Checkbox-2" fill="#222" data-name="Checkbox"><path d="m39.75 52.5h-22a9.5108 9.5108 0 0 1 -9.5-9.5v-22a9.5108 9.5108 0 0 1 9.5-9.5h24.4658a1.5 1.5 0 0 1 0 3h-24.4658a6.5075 6.5075 0 0 0 -6.5 6.5v22a6.5075 6.5075 0 0 0 6.5 6.5h22a6.5075 6.5075 0 0 0 6.5-6.5v-11a1.5 1.5 0 0 1 3 0v11a9.5108 9.5108 0 0 1 -9.5 9.5z" fill="#18e122" opacity="1" original-fill="#ca70ba"></path><path d="m29.25 40a1.5021 1.5021 0 0 1 -1.2959-.7441l-7-12a1.5 1.5 0 0 1 2.5918-1.5118l6.04 10.3545 23.625-22.6806a1.5 1.5 0 0 1 2.0782 2.164l-25 24a1.5023 1.5023 0 0 1 -1.0391.418z" fill="#18e122" opacity="1" original-fill="#ca70ba"></path></g></svg>