<svg id="Слой_1" enable-background="new 0 0 512 512" viewBox="0 0 512 512" xmlns="http://www.w3.org/2000/svg"><g><g><g fill="#f9ae0e"><path d="m48.1 197.3 14 28.4 31.3 4.5-22.7 22.1 5.4 31.2-28-14.7-28.1 14.7 5.4-31.2-22.7-22.1 31.4-4.5z" fill="#ffc107" opacity="1" original-fill="#f9ae0e"></path><path d="m152.2 197.3 14 28.4 31.4 4.5-22.7 22.1 5.3 31.2-28-14.7-28 14.7 5.3-31.2-22.6-22.1 31.3-4.5z" fill="#ffc107" opacity="1" original-fill="#f9ae0e"></path><path d="m256.4 197.3 14 28.4 31.3 4.5-22.7 22.1 5.4 31.2-28-14.7-28.1 14.7 5.4-31.2-22.7-22.1 31.3-4.5z" fill="#ffc107" opacity="1" original-fill="#f9ae0e"></path><path d="m360.5 197.3 14 28.4 31.4 4.5-22.7 22.1 5.3 31.2-28-14.7-28 14.7 5.3-31.2-22.6-22.1 31.3-4.5z" fill="#ffc107" opacity="1" original-fill="#f9ae0e"></path><path d="m464.7 197.3 14 28.4 31.3 4.5-22.7 22.1 5.4 31.2-28-14.7-28.1 14.7 5.4-31.2-22.7-22.1 31.3-4.5z" fill="#ffc107" opacity="1" original-fill="#f9ae0e"></path></g></g></g></svg>