<svg id="Layer_1" enable-background="new 0 0 66 66" viewBox="0 0 66 66" xmlns="http://www.w3.org/2000/svg"><g><path d="m61.71 58.44h-1.16v-.48c0-.26-.21-.48-.48-.48-.26 0-.48.21-.48.48v.48h-2.05c5.52-14.01 4.53-28.71-2.68-39.45-5.7-8.5-14.49-13.42-24.17-13.58v-1.97c0-.26-.21-.48-.48-.48s-.48.21-.48.48v1.96h-1.68c-.26 0-.48.21-.48.48s.21.48.48.48h1.68v5.1h-5.92c-1.35 0-2.68.55-3.65 1.51-.97.99-1.51 2.28-1.51 3.65 0 .26.21.48.48.48h6.92c.24 2.09 2.01 3.71 4.16 3.71s3.92-1.63 4.16-3.71h6.92c.26 0 .48-.21.48-.48 0-2.84-2.32-5.16-5.17-5.16h-5.9v-5.1c9.36.16 17.86 4.93 23.38 13.16 7.1 10.57 8.01 25.1 2.45 38.92h-1.64c.1-.26.16-.53.16-.82v-21.06c0-1.26-1.02-2.28-2.28-2.28h-5.15v-.89c0-1.01-.82-1.83-1.83-1.83h-5.79c-1.01 0-1.83.82-1.83 1.83v.89h-4.39v-.89c0-1.01-.82-1.83-1.83-1.83h-20.7c-1.01 0-1.83.82-1.83 1.83v.89h-5.15c-1.26 0-2.28 1.02-2.28 2.28v21.06c0 1.26 1.02 2.28 2.28 2.28h1.46v1.3c0 .32.09.62.23.88h-3.5c-.26 0-.48.21-.48.48 0 .26.21.48.48.48h61.06c.26 0 .48-.21.48-.48v-1.82c.01-1.27-1.02-2.3-2.29-2.3zm-31.49-38.59c-1.62 0-2.97-1.2-3.2-2.75h6.39c-.23 1.55-1.57 2.75-3.19 2.75zm10.58-3.71h-21.15c.11-.93.52-1.81 1.2-2.5.79-.78 1.87-1.23 2.98-1.23h12.78c2.16 0 3.95 1.63 4.19 3.73zm-1.68 17.24c0-.48.39-.88.88-.88h5.79c.48 0 .88.39.88.88v.89h-7.55zm-28.74 0c0-.48.39-.88.88-.88h20.69c.48 0 .88.39.88.88v.89h-22.45zm-7.43 24.24v-21.06c0-.73.6-1.33 1.33-1.33h48.49c.73 0 1.33.6 1.33 1.33v21.06c0 .73-.6 1.33-1.33 1.33h-48.5c-.73-.01-1.32-.6-1.32-1.33zm47.41 2.28v1.3c0 .48-.39.88-.88.88h-41.92c-.48 0-.88-.39-.88-.88v-1.3zm12.69 2.18h-11.97c.14-.26.23-.56.23-.88v-1.3h1.46c.54 0 1.02-.19 1.41-.5h7.54c.74 0 1.34.6 1.34 1.34v1.34z" fill="#ca70ba" opacity="1" original-fill="#000000"></path><path d="m24.92 22.6.89-.89c.19-.19.19-.49 0-.67-.19-.19-.49-.19-.67 0l-.89.89c-.19.19-.19.49 0 .67.09.09.22.14.34.14s.24-.05.33-.14z" fill="#ca70ba" opacity="1" original-fill="#000000"></path><path d="m30.7 24.59v-1.26c0-.26-.21-.48-.48-.48s-.48.21-.48.48v1.26c0 .26.21.48.48.48s.48-.21.48-.48z" fill="#ca70ba" opacity="1" original-fill="#000000"></path><path d="m35.86 22.74c.12 0 .24-.05.34-.14.19-.19.19-.49 0-.67l-.89-.89c-.19-.19-.49-.19-.67 0-.19.19-.19.49 0 .67l.89.89c.08.09.21.14.33.14z" fill="#ca70ba" opacity="1" original-fill="#000000"></path><path d="m50.96 56.29c.26 0 .48-.21.48-.48v-17.45c0-.26-.21-.48-.48-.48h-44.88c-.26 0-.48.21-.48.48v17.45c0 .26.21.48.48.48zm-44.4-17.45h43.93v16.5h-43.93z" fill="#ca70ba" opacity="1" original-fill="#000000"></path><path d="m47.14 41.21h-8.5c-.26 0-.48.21-.48.48 0 .26.21.48.48.48h8.5c.26 0 .48-.21.48-.48s-.22-.48-.48-.48z" fill="#ca70ba" opacity="1" original-fill="#000000"></path><path d="m33.77 41.69c0-.26-.21-.48-.48-.48h-23.39c-.26 0-.48.21-.48.48 0 .26.21.48.48.48h23.4c.26-.01.47-.22.47-.48z" fill="#ca70ba" opacity="1" original-fill="#000000"></path><path d="m17.18 45.48h-3.03c-.26 0-.48.21-.48.48s.21.48.48.48h2.55v2.3h-2.55c-.26 0-.48.21-.48.48v3.26c0 .26.21.48.48.48h3.03c.26 0 .48-.21.48-.48s-.22-.48-.48-.48h-2.55v-2.3h2.55c.26 0 .48-.21.48-.48v-3.26c-.01-.26-.22-.48-.48-.48z" fill="#ca70ba" opacity="1" original-fill="#000000"></path><path d="m24.03 45.48h-3.51c-.26 0-.48.21-.48.48v6.51c0 .26.21.48.48.48h3.51c.26 0 .48-.21.48-.48v-6.51c0-.26-.22-.48-.48-.48zm-.48 6.52h-2.56v-5.56h2.56z" fill="#ca70ba" opacity="1" original-fill="#000000"></path><path d="m35.98 45.48h-3.51c-.26 0-.48.21-.48.48v6.51c0 .26.21.48.48.48h3.51c.26 0 .48-.21.48-.48v-6.51c0-.26-.21-.48-.48-.48zm-.47 6.52h-2.56v-5.56h2.56z" fill="#ca70ba" opacity="1" original-fill="#000000"></path><path d="m42.89 45.48h-3.51c-.26 0-.48.21-.48.48v6.51c0 .26.21.48.48.48h3.51c.26 0 .48-.21.48-.48v-6.51c0-.26-.22-.48-.48-.48zm-.48 6.52h-2.56v-5.56h2.56z" fill="#ca70ba" opacity="1" original-fill="#000000"></path><path d="m28.33 46.87c-.26 0-.48.21-.48.48v.96c0 .26.21.48.48.48s.48-.21.48-.48v-.96c0-.26-.22-.48-.48-.48z" fill="#ca70ba" opacity="1" original-fill="#000000"></path><path d="m28.33 49.65c-.26 0-.48.21-.48.48v.96c0 .26.21.48.48.48s.48-.21.48-.48v-.96c0-.27-.22-.48-.48-.48z" fill="#ca70ba" opacity="1" original-fill="#000000"></path><path d="m2.34 27.31c.04.01.09.02.13.02.21 0 .4-.14.46-.35.91-3.24 4.28-5.14 7.52-4.23.25.07.52-.08.59-.33s-.08-.52-.33-.59c-3.75-1.05-7.65 1.15-8.69 4.89-.08.26.07.52.32.59z" fill="#ca70ba" opacity="1" original-fill="#000000"></path><path d="m10.45 24.49c.07-.25-.08-.52-.33-.59-2.6-.73-5.31.8-6.04 3.4-.07.25.08.52.33.59.04.01.09.02.13.02.21 0 .4-.14.46-.35.59-2.1 2.77-3.32 4.87-2.74.25.08.51-.07.58-.33z" fill="#ca70ba" opacity="1" original-fill="#000000"></path><path d="m9.87 26.57c.07-.25-.08-.52-.33-.59-1.46-.41-2.98.45-3.39 1.91-.07.25.08.52.33.59.04.01.09.02.13.02.21 0 .4-.14.46-.35.27-.95 1.26-1.51 2.21-1.25.26.07.52-.08.59-.33z" fill="#ca70ba" opacity="1" original-fill="#000000"></path><path d="m9.12 28.02c-.21-.06-.43-.03-.62.08-.4.22-.54.71-.31 1.11.11.19.28.33.49.39.07.02.15.03.22.03.14 0 .28-.04.4-.11.19-.11.33-.28.39-.49s.03-.43-.08-.62c-.1-.2-.28-.33-.49-.39z" fill="#ca70ba" opacity="1" original-fill="#000000"></path></g></svg>