<svg enable-background="new 0 0 512 512" height="512" viewBox="0 0 512 512" width="512" xmlns="http://www.w3.org/2000/svg" xmlns:xlink="http://www.w3.org/1999/xlink"><linearGradient id="SVGID_1_" gradientUnits="userSpaceOnUse" x1="256" x2="256" y1="505.713" y2="6.287"><stop offset="0" stop-color="#f9403e"/><stop offset="1" stop-color="#f77953"/></linearGradient><linearGradient id="SVGID_2_" gradientUnits="userSpaceOnUse" x1="256" x2="256" y1="453.249" y2="58.751"><stop offset=".0168" stop-color="#ccc"/><stop offset="1" stop-color="#f2f2f2"/></linearGradient><linearGradient id="lg1"><stop offset="0" stop-color="#41262f"/><stop offset="1" stop-color="#543843"/></linearGradient><linearGradient id="SVGID_3_" gradientUnits="userSpaceOnUse" x1="255.999" x2="255.999" xlink:href="#lg1" y1="104.388" y2="82.523"/><linearGradient id="SVGID_4_" gradientUnits="userSpaceOnUse" x1="255.999" x2="255.999" xlink:href="#lg1" y1="429.478" y2="407.613"/><linearGradient id="SVGID_5_" gradientUnits="userSpaceOnUse" x1="418.544" x2="418.544" xlink:href="#lg1" y1="261.311" y2="250.686"/><linearGradient id="SVGID_6_" gradientUnits="userSpaceOnUse" x1="93.454" x2="93.454" xlink:href="#lg1" y1="261.311" y2="250.686"/><linearGradient id="SVGID_7_" gradientUnits="userSpaceOnUse" x1="370.939" x2="370.939" xlink:href="#lg1" y1="150.348" y2="131.778"/><linearGradient id="SVGID_8_" gradientUnits="userSpaceOnUse" x1="141.065" x2="141.065" xlink:href="#lg1" y1="380.223" y2="361.65"/><linearGradient id="SVGID_9_" gradientUnits="userSpaceOnUse" x1="370.939" x2="370.939" xlink:href="#lg1" y1="380.223" y2="361.65"/><linearGradient id="SVGID_10_" gradientUnits="userSpaceOnUse" x1="141.065" x2="141.065" xlink:href="#lg1" y1="150.348" y2="131.778"/><linearGradient id="SVGID_11_" gradientUnits="userSpaceOnUse" x1="214.093" x2="214.093" xlink:href="#lg1" y1="324.512" y2="271.252"/><linearGradient id="SVGID_12_" gradientUnits="userSpaceOnUse" x1="255.999" x2="255.999" xlink:href="#lg1" y1="232.23" y2="131.78"/><linearGradient id="SVGID_13_" gradientUnits="userSpaceOnUse" x1="350.875" x2="350.875" xlink:href="#lg1" y1="317.439" y2="260.922"/><linearGradient id="SVGID_14_" gradientUnits="userSpaceOnUse" x1="284.03" x2="284.03" xlink:href="#lg1" y1="367.242" y2="324.929"/><linearGradient id="SVGID_15_" gradientUnits="userSpaceOnUse" x1="227.971" x2="227.971" xlink:href="#lg1" y1="398.923" y2="324.929"/><linearGradient id="SVGID_16_" gradientUnits="userSpaceOnUse" x1="299.874" x2="299.874" xlink:href="#lg1" y1="398.923" y2="356.612"/><linearGradient id="SVGID_17_" gradientUnits="userSpaceOnUse" x1="256" x2="256" y1="285.095" y2="226.905"><stop offset="0" stop-color="#0969db"/><stop offset="1" stop-color="#4f8aff"/></linearGradient><g id="_x32_6_Availabilty"><g><path d="m505.688 256.025c0 137.869-111.768 249.688-249.687 249.688-137.92 0-249.688-111.819-249.688-249.688 0-137.92 111.769-249.738 249.688-249.738 137.919 0 249.687 111.818 249.687 249.738z" fill="url(#SVGID_1_)"/><path d="m453.229 256.02c0 108.903-88.286 197.229-197.228 197.229-108.943 0-197.229-88.326-197.229-197.229 0-108.943 88.286-197.268 197.229-197.268 108.942-.001 197.228 88.325 197.228 197.268z" fill="url(#SVGID_2_)"/><g><g><path d="m255.999 104.388c-2.936 0-5.313-2.379-5.313-5.313v-11.24c0-2.934 2.376-5.313 5.313-5.313s5.313 2.379 5.313 5.313v11.24c0 2.934-2.376 5.313-5.313 5.313z" fill="url(#SVGID_3_)"/></g><g><path d="m255.999 429.477c-2.936 0-5.313-2.379-5.313-5.313v-11.24c0-2.934 2.376-5.313 5.313-5.313s5.313 2.379 5.313 5.313v11.24c0 2.935-2.376 5.313-5.313 5.313z" fill="url(#SVGID_4_)"/></g></g><g><g><path d="m424.163 261.311h-11.237c-2.936 0-5.313-2.379-5.313-5.313s2.376-5.313 5.313-5.313h11.237c2.936 0 5.313 2.379 5.313 5.313-.001 2.935-2.377 5.313-5.313 5.313z" fill="url(#SVGID_5_)"/></g><g><path d="m99.073 261.311h-11.237c-2.936 0-5.313-2.379-5.313-5.313s2.376-5.313 5.313-5.313h11.237c2.936 0 5.313 2.379 5.313 5.313 0 2.935-2.377 5.313-5.313 5.313z" fill="url(#SVGID_6_)"/></g></g><g><g><path d="m363.209 148.792c-2.075-2.075-2.075-5.44 0-7.512l7.948-7.945c2.075-2.075 5.437-2.075 7.512 0s2.075 5.44 0 7.512l-7.948 7.945c-2.075 2.075-5.437 2.075-7.512 0z" fill="url(#SVGID_7_)"/></g><g><path d="m133.335 378.666c-2.075-2.075-2.075-5.437 0-7.512l7.948-7.948c2.075-2.075 5.437-2.075 7.512 0s2.075 5.437 0 7.512l-7.948 7.948c-2.075 2.075-5.437 2.076-7.512 0z" fill="url(#SVGID_8_)"/></g></g><g><g><path d="m371.157 378.666-7.948-7.948c-2.075-2.075-2.075-5.437 0-7.512s5.437-2.075 7.512 0l7.948 7.948c2.075 2.075 2.075 5.437 0 7.512s-5.437 2.076-7.512 0z" fill="url(#SVGID_9_)"/></g><g><path d="m141.283 148.792-7.948-7.945c-2.075-2.073-2.075-5.437 0-7.512s5.437-2.075 7.512 0l7.948 7.945c2.075 2.073 2.075 5.437 0 7.512s-5.437 2.075-7.512 0z" fill="url(#SVGID_10_)"/></g></g><g><path d="m189.022 322.955c-2.075-2.075-2.075-5.437 0-7.512l42.63-42.635c2.075-2.075 5.437-2.075 7.512 0s2.075 5.437 0 7.512l-42.63 42.635c-2.075 2.075-5.436 2.075-7.512 0z" fill="url(#SVGID_11_)"/></g><g><path d="m255.999 232.23c-2.936 0-5.313-2.379-5.313-5.313v-89.825c0-2.934 2.376-5.313 5.313-5.313s5.313 2.379 5.313 5.313v89.825c0 2.934-2.376 5.313-5.313 5.313z" fill="url(#SVGID_12_)"/></g><g><path d="m416.837 317.158-135.339-45.896c-2.776-.944-4.265-3.961-3.326-6.739.944-2.776 3.964-4.249 6.739-3.326l135.339 45.896c2.776.944 4.265 3.961 3.326 6.739-.931 2.74-3.905 4.275-6.739 3.326z" fill="url(#SVGID_13_)"/></g><g><g><path d="m299.874 367.242h-31.688c-2.936 0-5.313-2.379-5.313-5.313v-31.688c0-2.934 2.376-5.313 5.313-5.313s5.313 2.379 5.313 5.313v26.376h21.063v-26.376c0-2.934 2.376-5.313 5.313-5.313s5.313 2.379 5.313 5.313v31.688c-.001 2.935-2.377 5.313-5.314 5.313z" fill="url(#SVGID_14_)"/></g><g><path d="m243.813 398.923h-31.683c-2.936 0-5.313-2.379-5.313-5.313v-31.686c0-1.409.56-2.76 1.556-3.756s2.345-1.556 3.756-1.556l26.371.005v-21.063h-26.37c-2.936 0-5.313-2.379-5.313-5.313s2.376-5.313 5.313-5.313h31.683c2.936 0 5.313 2.379 5.313 5.313v31.688c0 2.934-2.376 5.313-5.313 5.313h-26.371v21.055h26.371c2.936 0 5.313 2.379 5.313 5.313s-2.377 5.313-5.313 5.313z" fill="url(#SVGID_15_)"/></g><g><path d="m299.874 398.923c-2.936 0-5.313-2.379-5.313-5.313v-31.686c0-2.934 2.376-5.313 5.313-5.313s5.313 2.379 5.313 5.313v31.686c0 2.934-2.376 5.313-5.313 5.313z" fill="url(#SVGID_16_)"/></g></g><path d="m285.092 256.003c0 16.064-13.022 29.092-29.092 29.092-16.069 0-29.092-13.028-29.092-29.092 0-16.069 13.022-29.098 29.092-29.098 16.069 0 29.092 13.028 29.092 29.098z" fill="url(#SVGID_17_)"/></g></g></svg>