<svg height="512" viewBox="0 0 64 64" width="512" xmlns="http://www.w3.org/2000/svg"><g id="_30-sawasdee" data-name="30-sawasdee"><path d="m44 48.75a7.369 7.369 0 0 1 -1.25 4.12l-.29.44-3.46-2.31-.05-.12.05-.02a38.455 38.455 0 0 1 4.99-2.47c.01.12.01.24.01.36z" fill="#ff9191"/><path d="m40.55 59.06-.55 1.94v2h-13c0-2.2 2.9-5.55 6.83-8.63a3.292 3.292 0 0 0 1.92.63h1.25z" fill="#ff9191"/><path d="m46.18 63h-6.18v-2l.55-1.94 2.01 2.3a4.843 4.843 0 0 0 3.62 1.64z" fill="#f4700c"/><path d="m48.3 37.87 8.7 25.13h-10.82a4.814 4.814 0 0 0 4.82-4.82v-.84a5.185 5.185 0 0 0 -.05-.68l-1.38-9.65-1.22-8.56a4.878 4.878 0 0 0 -.12-.55z" fill="#f4700c"/><path d="m28.25 55c2.07 0 3.75-1.96 3.75-4.37a4.5 4.5 0 0 0 1.83 3.74c-3.93 3.08-6.83 6.43-6.83 8.63h-3v-2l-.55-1.94 3.55-4.06z" fill="#ffb844"/><path d="m43.99 48.39a38.455 38.455 0 0 0 -4.99 2.47l-.05.02-3.24-7.39c-.42-1.49-1.37-2.49-2.71-2.49a1.177 1.177 0 0 0 -1 1 1.177 1.177 0 0 0 -1-1c-1.34 0-2.29 1-2.71 2.49l-3.29 7.51-3.46 2.31-.29-.44a7.294 7.294 0 0 1 -1.24-3.96.86.86 0 0 1 -.01-.16 7.531 7.531 0 0 1 .58-2.89c.06-.14.13-.29.2-.43l1.22-2.43 17-10 6.65 2.22a4 4 0 0 1 2.58 2.68 4.878 4.878 0 0 1 .12.55l1.22 8.56a18.013 18.013 0 0 0 -5.58 1.38z" fill="#ffb844"/><path d="m32 1a5 5 0 0 1 4.98 4.58 7.8 7.8 0 0 0 -2.98-.58h-4a7.8 7.8 0 0 0 -2.98.58 5 5 0 0 1 4.98-4.58z" fill="#333940"/><path d="m42 13v4l-.09.19a2.243 2.243 0 0 0 -.91-.19h-1v-2c-4 0-7-2-8-4-1 2-4 4-8 4v2h-1a2.243 2.243 0 0 0 -.91.19l-.09-.19v-4a7.98 7.98 0 0 1 5.02-7.42 7.8 7.8 0 0 1 2.98-.58h4a7.8 7.8 0 0 1 2.98.58 7.98 7.98 0 0 1 5.02 7.42z" fill="#555a66"/><g fill="#ffe2c2"><path d="m43 18.71v.86a3.27 3.27 0 0 1 -1.6 2.74l-1.4.69h-.35a8.936 8.936 0 0 0 .35-2.5v-3.5h1a2.243 2.243 0 0 1 .91.19 1.7 1.7 0 0 1 1.09 1.52z"/><path d="m24 20.5a8.936 8.936 0 0 0 .35 2.5h-.35l-1.4-.69a3.27 3.27 0 0 1 -1.6-2.74v-.86a1.7 1.7 0 0 1 1.09-1.52 2.243 2.243 0 0 1 .91-.19h1z"/><path d="m21.54 53.31 3.46-2.31 3.29-7.51c.42-1.49 1.37-2.49 2.71-2.49a1.177 1.177 0 0 1 1 1v8.63c0 2.41-1.68 4.37-3.75 4.37h-1.25l-3.55 4.06-2.01 2.3a4.817 4.817 0 0 1 -8.44-3.18v-.84a5.185 5.185 0 0 1 .05-.68l1.81-12.68.14.02 5.58 1.86a7.531 7.531 0 0 0 -.58 2.89.86.86 0 0 0 .01.16 7.294 7.294 0 0 0 1.24 3.96z"/><path d="m50.95 56.66a5.185 5.185 0 0 1 .05.68v.84a4.819 4.819 0 0 1 -8.44 3.18l-2.01-2.3-3.55-4.06h-1.25a3.292 3.292 0 0 1 -1.92-.63 4.5 4.5 0 0 1 -1.83-3.74v-8.63a1.177 1.177 0 0 1 1-1c1.34 0 2.29 1 2.71 2.49l3.24 7.39.05.12 3.46 2.31.29-.44a7.369 7.369 0 0 0 1.25-4.12c0-.12 0-.24-.01-.36a18.013 18.013 0 0 1 5.58-1.38z"/><path d="m39 33-17 10-1.22 2.43c-.07.14-.14.29-.2.43l-5.58-1.86-.14-.02.79-5.53a4 4 0 0 1 2.7-3.23l9.65-3.22v-4l.06-.11a7.548 7.548 0 0 0 7.88 0l.06.11v4z"/><path d="m40 17v3.5a8.936 8.936 0 0 1 -.35 2.5 8.783 8.783 0 0 1 -1.99 3.51 7.843 7.843 0 0 1 -1.72 1.38 7.548 7.548 0 0 1 -7.88 0 8.418 8.418 0 0 1 -3.71-4.89 8.936 8.936 0 0 1 -.35-2.5v-5.5c4 0 7-2 8-4 1 2 4 4 8 4z"/></g><path d="m20 48.75a7.531 7.531 0 0 1 .58-2.89l-5.58-1.86-.14-.02-.415 2.908 5.565 2.022a.86.86 0 0 1 -.01-.16z" fill="#ff9191"/><path d="m23 13.96a1 1 0 0 1 .939-1c2.143-.14 7.273-.809 8.061-3.96v-4h-2a7.8 7.8 0 0 0 -2.98.58 7.98 7.98 0 0 0 -5.02 7.42v1.992a1.036 1.036 0 0 0 1-1.032z" fill="#414952"/><path d="m40.95 50.88.05-.02c.982-.574 1.974-1.095 2.96-1.568.013-.181.04-.36.04-.542 0-.12 0-.24-.01-.36a38.455 38.455 0 0 0 -4.99 2.47l-.05.02.05.12 3.46 2.31.29-.44c.11-.163.194-.339.289-.509l-2.039-1.361z" fill="#ff7170"/><path d="m34 5a7.929 7.929 0 0 1 2.189.308 4.955 4.955 0 0 0 -8.378 0 7.929 7.929 0 0 1 2.189-.308z" fill="#191b1f"/><path d="m22 19.57v-.86a1.878 1.878 0 0 1 2-1.71h-1a1.878 1.878 0 0 0 -2 1.71v.86a3.27 3.27 0 0 0 1.6 2.74l1.4.69h.13c-.028-.149-.043-.3-.061-.459l-.469-.231a3.27 3.27 0 0 1 -1.6-2.74z" fill="#ffefde"/><path d="m41 17h-1a1.878 1.878 0 0 1 2 1.71v.86a3.27 3.27 0 0 1 -1.6 2.74l-.464.229c-.017.154-.031.311-.056.461h.12l1.4-.69a3.27 3.27 0 0 0 1.6-2.74v-.86a1.878 1.878 0 0 0 -2-1.71z" fill="#ffefde"/><path d="m38 16.807v3.693a8.936 8.936 0 0 1 -.35 2.5 8.783 8.783 0 0 1 -1.99 3.51 7.843 7.843 0 0 1 -1.72 1.38 7.505 7.505 0 0 1 -2.94 1.04 7.474 7.474 0 0 0 4.94-1.04 7.843 7.843 0 0 0 1.72-1.38 8.783 8.783 0 0 0 1.99-3.51 8.936 8.936 0 0 0 .35-2.5v-3.5a11.334 11.334 0 0 1 -2-.193z" fill="#ffefde"/><path d="m32 11c-1 2-4 4-8 4v5.5a8.936 8.936 0 0 0 .35 2.5 8.783 8.783 0 0 0 1.99 3.51 7.843 7.843 0 0 0 1.72 1.38 7.474 7.474 0 0 0 4.94 1.04 7.505 7.505 0 0 1 -2.94-1.04 7.843 7.843 0 0 1 -1.72-1.38 8.783 8.783 0 0 1 -1.99-3.51 8.936 8.936 0 0 1 -.35-2.5v-3.693c2.981-.529 5.176-2.159 6-3.807 1 2 4 4 8 4v-2c-4 0-7-2-8-4z" fill="#ffd7ab"/><path d="m20.073 49.635-1.073 5.365 2.54-1.69-.29-.44a7.3 7.3 0 0 1 -1.177-3.235z" fill="#ffc88c"/><path d="m42.75 52.87-.29.44 2.54 1.69-1.067-5.335a7.342 7.342 0 0 1 -1.183 3.205z" fill="#ffc88c"/><path d="m23.939 12.962a1 1 0 0 0 -.939 1 1.036 1.036 0 0 1 -1 1.032v2.006l.09.19a2.243 2.243 0 0 1 .91-.19h1v-2c4 0 7-2 8-4v-2c-.788 3.151-5.918 3.82-8.061 3.962z" fill="#333940"/><path d="m40.061 12.962a1 1 0 0 1 .939 1 1.036 1.036 0 0 0 1 1.032v2.006l-.09.19a2.243 2.243 0 0 0 -.91-.19h-1v-2c-4 0-7-2-8-4v-2c.788 3.151 5.918 3.82 8.061 3.962z" fill="#333940"/><path d="m37.593 52.381 12.745 8.193a4.9 4.9 0 0 0 .6-1.809l-2.938-1.765-3-2-2.54-1.69-3.46-2.31-.05-.12-3.24-7.39a3.039 3.039 0 0 0 -2.366-2.457l3.433 10.3a2 2 0 0 0 .816 1.048z" fill="#ffefde"/><path d="m27.231 51.366 3.769-10.366c-1.34 0-2.29 1-2.71 2.49l-3.29 7.51-3.46 2.31-2.54 1.69-3 2-2.86 2.288a4.957 4.957 0 0 0 .509 1.3l12.783-8.218a2 2 0 0 0 .799-1.004z" fill="#ffefde"/><path d="m36.75 54a3.292 3.292 0 0 1 -1.92-.63 4.5 4.5 0 0 1 -1.83-3.74v-8.63a1.177 1.177 0 0 0 -1 1v8.63a4.5 4.5 0 0 0 1.83 3.74 3.292 3.292 0 0 0 1.92.63h1.25l1-1z" fill="#ffd7ab"/><path d="m27.25 54a3.292 3.292 0 0 0 1.92-.63 4.5 4.5 0 0 0 1.83-3.74v-8.63a1.177 1.177 0 0 1 1 1v8.63a4.5 4.5 0 0 1 -1.83 3.74 3.292 3.292 0 0 1 -1.92.63h-1.25l-1-1z" fill="#ffc88c"/><path d="m37 55h-1.25a3.292 3.292 0 0 1 -1.92-.63c-.316.248-.623.5-.924.748-3.451 2.864-5.906 5.859-5.906 7.882h3c0-1.3 1.756-4.12 4.784-6.886l1.276.51a4 4 0 0 1 1.588 1.153l2.437 2.923.465-1.642z" fill="#ff7170"/><path d="m40.55 59.06-.465 1.64 1.915 2.3h4.18a4.843 4.843 0 0 1 -3.62-1.64z" fill="#d96117"/><path d="m49.57 47.01-1.22-8.56a4.878 4.878 0 0 0 -.12-.55 4 4 0 0 0 -2.58-2.68l-6.65-2.22-2.041 1.2a1.974 1.974 0 0 0 .466.227l6.188 1.856a4 4 0 0 1 2.8 3.174l1.3 7.807c.282-.056.562-.108.834-.146.353-.052.694-.092 1.023-.108z" fill="#ffdf64"/><path d="m14.445 46.888-1.395 9.772a5.185 5.185 0 0 0 -.05.68v.84a4.793 4.793 0 0 0 .987 2.9l2.256-13.535z" fill="#ffefde"/><path d="m16.737 44.579.853-5.121a4 4 0 0 1 2.8-3.174l6.188-1.856a2 2 0 0 0 1.422-1.916v-.512l-9.65 3.22a4 4 0 0 0 -2.7 3.23l-.79 5.53.14.02z" fill="#ffefde"/><path d="m36.959 34.2 2.041-1.2-3-1v.512a1.986 1.986 0 0 0 .959 1.688z" fill="#ffefde"/><path d="m16.737 44.579-1.737-.579-.14-.02-.415 2.908 1.798.654z" fill="#ffc09e"/><path d="m50.95 56.66-1.38-9.65c-.329.016-.676.061-1.025.109-.273.041-.552.092-.834.149l1.771 10.621 1.459.876a4.712 4.712 0 0 0 .059-.585v-.84a5.185 5.185 0 0 0 -.05-.68z" fill="#ffefde"/><ellipse cx="42.684" cy="38.695" fill="#f6fafd" rx="1.642" ry="2.286" transform="matrix(.707 -.707 .707 .707 -14.858 41.535)"/><ellipse cx="38.682" cy="9.708" fill="#f6fafd" rx=".825" ry="1.148" transform="matrix(.707 -.707 .707 .707 4.472 30.207)"/><ellipse cx="37.427" cy="7.208" fill="#f6fafd" rx=".413" ry=".574" transform="matrix(.707 -.707 .707 .707 5.873 28.587)"/><path d="m50.707 47.879 1.193 3.444 1.891-.654-4.5-12.993-.082.028a4.966 4.966 0 0 0 -3.24-3.434l-8.969-2.991v-2.885a9.48 9.48 0 0 0 3.391-4.484c.015-.007.033 0 .048-.012l1.4-.685a1.014 1.014 0 0 0 .1-.058 4.3 4.3 0 0 0 2.061-3.584v-.857a2.6 2.6 0 0 0 -1-2.008v-3.706a9.024 9.024 0 0 0 -1.975-5.626l-1.56 1.252a6.922 6.922 0 0 1 1.535 4.374v2a1 1 0 0 0 -1-1c-3.533 0-6.249-1.734-7.1-3.447a1.042 1.042 0 0 0 -1.79 0c-.861 1.713-3.577 3.447-7.11 3.447a1 1 0 0 0 -1 1v-2a7.009 7.009 0 0 1 7-7h4a7 7 0 0 1 4.629 1.748l1.322-1.5a9 9 0 0 0 -2.059-1.362 6 6 0 0 0 -11.786.014 9 9 0 0 0 -5.106 8.1v3.706a2.6 2.6 0 0 0 -1 2.008v.857a4.3 4.3 0 0 0 2.059 3.584 1.014 1.014 0 0 0 .1.058l1.4.685c.015.008.033 0 .048.012a9.48 9.48 0 0 0 3.393 4.484v2.885l-8.971 2.991a4.975 4.975 0 0 0 -3.369 4.036l-1.65 11.552 1.98.284.281-1.968 3.793 1.444a8.348 8.348 0 0 0 1.117 3.393l-4.736 3.157 1.11 1.664 9-6a1 1 0 0 0 .361-.431l3.284-7.509a.945.945 0 0 0 .045-.126c.185-.643.643-1.709 1.668-1.764a.441.441 0 0 1 .087.078v8.545c0 1.861-1.233 3.375-2.75 3.375h-1.25a1 1 0 0 0 -.753.342l-5.561 6.358a3.815 3.815 0 0 1 -6.686-2.515v-.843a3.875 3.875 0 0 1 .039-.539l.665-4.661-1.98-.284-.665 4.662a5.8 5.8 0 0 0 -.059.822v.843a5.815 5.815 0 0 0 10.191 3.829l.8-.912.009.038v1.86a1 1 0 0 0 1 1h16a1 1 0 0 0 1-1v-1.86l.011-.038.8.912a5.815 5.815 0 0 0 10.189-3.829v-.843a5.8 5.8 0 0 0 -.059-.822zm-18.707-45.879a3.987 3.987 0 0 1 3.516 2.133 9 9 0 0 0 -1.516-.133h-4a9.051 9.051 0 0 0 -1.519.138 3.988 3.988 0 0 1 3.519-2.138zm10 17.571a2.283 2.283 0 0 1 -1.043 1.829c.026-.3.043-.6.043-.9v-2.5c.542 0 1 .327 1 .714zm-20 0v-.857c0-.387.458-.714 1-.714v2.5c0 .3.017.6.043.9a2.283 2.283 0 0 1 -1.043-1.829zm3 .929v-4.539a10.447 10.447 0 0 0 7-3.215 10.447 10.447 0 0 0 7 3.215v4.539a7.271 7.271 0 0 1 -7 7.5 7.271 7.271 0 0 1 -7-7.5zm-9.315 24.782 3.638 1.218a8.545 8.545 0 0 0 -.216 1l-3.546-1.351zm11.662-2.134-3.147 7.182-2.355 1.57a6.348 6.348 0 0 1 -.166-6.021l1.083-2.168 8.245-4.85-1.014-1.724-8.5 5a1 1 0 0 0 -.388.415l-1.04 2.082-4.093-1.364.669-4.681a2.983 2.983 0 0 1 2.021-2.423l9.654-3.218a1 1 0 0 0 .684-.948v-2.554a8.4 8.4 0 0 0 6 0v2.554a1 1 0 0 0 .684.948l.913.3-1.5.885 1.013 1.724 3.01-1.77 6.222 2.074a2.983 2.983 0 0 1 2.021 2.423l1.075 7.524a28.131 28.131 0 0 0 -9.01 3.362l-2.771-6.327c-.591-1.968-1.957-3.143-3.657-3.143a1.865 1.865 0 0 0 -1 .322 1.865 1.865 0 0 0 -1-.322c-1.7 0-3.066 1.175-3.653 3.148zm13.46 7.852c.7-.376 1.387-.716 2.061-1.026a6.371 6.371 0 0 1 -.713 1.925zm-15.845 9.726-.405-1.416 2.9-3.31h.8a4.567 4.567 0 0 0 3.743-2.115c.1.146.2.292.31.426-2.21 1.832-5.476 4.928-6.167 7.689h-1.143v-1a1.007 1.007 0 0 0 -.038-.274zm14.076 0a1.007 1.007 0 0 0 -.038.274v1h-10.763c.611-1.506 2.437-3.8 5.679-6.419a4.248 4.248 0 0 0 1.834.419h.8l2.9 3.31zm10.962-2.541a3.815 3.815 0 0 1 -6.686 2.515l-5.561-6.355a1 1 0 0 0 -.753-.345h-1.25c-1.517 0-2.75-1.514-2.75-3.375v-8.545a.441.441 0 0 1 .083-.08c1.025.055 1.483 1.121 1.668 1.764a.945.945 0 0 0 .045.126l3.288 7.51a1 1 0 0 0 .361.431l9 6 1.11-1.664-4.736-3.157a8.357 8.357 0 0 0 1.156-3.91 18.08 18.08 0 0 1 3.743-.995l1.243 8.7a3.875 3.875 0 0 1 .039.539z"/><path d="m32.064 35.5h1.972v2h-1.972z" transform="matrix(.862 -.507 .507 .862 -13.938 21.78)"/><path d="m54.269 52.707h2.001v10.584h-2.001z" transform="matrix(.945 -.327 .327 .945 -15.929 21.265)"/></g></svg>