<?xml version="1.0" encoding="UTF-8"?>
<svg xmlns="http://www.w3.org/2000/svg" xmlns:xlink="http://www.w3.org/1999/xlink" version="1.1" id="Capa_1" x="0px" y="0px" viewBox="0 0 512 512" style="enable-background:new 0 0 512 512;" xml:space="preserve" width="512" height="512">
<g>
	<g>
		<path style="fill:#E83826;" d="M151.575,497.309l-15.898-28.393c-8.507-15.192-25.577-23.478-42.775-20.763l-32.142,5.074&#10;&#9;&#9;&#9;c-11.221,1.771-19.801-9.807-14.84-20.026l89.323-184.022l130.571,63.378L176.49,496.58&#10;&#9;&#9;&#9;C171.529,506.799,157.125,507.221,151.575,497.309z"/>
		<path style="fill:#F85647;" d="M360.425,497.309l15.898-28.393c8.507-15.192,25.577-23.478,42.775-20.763l32.142,5.074&#10;&#9;&#9;&#9;c11.221,1.771,19.801-9.807,14.84-20.026L376.758,249.18l-130.571,63.378L335.51,496.58&#10;&#9;&#9;&#9;C340.471,506.799,354.875,507.221,360.425,497.309z"/>
		<g>
			<path style="fill:#F8AD3E;" d="M345.462,7.5H166.538c-9.843,0-18.938,5.251-23.859,13.775L53.216,176.228&#10;&#9;&#9;&#9;&#9;c-4.921,8.524-4.921,19.026,0,27.55l89.462,154.953c4.921,8.524,14.016,13.775,23.859,13.775h178.924&#10;&#9;&#9;&#9;&#9;c9.843,0,18.938-5.251,23.859-13.775l89.462-154.953c4.921-8.524,4.921-19.026,0-27.55L369.321,21.275&#10;&#9;&#9;&#9;&#9;C364.4,12.751,355.305,7.5,345.462,7.5z"/>
			<path style="fill:#ED8D00;" d="M232.365,353.529l-79.143-137.079c-9.449-16.366-9.449-36.529,0-52.894l79.143-137.079&#10;&#9;&#9;&#9;&#9;c4.596-7.96,11.091-14.428,18.721-18.977h-84.548c-9.843,0-18.938,5.251-23.859,13.775L53.216,176.228&#10;&#9;&#9;&#9;&#9;c-4.921,8.524-4.921,19.026,0,27.55l89.462,154.953c4.921,8.524,14.016,13.775,23.859,13.775h84.548&#10;&#9;&#9;&#9;&#9;C243.456,367.957,236.961,361.489,232.365,353.529z"/>
		</g>
		<g>
			<path style="fill:#FBF198;" d="M162.263,324.81L92.385,203.779c-4.921-8.524-4.921-19.026,0-27.55l69.878-121.032&#10;&#9;&#9;&#9;&#9;c4.921-8.524,14.016-13.775,23.859-13.775h139.755c9.843,0,18.938,5.251,23.859,13.775l69.877,121.032&#10;&#9;&#9;&#9;&#9;c4.921,8.524,4.921,19.026,0,27.55L349.737,324.81c-4.921,8.524-14.016,13.775-23.859,13.775H186.122&#10;&#9;&#9;&#9;&#9;C176.279,338.585,167.184,333.334,162.263,324.81z"/>
			<path style="fill:#F9D171;" d="M153.223,216.451c-9.449-16.366-9.449-36.529,0-52.894l70.515-122.135h-37.615&#10;&#9;&#9;&#9;&#9;c-9.843,0-18.938,5.251-23.859,13.775L92.386,176.228c-4.921,8.524-4.921,19.026,0,27.55l69.878,121.031&#10;&#9;&#9;&#9;&#9;c4.921,8.524,14.016,13.775,23.859,13.775h37.615L153.223,216.451z"/>
		</g>
		<path style="fill:#6DC847;" d="M238.12,229.777c-19.011,3.901-41.759-6.103-55.804-24.791c-1.978-2.632-3.837-5.407-5.549-8.314&#10;&#9;&#9;&#9;c-9.656-16.078-14.738-36.247-12.452-56.447c0.673-5.944,4.837-10.109,10.781-10.781c20.201-2.287,40.37,2.795,56.448,12.45&#10;&#9;&#9;&#9;c2.907,1.712,5.682,3.571,8.314,5.549c18.689,14.045,28.694,36.793,24.793,55.804v0&#10;&#9;&#9;&#9;C261.812,217.075,251.949,226.938,238.12,229.777L238.12,229.777z"/>
		<path style="fill:#9CDA82;" d="M273.88,229.777c19.011,3.901,41.759-6.103,55.804-24.791c1.978-2.632,3.837-5.407,5.549-8.314&#10;&#9;&#9;&#9;c9.656-16.078,14.738-36.247,12.452-56.447c-0.673-5.944-4.837-10.109-10.781-10.781c-20.201-2.287-40.37,2.795-56.448,12.45&#10;&#9;&#9;&#9;c-2.907,1.712-5.682,3.571-8.314,5.549c-18.689,14.045-28.694,36.793-24.793,55.804l0,0&#10;&#9;&#9;&#9;C250.187,217.075,260.05,226.938,273.88,229.777L273.88,229.777z"/>
	</g>
	<g>
		<path style="fill:none;stroke:#000000;stroke-width:15;stroke-linecap:round;stroke-linejoin:round;stroke-miterlimit:10;" d="&#10;&#9;&#9;&#9;M106.062,84.705L53.22,176.23c-4.93,8.52-4.93,19.02,0,27.55l56.53,97.91l32.93,57.04c4.92,8.53,14.02,13.78,23.86,13.78h178.92&#10;&#9;&#9;&#9;c9.84,0,18.94-5.25,23.86-13.78l32.93-57.04l56.53-97.91c4.93-8.53,4.93-19.03,0-27.55L369.32,21.28&#10;&#9;&#9;&#9;C364.4,12.75,355.3,7.5,345.46,7.5H166.54c-9.84,0-18.94,5.25-23.86,13.78l-18.597,32.211 M367.337,294.328L349.74,324.81&#10;&#9;&#9;&#9;c-4.92,8.52-14.02,13.78-23.86,13.78H186.12c-9.84,0-18.94-5.26-23.86-13.78l-34.62-59.97l-35.25-61.06&#10;&#9;&#9;&#9;c-4.93-8.53-4.93-19.03,0-27.55L162.26,55.2c4.92-8.53,14.02-13.78,23.86-13.78h139.76c9.84,0,18.94,5.25,23.86,13.78&#10;&#9;&#9;&#9;l69.87,121.03c4.93,8.52,4.93,19.02,0,27.55l-34.682,60.076 M186.12,338.59c-9.84,0-18.94-5.26-23.86-13.78l-34.62-59.97&#10;&#9;&#9;&#9;l-35.25-61.06c-4.93-8.53-4.93-19.03,0-27.55L162.26,55.2c4.92-8.53,14.02-13.78,23.86-13.78h139.76&#10;&#9;&#9;&#9;c9.84,0,18.94,5.25,23.86,13.78l69.87,121.03c4.93,8.52,4.93,19.02,0,27.55l-35.25,61.06"/>
		<path style="fill:none;stroke:#000000;stroke-width:15;stroke-linecap:round;stroke-linejoin:round;stroke-miterlimit:10;" d="&#10;&#9;&#9;&#9;M256.49,220.64c-0.17-0.17-0.33-0.34-0.49-0.51c-0.16,0.17-0.32,0.34-0.49,0.51c-4.55,4.54-10.47,7.72-17.39,9.14&#10;&#9;&#9;&#9;c-19.01,3.9-41.76-6.11-55.8-24.79c-1.98-2.64-3.84-5.41-5.55-8.32c-9.66-16.08-14.74-36.25-12.46-56.45&#10;&#9;&#9;&#9;c0.68-5.94,4.84-10.11,10.79-10.78c20.2-2.28,40.36,2.8,56.44,12.45c2.91,1.71,5.69,3.57,8.32,5.55&#10;&#9;&#9;&#9;c6.51,4.89,11.96,10.83,16.14,17.3"/>
		<path style="fill:none;stroke:#000000;stroke-width:15;stroke-linecap:round;stroke-linejoin:round;stroke-miterlimit:10;" d="&#10;&#9;&#9;&#9;M335.23,196.67c-1.71,2.91-3.57,5.68-5.55,8.32c-14.04,18.68-36.79,28.69-55.8,24.79c-6.92-1.42-12.84-4.6-17.39-9.14&#10;&#9;&#9;&#9;c-0.17-0.17-0.33-0.34-0.49-0.51c-4.29-4.48-7.28-10.22-8.65-16.88c-2.54-12.4,0.82-26.38,8.65-38.51&#10;&#9;&#9;&#9;c4.18-6.47,9.63-12.41,16.14-17.3c2.63-1.98,5.41-3.84,8.32-5.55c16.07-9.65,36.24-14.73,56.44-12.45&#10;&#9;&#9;&#9;c5.95,0.67,10.11,4.84,10.79,10.78C349.97,160.42,344.89,180.59,335.23,196.67z"/>
		
			<line style="fill:none;stroke:#000000;stroke-width:15;stroke-linecap:round;stroke-linejoin:round;stroke-miterlimit:10;" x1="192.005" y1="264.277" x2="192.005" y2="276.574"/>
		
			<line style="fill:none;stroke:#000000;stroke-width:15;stroke-linecap:round;stroke-linejoin:round;stroke-miterlimit:10;" x1="319.995" y1="264.277" x2="319.995" y2="276.574"/>
		<path style="fill:none;stroke:#000000;stroke-width:15;stroke-linecap:round;stroke-linejoin:round;stroke-miterlimit:10;" d="&#10;&#9;&#9;&#9;M239.128,276.208c4.102,4.707,10.137,7.686,16.872,7.686c6.735,0,12.77-2.979,16.872-7.686"/>
		<path style="fill:none;stroke:#000000;stroke-width:15;stroke-linecap:round;stroke-linejoin:round;stroke-miterlimit:10;" d="&#10;&#9;&#9;&#9;M109.75,301.69L45.92,433.2c-4.96,10.22,3.62,21.8,14.84,20.03l32.14-5.08c17.2-2.71,34.27,5.57,42.78,20.77l15.89,28.39&#10;&#9;&#9;&#9;c5.55,9.91,19.96,9.49,24.92-0.73l60.22-124.07"/>
		<path style="fill:none;stroke:#000000;stroke-width:15;stroke-linecap:round;stroke-linejoin:round;stroke-miterlimit:10;" d="&#10;&#9;&#9;&#9;M402.25,301.69l63.83,131.51c4.96,10.22-3.62,21.8-14.84,20.03l-32.14-5.08c-17.2-2.71-34.27,5.57-42.78,20.77l-15.89,28.39&#10;&#9;&#9;&#9;c-5.55,9.91-19.96,9.49-24.92-0.73l-60.22-124.07"/>
	</g>
</g>















</svg>
