<svg id="Layer_1" enable-background="new 0 0 512 512" viewBox="0 0 512 512" xmlns="http://www.w3.org/2000/svg"><g clip-rule="evenodd" fill-rule="evenodd"><path d="m486.4 356.619c0 137.951-460.8 137.951-460.8 0 0-137.743 460.8-137.743 460.8 0z" fill="#007608" opacity="1" original-fill="#181821"></path><path d="m87.44 283.611c88.313-40.33 249.014-40.33 337.12 0 4.964 6.618 7.653 14.064 7.653 22.13 0 93.07-352.219 93.07-352.219 0 0-8.066 2.689-15.512 7.446-22.13z" fill="#0d7c45" opacity="1" original-fill="#2a2a38"></path><path d="m87.44 283.611c88.313-40.33 249.014-40.33 337.12 0 .827 1.035 1.448 2.068 2.068 3.102-55.015 58.324-240.948 69.079-344.152 32.264-1.655-4.136-2.482-8.687-2.482-13.236 0-8.066 2.689-15.512 7.446-22.13z" fill="#0d0d11" opacity="1" original-fill="#0d0d11"></path><path d="m434.281 230.457c0 120.785-404.131 120.785-404.131 0 0-120.783 404.131-120.783 404.131 0z" fill="#007608" opacity="1" original-fill="#181821"></path><path d="m84.337 166.343c77.351-35.367 218.404-35.367 295.756 0 4.136 5.791 6.618 12.41 6.618 19.441 0 81.695-308.993 81.695-308.993 0 .001-7.032 2.483-13.651 6.619-19.441z" fill="#0d7c45" opacity="1" original-fill="#2a2a38"></path><path d="m89.922 164.067c78.386-32.885 214.681-32.264 290.172 2.275 2.068 3.102 3.722 6.205 4.964 9.514-77.145 33.299-237.847 29.369-295.136-11.789z" fill="#0d0d11" opacity="1" original-fill="#0d0d11"></path><path d="m400.983 120.635c0 91.415-305.891 91.415-305.891 0 0-91.622 305.891-91.622 305.891 0z" fill="#007608" opacity="1" original-fill="#181821"></path><path d="m136.25 72.032c58.531-26.681 165.251-26.681 223.782 0 3.309 4.343 4.964 9.307 4.964 14.684 0 61.84-233.71 61.84-233.71 0 0-5.378 1.655-10.341 4.964-14.684z" fill="#0d7c45" opacity="1" original-fill="#2a2a38"></path></g></svg>