<svg enable-background="new 0 0 520 520" height="512" viewBox="0 0 520 520" width="512" xmlns="http://www.w3.org/2000/svg"><g id="_x35_7_x2C__Ok_x2C__Report_x2C__Good_x2C__Reload_x2C__Refresh"><g><g><path d="m44.986 439.999c8.28 0 15 6.72 15 15 0 8.29-6.72 15-15 15s-15-6.71-15-15c0-8.28 6.721-15 15-15z" fill="#956e8e" opacity="1" original-fill="#3c3b3d"></path><path d="m469.986 49.999c11.05 0 20 8.96 20 20 0 11.05-8.95 20-20 20s-20-8.95-20-20c0-11.04 8.951-20 20-20z" fill="#956e8e" opacity="1" original-fill="#3c3b3d"></path><path d="m348.517 231.649c5.029 13.53 7.489 28.31 6.75 43.76-2.681 55.66-47.391 101.01-103.01 104.38-65.09 3.95-118.9-48.74-116.8-113.45 1.9-58.64 50.47-105.92 109.14-106.34 30.21-.21 57.6 11.77 77.6 31.29l.01.01-70.07 70.061-16.67-16.67c-9.2-9.21-24.13-9.21-33.33 0-4.61 4.6-6.91 10.63-6.91 16.67 0 6.029 2.3 12.06 6.91 16.659l16.66 16.671 33.34 33.34 33.331-33.34z" fill="#956e8e" opacity="1" original-fill="#3c3b3d"></path><path d="m379.916 166.909c9.21 9.2 9.21 24.13 0 33.33l-31.399 31.41-63.05 63.041-33.331 33.34-33.34-33.34-16.66-16.671c-4.61-4.6-6.91-10.63-6.91-16.659 0-6.041 2.3-12.07 6.91-16.67 9.2-9.21 24.13-9.21 33.33 0l16.67 16.67 70.07-70.061 24.38-24.39c4.601-4.61 10.631-6.91 16.66-6.91 6.04 0 12.07 2.3 16.67 6.91z" fill="#ca70ba" opacity="1" original-fill="#80af52"></path><g fill="#d7deed"><path d="m459.986 459.999h20v20h-20z" fill="#ffffff" opacity="1" original-fill="#d7deed"></path><path d="m459.986 429.999h20v20h-20z" fill="#ffffff" opacity="1" original-fill="#d7deed"></path><path d="m429.986 459.999h20v20h-20z" fill="#ffffff" opacity="1" original-fill="#d7deed"></path><path d="m399.986 459.999h20v20h-20z" fill="#ffffff" opacity="1" original-fill="#d7deed"></path><path d="m99.986 39.999h20v20h-20z" fill="#ffffff" opacity="1" original-fill="#d7deed"></path><path d="m69.986 39.999h20v20h-20z" fill="#ffffff" opacity="1" original-fill="#d7deed"></path><path d="m39.986 69.999h20v20h-20z" fill="#ffffff" opacity="1" original-fill="#d7deed"></path><path d="m39.986 39.999h20v20h-20z" fill="#ffffff" opacity="1" original-fill="#d7deed"></path></g><path d="m43.764 340.002c-4.223 0-8.147-2.695-9.514-6.93-13.221-40.944-15.084-84.769-5.388-126.737 9.972-43.164 31.879-82.618 63.353-114.097 38.437-38.432 89.324-62.662 143.291-68.229 50.497-5.209 101.707 6 145.118 31.621l19.652-19.653c2.544-2.542 6.254-3.525 9.724-2.57 3.468.954 6.156 3.696 7.041 7.183l25.83 101.81c.87 3.431-.138 7.066-2.65 9.558-2.513 2.493-6.154 3.474-9.58 2.574l-101.12-26.52c-3.389-.889-6.066-3.487-7.056-6.848s-.147-6.996 2.219-9.58l17.252-18.833c-70.877-34.762-157.074-20.905-213.597 35.619-3.905 3.905-10.236 3.906-14.143 0-3.905-3.905-3.905-10.237 0-14.142 65.895-65.893 168.214-79.418 248.82-32.889 2.626 1.516 4.423 4.141 4.885 7.138.461 2.997-.462 6.041-2.51 8.277l-14.764 16.117 68.688 18.014-17.335-68.327-12.792 12.792c-3.317 3.317-8.494 3.884-12.45 1.359-85.145-54.323-198.856-41.843-270.38 29.672-57.949 57.958-78.286 142.466-53.075 220.545 1.697 5.256-1.188 10.893-6.443 12.59-1.022.329-2.058.486-3.076.486z" fill="#ca70ba" opacity="1" original-fill="#4e679b"></path><path d="m260.233 497.238c-42.431.001-84.406-11.36-120.884-32.891l-19.643 19.643c-2.543 2.543-6.257 3.524-9.724 2.57-3.468-.954-6.156-3.697-7.04-7.184l-25.81-101.78c-.87-3.431.138-7.065 2.651-9.558 2.512-2.492 6.157-3.469 9.578-2.573l101.09 26.5c3.465.908 6.18 3.601 7.117 7.059s-.048 7.152-2.581 9.686l-18.007 18.007c71.136 35.485 157.714 21.884 214.654-35.059 3.906-3.904 10.236-3.904 14.143 0 3.905 3.905 3.905 10.237 0 14.143-66.485 66.485-169.455 79.614-250.407 31.925-2.666-1.57-4.454-4.286-4.844-7.354-.391-3.068.662-6.146 2.849-8.333l15.146-15.146-67.835-17.783 17.319 68.299 12.781-12.78c3.317-3.317 8.495-3.881 12.45-1.359 85.167 54.341 198.879 41.882 270.38-29.621 57.968-57.968 78.316-142.487 53.104-220.576-1.696-5.255 1.188-10.892 6.444-12.588 5.255-1.7 10.892 1.188 12.589 6.444 13.221 40.949 15.081 84.778 5.38 126.752-9.977 43.168-31.892 82.628-63.375 114.111-38.423 38.423-89.304 62.645-143.27 68.204-8.077.83-16.175 1.242-24.255 1.242z" fill="#ca70ba" opacity="1" original-fill="#3b4d74"></path></g></g></g></svg>