<svg version="1.1" id="svg3141" xml:space="preserve" width="682.66669" height="682.66669" viewBox="0 0 682.66669 682.66669" xmlns="http://www.w3.org/2000/svg" xmlns:svg="http://www.w3.org/2000/svg"><defs id="defs3145"><clipPath clipPathUnits="userSpaceOnUse" id="clipPath3155"><path d="M 0,512 H 512 V 0 H 0 Z" id="path3153" fill="#ca70ba" opacity="1" original-fill="#000000"></path></clipPath></defs><g id="g3147" transform="matrix(1.3333333,0,0,-1.3333333,0,682.66667)"><g id="g3149"><g id="g3151" clip-path="url(#clipPath3155)"><g id="g3157" transform="translate(179.9307,256.4102)"><path d="m 0,0 c -2.87,-47.72 -1.689,-95.439 3.53,-143.148 0.37,-3.32 1.22,-6.51 2.491,-9.45 4.799,-11.22 15.579,-19.19 28.259,-20.07 45.509,-3.2 91.019,-4.67 136.529,-4.44 6.139,0.04 11.92,-2.9 15.419,-7.94 14.78,-21.27 38.87,-41.789 56.979,-55.579 9.92,-7.56 24.2,-0.48 24.2,12 v 37.079 c 0,9.81 7.61,17.94 17.39,18.6 1.32,0.09 2.64,0.18 3.97,0.28 16.049,1.12 29,13.61 30.75,29.6 0.219,2.009 0.429,4.02 0.639,6.04" id="path3159" stroke="#ca70ba" stroke-width="15px" stroke-linecap="round" original-stroke="#000000" fill="none"></path></g><g id="g3161" transform="translate(319.749,331.8389)"><path d="m 0,0 c 32.609,0.39 65.209,-0.1 97.819,-1.47 17.039,-0.7 34.079,-1.66 51.119,-2.86 16.03,-1.12 29,-13.549 30.75,-29.52 5.43,-49.589 6.49,-99.168 3.16,-148.748" id="path3163" stroke="#ca70ba" stroke-width="15px" stroke-linecap="round" original-stroke="#000000" fill="none"></path></g><g id="g3165" transform="translate(263.4756,220.9687)"><path d="M 0,0 V 2.398 C 0,8.723 5.126,13.85 11.451,13.85 h 22.584 c 6.325,0 11.452,-5.127 11.452,-11.452 v -91.207 c 0,-6.325 -5.127,-11.451 -11.452,-11.451 H 11.451 C 5.126,-100.26 0,-95.134 0,-88.809 v 69.351 z" id="path3167" stroke="#ca70ba" stroke-width="15px" stroke-linecap="round" original-stroke="#000000" fill="none"></path></g><g id="g3169" transform="translate(308.9629,223.3667)"><path d="m 0,0 c -0.081,4.382 0.764,8.844 2.646,13.079 2.758,6.207 7.277,11.055 12.701,14.234 8.216,4.82 14.706,12.112 18.757,20.739 l 6.858,14.611 c 3.302,7.028 10.277,11.15 17.559,11.15 2.759,0 5.561,-0.59 8.221,-1.839 C 76.43,67.422 80.6,55.881 76.048,46.193 L 60.007,12.022 c 0.056,-0.094 0.076,-0.118 0.137,-0.212 h 41.132 c 4.042,0 7.698,-1.632 10.339,-4.278 2.656,-2.65 4.287,-6.301 4.287,-10.343 0,-8.084 -6.551,-14.63 -14.626,-14.63 h 4.924 c 8.207,0 15.112,-6.712 14.946,-14.918 -0.155,-7.943 -6.64,-14.334 -14.616,-14.334 h -5.254 c 4.042,0 7.698,-1.632 10.339,-4.278 2.656,-2.651 4.287,-6.301 4.287,-10.343 0,-8.084 -6.551,-14.626 -14.626,-14.626 h -5.249 c 4.037,0 7.698,-1.636 10.343,-4.282 1.405,-1.406 2.524,-3.094 3.269,-4.976 v -0.005 c 0.65,-1.66 1.008,-3.471 1.008,-5.362 0,-8.08 -6.545,-14.626 -14.62,-14.626 h -79.69 c -6.976,0 -13.526,2.787 -18.323,7.542" id="path3171" stroke="#ca70ba" stroke-width="15px" stroke-linecap="round" original-stroke="#000000" fill="none"></path></g><g id="g3173" transform="translate(127.8916,233.0205)"><path d="m 0,0 c 4.64,5.12 8.939,10.39 12.64,15.709 3.36,4.84 8.92,7.67 14.82,7.63 43.759,-0.219 87.519,1.19 131.278,4.27 12.199,0.85 22.56,8.51 27.18,19.3 1.22,2.83 2.04,5.89 2.39,9.09 6.49,59.199 6.49,118.409 0,177.618 -1.68,15.36 -14.14,27.32 -29.55,28.4 -65.19,4.569 -130.378,5.489 -195.558,2.75 -16.38,-0.681 -32.769,-1.6 -49.159,-2.75 -15.41,-1.08 -27.88,-13.04 -29.569,-28.4 -6.481,-59.18 -6.481,-118.359 -0.011,-177.548 1.69,-15.37 14.141,-27.38 29.58,-28.46 1.27,-0.089 2.54,-0.18 3.81,-0.27 9.41,-0.63 16.73,-8.449 16.73,-17.88 V -26.2 c 0,-12 13.73,-18.81 23.27,-11.54 6.359,4.84 13.489,10.55 20.67,16.84" id="path3175" stroke="#ca70ba" stroke-width="15px" stroke-linecap="round" original-stroke="#000000" fill="none"></path></g><g id="g3177" transform="translate(200.3076,410.1089)"><path d="m 0,0 c 0,-15.249 7.417,-27.61 16.565,-27.61 9.15,0 16.567,12.361 16.567,27.61 0,15.249 -7.417,27.61 -16.567,27.61 C 7.417,27.61 0,15.249 0,0" id="path3179" fill="#ca70ba" opacity="1" original-fill="#000000"></path></g><g id="g3181" transform="translate(200.3076,410.1089)"><path d="m 0,0 c 0,-15.249 7.417,-27.61 16.565,-27.61 9.15,0 16.567,12.361 16.567,27.61 0,15.249 -7.417,27.61 -16.567,27.61 C 7.417,27.61 0,15.249 0,0 Z" id="path3183" stroke="#ca70ba" stroke-width="0.25px" stroke-linecap="butt" original-stroke="#000000" fill="none"></path></g><g id="g3185" transform="translate(95.1289,410.1089)"><path d="m 0,0 c 0,-15.249 7.416,-27.61 16.565,-27.61 9.15,0 16.567,12.361 16.567,27.61 0,15.249 -7.417,27.61 -16.567,27.61 C 7.416,27.61 0,15.249 0,0" id="path3187" fill="#ca70ba" opacity="1" original-fill="#000000"></path></g><g id="g3189" transform="translate(95.1289,410.1089)"><path d="m 0,0 c 0,-15.249 7.416,-27.61 16.565,-27.61 9.15,0 16.567,12.361 16.567,27.61 0,15.249 -7.417,27.61 -16.567,27.61 C 7.416,27.61 0,15.249 0,0 Z" id="path3191" stroke="#ca70ba" stroke-width="0.25px" stroke-linecap="butt" original-stroke="#000000" fill="none"></path></g><g id="g3193" transform="translate(218.8584,355.0752)"><path d="m 0,0 c -8.975,-21.287 -30.033,-36.231 -54.574,-36.231 -24.541,0 -45.601,14.944 -54.575,36.231" id="path3195" stroke="#ca70ba" stroke-width="15px" stroke-linecap="round" original-stroke="#000000" fill="none"></path></g></g></g></g></svg>
