<svg height="512" viewBox="0 0 64 64" width="512" xmlns="http://www.w3.org/2000/svg"><g id="_20-Education" data-name="20-Education"><path d="m54 39h-42a6.016 6.016 0 0 1 -5.28-8.87 6.114 6.114 0 0 1 1.04-1.37 5.944 5.944 0 0 1 4.24-1.76h42v3h-41a3 3 0 0 0 0 6h41z" fill="#555fa3"/><path d="m52 30v6h-39a3 3 0 0 1 0-6z" fill="#fceee0"/><path d="m13 30a3 3 0 0 0 0 6h2.5a1.5 1.5 0 0 1 0-3h36.5v-3z" fill="#c7b7aa"/><path d="m13 30h41v-3h-2a2 2 0 0 1 -2 2h-37a4 4 0 0 0 0 8h37a2 2 0 0 1 2 2h2v-3h-41a3 3 0 0 1 0-6z" fill="#38406f"/><path d="m58 51h-42a6.016 6.016 0 0 1 -5.28-8.87 6.114 6.114 0 0 1 1.04-1.37 5.944 5.944 0 0 1 4.24-1.76h42v3h-41a3 3 0 0 0 0 6h41z" fill="#fcc369"/><path d="m56 42v6h-39a3 3 0 0 1 0-6z" fill="#fceee0"/><path d="m17 42a3 3 0 0 0 0 6h2.5a1.5 1.5 0 0 1 0-3h36.5v-3z" fill="#c7b7aa"/><path d="m17 42h41v-3h-2a2 2 0 0 1 -2 2h-37a4 4 0 0 0 0 8h37a2 2 0 0 1 2 2h2v-3h-41a3 3 0 0 1 0-6z" fill="#ed9b52"/><rect fill="#ffcf82" height="2" rx="1" width="20" x="23" y="39"/><rect fill="#ffcf82" height="2" rx="1" width="4" x="45" y="39"/><path d="m54 63h-42a6.016 6.016 0 0 1 -5.28-8.87 6.114 6.114 0 0 1 1.04-1.37 5.944 5.944 0 0 1 4.24-1.76h42v3h-41a3 3 0 0 0 0 6h41z" fill="#555fa3"/><path d="m52 54v6h-39a3 3 0 0 1 0-6z" fill="#fceee0"/><path d="m13 54a3 3 0 0 0 0 6h2.5a1.5 1.5 0 0 1 0-3h36.5v-3z" fill="#c7b7aa"/><path d="m13 54h41v-3h-2a2 2 0 0 1 -2 2h-37a4 4 0 0 0 0 8h37a2 2 0 0 1 2 2h2v-3h-41a3 3 0 0 1 0-6z" fill="#38406f"/><rect fill="#7d7cda" height="2" rx="1" width="20" x="19" y="51"/><rect fill="#7d7cda" height="2" rx="1" width="4" x="41" y="51"/><path d="m40 45v6l4-3 4 3v-6z" fill="#d64379"/><path d="m62.95 26.93a1.691 1.691 0 0 1 -1.7 2.07h-2.5a1.691 1.691 0 0 1 -1.7-2.07l2.95-7.93z" fill="#fbb253"/><path d="m21.95 30a17.069 17.069 0 0 1 -6.95-3 5.115 5.115 0 0 1 -1-1v-11l.06-.18 17.94 6.18 17.94-6.18.06.18v11a5.115 5.115 0 0 1 -1 1 17.069 17.069 0 0 1 -6.95 3 44.493 44.493 0 0 1 -10.05 1 44.493 44.493 0 0 1 -10.05-1z" fill="#393d48"/><path d="m32 1 29 10-1 .34-10.06 3.48-17.94 6.18-17.94-6.18-11.06-3.82z" fill="#555b6b"/><path d="m25 11a10 10 0 0 1 7.758-9.739l-.758-.261-29 10 11.06 3.82 17.94 6.18.759-.261a10 10 0 0 1 -7.759-9.739z" fill="#393d48"/><path d="m49.94 14.82-17.94 6.18-17.94-6.18-.06.18v11a5.115 5.115 0 0 0 1 1 17.069 17.069 0 0 0 6.95 3 44.493 44.493 0 0 0 10.05 1c1.064 0 2.067-.026 3.015-.074a6.976 6.976 0 0 1 -6.015-6.905v-2.054l3 1.033 17.94-6.18.06-.02v-1.8z" fill="#2b2b37"/><path d="m62.95 26.93-.3-.8a2 2 0 0 1 -3.65-1.13l1-6-2.95 7.93a1.691 1.691 0 0 0 1.7 2.07h2.5a1.691 1.691 0 0 0 1.7-2.07z" fill="#ed9b52"/><path d="m36 47h2v2h-2z"/><path d="m63.915 26.676c-.009-.032-.019-.065-.03-.1l-2.885-7.756v-6.762l.326-.113a1 1 0 0 0 0-1.89l-29-10a1 1 0 0 0 -.652 0l-29 10a1 1 0 0 0 0 1.89l10.326 3.561v10.494a1.007 1.007 0 0 0 .163.548 8.7 8.7 0 0 0 3.11 2.452h-3.273a4 4 0 0 0 0 8h40v1h-41a5 5 0 0 1 0-10v-2a7 7 0 0 0 -.83 13.946 6.97 6.97 0 0 0 0 10.108 7 7 0 0 0 .83 13.946h42a1 1 0 0 0 1-1v-3a1 1 0 0 0 -1-1h-1v-4h1a1 1 0 0 0 1-1v-2h3a1 1 0 0 0 1-1v-3a1 1 0 0 0 -1-1h-1v-4h1a1 1 0 0 0 1-1v-3a1 1 0 0 0 -1-1h-3v-2a1 1 0 0 0 -1-1h-1v-4h1a1 1 0 0 0 1-1v-3a1 1 0 0 0 -1-1h-2v2h1v1h-5.273a8.7 8.7 0 0 0 3.11-2.452 1.007 1.007 0 0 0 .163-.548v-10.494l8-2.759v6.073l-2.885 7.76c-.011.031-.021.064-.03.1a2.6 2.6 0 0 0 .465 2.258 2.751 2.751 0 0 0 2.195 1.062h2.51a2.751 2.751 0 0 0 2.2-1.066 2.6 2.6 0 0 0 .46-2.258zm-12.915 32.324h-38a2 2 0 0 1 0-4h38zm6-18h-40a4 4 0 0 0 0 8h17v-2h-17a2 2 0 0 1 0-4h38v4h-5v2h7v1h-7v2h3v1h-40a4 4 0 0 0 0 8h40v1h-41a5 5 0 0 1 0-10h26v-2h-22a5 5 0 0 1 0-10h41zm-6-10v4h-38a2 2 0 0 1 0-4h8.875a45.674 45.674 0 0 0 10.125 1 45.674 45.674 0 0 0 10.125-1zm-2-5.36c-.827.881-4.865 4.36-17 4.36-12.163 0-16.192-3.5-17-4.357v-9.443l16.674 5.749a.994.994 0 0 0 .652 0l16.674-5.749zm-17-5.7-25.933-8.94 25.933-8.942 25.933 8.942zm29.867 7.77a.763.763 0 0 1 -.612.288h-2.51a.763.763 0 0 1 -.612-.288.608.608 0 0 1 -.121-.493l1.988-5.347 1.988 5.349a.608.608 0 0 1 -.121.493z"/><path d="m39.553 51.9a1.006 1.006 0 0 0 1.047-.1l3.4-2.55 3.4 2.55a1 1 0 0 0 .6.2 1 1 0 0 0 1-1v-6a1 1 0 0 0 -1-1h-8a1 1 0 0 0 -1 1v6a1 1 0 0 0 .553.9zm1.447-5.9h6v3l-2.4-1.8a1 1 0 0 0 -1.2 0l-2.4 1.8z"/></g></svg>