<svg clip-rule="evenodd" fill-rule="evenodd" height="512" image-rendering="optimizeQuality" shape-rendering="geometricPrecision" text-rendering="geometricPrecision" viewBox="0 0 4335 4335" width="512" xmlns="http://www.w3.org/2000/svg"><g id="Layer_x0020_1"><path d="m1831 1702c-15 0-30-5-42-17l-110-110-110 110c-54 53-140-29-84-84l110-110-110-111c-55-54 29-138 84-83l110 110 110-110c54-55 138 29 84 83l-110 111 110 110c37 37 9 101-42 101zm852 377c-138 0-251-113-251-251 0-139 113-251 251-251 139 0 251 112 251 251 0 138-112 251-251 251zm0-384c-174 0-174 265 0 265 175 0 175-265 0-265zm1038 1957c-139 0-251-113-251-251 0-139 112-251 251-251 138 0 251 112 251 251 0 138-113 251-251 251zm0-384c-175 0-175 265 0 265 173 0 174-265 0-265zm337 702h-3259c-442 0-794-358-797-797v-2272c0-685 1024-720 1082-57h2975c151 0 274 123 274 274v2578c0 151-123 274-275 274zm-3518-1015c146 0 292 36 428 111v-2165c0-557-848-557-848 0v2165c142-70 258-110 420-111zm-419 249c16 360 314 647 678 647h3260c85 0 156-69 156-155v-2578c0-86-70-156-156-156h-2972v2211c0 44-44 81-106 39-268-181-587-186-860-8zm2494 43 110-111-110-110c-55-54 29-138 83-84l111 110 110-110c54-54 138 30 84 84l-110 110 110 111c55 55-31 137-84 83l-110-110-111 110c-56 55-137-30-83-83zm-1025-68v-232c0-289 235-525 525-525h989c224 0 407-183 407-407v-415c-107 0-217 22-256-72-18-44-9-94 25-127l207-207c44-44 121-44 165 0l207 207c72 72 19 199-82 199h-148v415c0 289-235 525-525 525h-990c-224 0-406 183-406 407v232c270 68 225 475-59 475s-329-407-59-475zm2186-1697-206-203-206 206zm-2127 1808c-161 0-161 246 0 246s160-246 0-246z" fill="#ca70ba" opacity="1" original-fill="#000000"></path></g></svg>