<svg xmlns="http://www.w3.org/2000/svg" id="Layer_1" data-name="Layer 1" viewBox="0 0 64 64"><path d="M24.269,2a5.876,5.876,0,1,0,5.876,5.876A5.883,5.883,0,0,0,24.269,2Zm0,9.752a3.876,3.876,0,1,1,3.876-3.876A3.881,3.881,0,0,1,24.269,11.752Z" fill="#ca70ba" opacity="1" original-fill="#000000"></path><path d="M6.974,26.706a3.293,3.293,0,0,0,4.831.352l4.892-4.6h.582l-2.66,14.849L8.652,44.894A3.751,3.751,0,0,0,11.6,50.965c.043,0,.087,0,.131,0a3.766,3.766,0,0,0,2.7-1.29l7.815-9.006a1,1,0,0,0,.245-.655V35.584l4.624,2.957,2.11,6.583a3.751,3.751,0,0,0,4.778,2.408l.645-.219a3.748,3.748,0,0,0,2.4-4.584l-2.248-7.868a1.009,1.009,0,0,0-.383-.541l-7.264-5.159V23.179l5.234,4.55a1,1,0,0,0,1.131.125l8.74-4.715A3.646,3.646,0,1,0,38.68,16.79l-4.67,2.755-4.369-3.8a3.691,3.691,0,0,0-2.42-.9H16.674a3.674,3.674,0,0,0-2.521,1L7.3,22.256A3.311,3.311,0,0,0,6.974,26.706Zm1.694-2.99L15.521,17.3a1.679,1.679,0,0,1,1.153-.456H27.221a1.689,1.689,0,0,1,1.108.414l4.912,4.27a1,1,0,0,0,1.165.106l5.29-3.121a1.646,1.646,0,1,1,1.618,2.866l-8.131,4.386L26.815,20.23a1,1,0,0,0-1.656.755v8.692a1,1,0,0,0,.421.815l7.4,5.256,2.152,7.531a1.749,1.749,0,0,1-1.121,2.14l-.646.219a1.752,1.752,0,0,1-2.231-1.124l-2.219-6.927a1,1,0,0,0-.414-.537l-6.466-4.134a1,1,0,0,0-1.539.842v5.88l-7.571,8.724a1.754,1.754,0,0,1-2.562.091,1.754,1.754,0,0,1-.138-2.323l6.121-7.779a.986.986,0,0,0,.2-.442l2.915-16.271a1,1,0,0,0-.984-1.176H16.3a1,1,0,0,0-.684.271L10.436,25.6a1.291,1.291,0,0,1-1.9-.138A1.3,1.3,0,0,1,8.668,23.716Z" fill="#ca70ba" opacity="1" original-fill="#000000"></path><path d="M7.927,53.322a1,1,0,0,0-1,1V61a1,1,0,0,0,1,1H20.064a1,1,0,0,0,1-1V54.322a1,1,0,0,0-1-1ZM19.064,60H8.927V55.322H19.064Z" fill="#ca70ba" opacity="1" original-fill="#000000"></path><path d="M26.265,50.937a1,1,0,0,0-1,1V61a1,1,0,0,0,1,1H38.4a1,1,0,0,0,1-1V51.937a1,1,0,0,0-1-1ZM37.4,60H27.265V52.937H37.4Z" fill="#ca70ba" opacity="1" original-fill="#000000"></path><path d="M43.6,40.807V61a1,1,0,0,0,1,1H56.74a1,1,0,0,0,1-1V40.807a1,1,0,0,0-1-1H44.6A1,1,0,0,0,43.6,40.807Zm2,1H55.74V60H45.6Z" fill="#ca70ba" opacity="1" original-fill="#000000"></path></svg>
