<?xml version="1.0" encoding="UTF-8" standalone="no"?>
<!-- Created with Inkscape (http://www.inkscape.org/) -->

<svg
   version="1.1"
   id="svg2838"
   xml:space="preserve"
   width="682.66669"
   height="682.66669"
   viewBox="0 0 682.66669 682.66669"
   xmlns="http://www.w3.org/2000/svg"
   xmlns:svg="http://www.w3.org/2000/svg"><defs
     id="defs2842"><clipPath
       clipPathUnits="userSpaceOnUse"
       id="clipPath2852"><path
         d="M 0,512 H 512 V 0 H 0 Z"
         id="path2850" /></clipPath></defs><g
     id="g2844"
     transform="matrix(1.3333333,0,0,-1.3333333,0,682.66667)"><g
       id="g2846"><g
         id="g2848"
         clip-path="url(#clipPath2852)"><g
           id="g2854"
           transform="translate(275.2764,419.6846)"><path
             d="m 0,0 h -38.553 v 65.539 c 0,10.647 8.631,19.276 19.277,19.276 C -8.631,84.815 0,76.186 0,65.539 Z"
             style="fill:#4e6665;fill-opacity:1;fill-rule:nonzero;stroke:none"
             id="path2856" /></g><g
           id="g2858"
           transform="translate(292.0439,340.6699)"><path
             d="m 0,0 h -72.088 c -10.73,0 -18.832,9.731 -16.888,20.283 l 12.952,70.297 c 2.468,13.398 14.149,23.123 27.771,23.123 h 24.418 c 13.623,0 25.304,-9.725 27.772,-23.123 L 16.888,20.283 C 18.832,9.731 10.73,0 0,0"
             style="fill:#ffc648;fill-opacity:1;fill-rule:nonzero;stroke:none"
             id="path2860" /></g><g
           id="g2862"
           transform="translate(437.4238,29.1943)"><path
             d="m 0,0 h -362.848 v 183.316 c 0,100.199 81.226,181.424 181.424,181.424 C -81.226,364.74 0,283.515 0,183.316 Z"
             style="fill:#e6fdff;fill-opacity:1;fill-rule:nonzero;stroke:none"
             id="path2864" /></g><g
           id="g2866"
           transform="translate(256,393.9346)"><path
             d="m 0,0 v 0 c -8.627,0 -17.109,-0.615 -25.415,-1.78 88.164,-12.361 156.011,-88.073 156.011,-179.644 v -183.315 h 50.828 v 183.315 C 181.424,-81.226 100.198,0 0,0"
             style="fill:#c7e9ea;fill-opacity:1;fill-rule:nonzero;stroke:none"
             id="path2868" /></g><g
           id="g2870"
           transform="translate(445.8604,7.5)"><path
             d="m 0,0 h -379.721 c -11.614,0 -21.029,9.415 -21.029,21.03 0,11.615 9.415,21.03 21.029,21.03 H 0 c 11.614,0 21.03,-9.415 21.03,-21.03 C 21.03,9.415 11.614,0 0,0"
             style="fill:#a1ccce;fill-opacity:1;fill-rule:nonzero;stroke:none"
             id="path2872" /></g><g
           id="g2874"
           transform="translate(445.8604,15)"><path
             d="m 0,0 h -379.721 c -7.461,0 -13.53,6.069 -13.53,13.53 0,7.46 6.069,13.53 13.53,13.53 H 0 c 7.461,0 13.53,-6.07 13.53,-13.53 C 13.53,6.069 7.461,0 0,0 m 0,42.06 h -379.721 c -15.731,0 -28.53,-12.798 -28.53,-28.53 0,-15.731 12.799,-28.53 28.53,-28.53 H 0 c 15.731,0 28.53,12.799 28.53,28.53 0,15.732 -12.799,28.53 -28.53,28.53"
             style="fill:#000000;fill-opacity:1;fill-rule:nonzero;stroke:none"
             id="path2876" /></g><g
           id="g2878"
           transform="translate(223.3955,429.8916)"><path
             d="M 0,0 C 1.812,9.84 10.39,16.981 20.396,16.981 H 44.813 C 54.819,16.981 63.396,9.84 65.209,0 l 5.972,-32.417 c -12.457,2.595 -25.361,3.96 -38.577,3.96 -13.216,0 -26.119,-1.365 -38.577,-3.96 z m 32.604,67.108 c 6.494,0 11.777,-5.283 11.777,-11.776 V 31.981 H 20.828 v 23.351 c 0,6.493 5.282,11.776 11.776,11.776 M -148.82,-357.835 c 4.142,0 7.5,3.357 7.5,7.5 v 132.954 c 0,95.902 78.022,173.924 173.924,173.924 95.903,0 173.924,-78.022 173.924,-173.924 v -132.954 c 0,-4.143 3.358,-7.5 7.5,-7.5 4.143,0 7.5,3.357 7.5,7.5 v 132.954 c 0,85.204 -56.696,157.414 -134.343,180.887 L 79.961,2.717 c -2.19,11.884 -10.105,21.484 -20.58,26.165 v 26.45 c 0,14.765 -12.012,26.776 -26.777,26.776 C 17.84,82.108 5.828,70.097 5.828,55.332 V 28.882 C -4.647,24.201 -12.563,14.602 -14.752,2.718 l -7.225,-39.212 C -99.624,-59.967 -156.32,-132.177 -156.32,-217.381 v -132.954 c 0,-4.143 3.358,-7.5 7.5,-7.5"
             style="fill:#000000;fill-opacity:1;fill-rule:nonzero;stroke:none"
             id="path2880" /></g></g></g></g></svg>
